<svg width="129" height="137" viewBox="0 0 129 137" fill="none" xmlns="http://www.w3.org/2000/svg">
<path d="M101.58 34.7798C106.58 35.5898 110.82 37.6298 114.21 40.7198C117.71 43.8998 120.3 48.1898 121.86 53.3998C122.09 54.1898 122.82 54.7298 123.65 54.7298H125C126.19 54.7298 127.08 53.6198 126.82 52.4598C125.48 46.4698 122.47 41.4998 118.36 37.7698C114.42 34.1898 109.48 31.7398 104.01 30.5598L101.57 34.7798" fill="#2C3E3F"/>
<path d="M68.3199 92.3898C68.7999 93.1098 69.2999 93.8098 69.8299 94.4898C70.4499 95.2898 71.1099 96.0598 71.7999 96.7898C72.4899 97.5198 73.2199 98.2298 73.9799 98.8898C74.74 99.5598 75.5399 100.18 76.3599 100.77C77.1899 101.36 78.0499 101.92 78.9399 102.43C79.8399 102.95 80.7699 103.42 81.7199 103.84C82.6899 104.27 83.6799 104.66 84.6899 104.99C85.7299 105.33 86.7899 105.63 87.8599 105.87C88.9699 106.12 90.0899 106.32 91.2099 106.47C92.3799 106.62 93.5599 106.72 94.7499 106.76C95.6099 106.79 96.4799 106.8 97.3399 106.78C97.9399 106.77 98.5299 106.74 99.1299 106.7C100.41 106.62 101.68 106.47 102.95 106.26C104.31 106.04 105.65 105.74 106.98 105.37C108.37 104.98 109.74 104.5 111.07 103.93C111.75 103.64 112.43 103.32 113.09 102.97C113.76 102.62 114.42 102.24 115.07 101.83C115.73 101.42 116.36 100.98 116.98 100.51C117.61 100.03 118.22 99.5198 118.81 98.9898C119.42 98.4398 119.99 97.8598 120.54 97.2598C121.11 96.6398 121.65 95.9798 122.15 95.3098C122.67 94.5998 123.17 93.8698 123.62 93.1198C124.1 92.3298 124.53 91.5098 124.93 90.6798C125.35 89.7998 125.72 88.8998 126.06 87.9898C126.42 87.0198 126.72 86.0298 126.99 85.0198C127.27 83.9498 127.51 82.8698 127.71 81.7798C127.92 80.6098 128.08 79.4298 128.19 78.2398C128.31 76.9698 128.39 75.6898 128.42 74.3998C128.42 74.0698 128.43 73.7398 128.44 73.4098V72.9098C128.44 72.7398 128.44 72.5598 128.44 72.3898C128.44 71.7398 128.44 71.0798 128.44 70.4298C128.44 69.3998 127.6 68.5698 126.57 68.5698H98.7999C97.7699 68.5698 96.9399 69.4098 96.9399 70.4398V71.3298C96.9399 72.3598 97.7699 73.1998 98.7999 73.1998H123.82C123.88 74.7598 123.85 76.3198 123.71 77.8698C123.58 79.3298 123.37 80.7798 123.04 82.2098C122.73 83.5698 122.33 84.9098 121.83 86.2198C121.34 87.4898 120.75 88.7198 120.07 89.8998C119.4 91.0398 118.65 92.1298 117.8 93.1498C116.97 94.1598 116.05 95.0898 115.05 95.9498C114.05 96.8098 112.97 97.5798 111.85 98.2698C110.69 98.9698 109.47 99.5698 108.22 100.07C106.91 100.6 105.56 101.02 104.18 101.34C102.72 101.68 101.25 101.91 99.7599 102.04C98.9799 102.11 98.1999 102.15 97.4199 102.17C96.3899 102.19 95.3699 102.17 94.3399 102.11C93.2599 102.04 92.1799 101.93 91.0999 101.75C90.0799 101.58 89.0699 101.37 88.0699 101.1C87.1099 100.84 86.1699 100.53 85.2499 100.18C84.3599 99.8398 83.4799 99.4398 82.6299 98.9998C81.7999 98.5698 80.9999 98.0898 80.2199 97.5698C79.4499 97.0598 78.7199 96.5098 78.0099 95.9198C77.3099 95.3298 76.6399 94.7098 75.9999 94.0498C75.3599 93.3898 74.7599 92.6998 74.1999 91.9798C73.6299 91.2598 73.0899 90.4998 72.5899 89.7298C72.0999 88.9698 71.6399 88.1798 71.2199 87.3798L68.3299 92.3798L68.3199 92.3898Z" fill="#2C3E3F"/>
<path d="M115.81 3.68992C116.49 2.50992 116.09 1.00992 114.91 0.329924C113.73 -0.350076 112.23 0.0499245 111.55 1.22992L35.4 133.11C34.72 134.29 35.12 135.79 36.3 136.47C37.48 137.15 38.98 136.75 39.66 135.57L115.81 3.68992Z" fill="#AF1E23"/>
<path d="M95.59 3.68992C96.27 2.50992 95.87 1.00992 94.69 0.329924C93.51 -0.350076 92.01 0.0499245 91.33 1.22992L15.18 133.11C14.5 134.29 14.9 135.79 16.08 136.47C17.26 137.15 18.76 136.75 19.44 135.57L95.59 3.68992Z" fill="#AF1E23"/>
<path d="M5.24 36.0399H29.58C30.76 36.0399 31.95 36.0899 33.13 36.2099C33.7 36.2699 34.27 36.3399 34.84 36.4299C35.39 36.5199 35.94 36.6199 36.49 36.7499C37.02 36.8699 37.55 37.0099 38.07 37.1699C38.58 37.3299 39.08 37.4999 39.57 37.6999C40.05 37.8899 40.52 38.0999 40.97 38.3399C41.42 38.5699 41.85 38.8199 42.27 39.0899C42.68 39.3599 43.08 39.6499 43.45 39.9599C43.82 40.2699 44.18 40.5999 44.51 40.9499C44.84 41.3099 45.15 41.6799 45.44 42.0699C45.73 42.4699 45.99 42.8899 46.22 43.3299C46.46 43.7799 46.67 44.2499 46.85 44.7299C47.04 45.2399 47.19 45.7499 47.31 46.2799C47.44 46.8399 47.54 47.4099 47.6 47.9899C47.67 48.6099 47.7 49.2399 47.7 49.8599C47.7 50.3999 47.68 50.9399 47.63 51.4799C47.58 51.9999 47.51 52.5099 47.42 53.0199C47.33 53.5099 47.21 53.9999 47.06 54.4799C46.92 54.9499 46.75 55.4099 46.57 55.8599C46.38 56.2999 46.17 56.7299 45.94 57.1499C45.71 57.5599 45.45 57.9599 45.17 58.3499C44.89 58.7399 44.58 59.1099 44.25 59.4599C43.92 59.8199 43.57 60.1499 43.19 60.4699C42.81 60.7899 42.41 61.0999 41.99 61.3799C41.56 61.6699 41.11 61.9399 40.65 62.1799C40.17 62.4399 39.67 62.6699 39.17 62.8699C38.64 63.0899 38.09 63.2799 37.54 63.4499C36.96 63.6299 36.36 63.7799 35.77 63.9099C35.14 64.0499 34.5 64.1599 33.85 64.2399C33.17 64.3299 32.48 64.3999 31.79 64.4499C31.06 64.4999 30.32 64.5199 29.59 64.5199H5.24V36.0599V36.0399ZM50.59 71.8099C50.15 71.3499 49.68 70.9199 49.19 70.5099C48.72 70.1199 48.23 69.7399 47.73 69.3999C46.8 68.7599 45.81 68.1899 44.78 67.7099C44.32 67.4899 43.85 67.2899 43.37 67.0999C42.94 66.9299 42.5 66.7799 42.06 66.6399C41.77 66.5499 41.48 66.4599 41.18 66.3899C40.92 66.3199 40.65 66.2599 40.39 66.2099C41.03 66.0499 41.66 65.8699 42.27 65.6399C42.87 65.4199 43.46 65.1699 44.03 64.8899C44.59 64.6099 45.14 64.3099 45.66 63.9699C46.18 63.6399 46.67 63.2799 47.15 62.8899C47.62 62.5099 48.07 62.0999 48.49 61.6599C48.96 61.1799 49.4 60.6599 49.81 60.1199C50.24 59.5499 50.62 58.9499 50.97 58.3299C51.32 57.7099 51.62 57.0599 51.87 56.3999C52.13 55.7299 52.34 55.0399 52.51 54.3399C52.68 53.6199 52.79 52.8999 52.86 52.1699C52.89 51.7999 52.92 51.4299 52.92 51.0499C52.92 50.7699 52.92 50.4999 52.92 50.2199C52.92 49.7699 52.89 49.3299 52.86 48.8799C52.79 47.9899 52.67 47.0999 52.48 46.2199C52.3 45.3399 52.06 44.4699 51.75 43.6299C51.44 42.7799 51.07 41.9499 50.63 41.1599C50.19 40.3499 49.67 39.5799 49.1 38.8599C48.5 38.1099 47.84 37.4099 47.12 36.7799C46.36 36.1099 45.53 35.4999 44.67 34.9699C43.73 34.3899 42.74 33.8999 41.72 33.4799C40.59 33.0199 39.42 32.6499 38.24 32.3599C36.91 32.0299 35.56 31.8099 34.21 31.6499C32.68 31.4799 31.13 31.4099 29.59 31.4099H1.87C0.84 31.4099 0 32.2399 0 33.2699V103.2C0 104.23 0.84 105.07 1.87 105.07H31.39L34.05 100.46H5.24V69.1299H29.58C30.33 69.1299 31.07 69.1499 31.82 69.1899C32.58 69.2299 33.33 69.2899 34.09 69.3699C34.85 69.4499 35.6 69.5599 36.35 69.6999C37.09 69.8299 37.83 69.9899 38.56 70.1899C39.28 70.3799 39.99 70.5999 40.68 70.8599C41.36 71.1099 42.03 71.3999 42.68 71.7299C43.12 71.9599 43.56 72.1999 43.99 72.4599C44.29 72.6499 44.58 72.8399 44.87 73.0499C45.43 73.4599 45.97 73.9199 46.46 74.4099C46.96 74.9099 47.41 75.4499 47.81 76.0299C47.87 76.1199 47.94 76.2099 48 76.3099L50.6 71.8199L50.59 71.8099Z" fill="#2C3E3F"/>
</svg>
