<svg width="180" height="47" viewBox="0 0 180 47" fill="none" xmlns="http://www.w3.org/2000/svg">
<g clip-path="url(#clip0_6_1002)">
<path d="M118.67 31.39C120.62 34.38 123.84 36.3 128.17 36.3C132.11 36.3 138.97 34.59 138.97 24.9C138.97 24.61 138.97 24.32 138.97 24.03C138.97 23.75 138.74 23.52 138.46 23.52H128.99C128.71 23.52 128.48 23.75 128.48 24.03V24.34C128.48 24.62 128.71 24.85 128.99 24.85H137.64C137.92 30.95 134.15 34.98 128.24 34.98C124.02 34.98 121.12 32.96 119.51 29.94L118.67 31.39Z" fill="#2C3E3F"/>
<path d="M130.01 11.74C133.49 12.33 135.93 14.65 136.98 18.17C137.04 18.39 137.24 18.53 137.47 18.53H137.93C138.26 18.53 138.5 18.23 138.43 17.91C137.54 13.94 134.5 11.33 130.71 10.53L130.01 11.74Z" fill="#2C3E3F"/>
<path d="M159.55 35.0201C156.37 26.9601 153.19 18.9001 150.01 10.8501H148.34C145.1 18.9101 141.86 26.9601 138.62 35.0201C138.49 35.3501 138.73 35.7201 139.09 35.7201H139.63C139.84 35.7201 140.03 35.5901 140.1 35.4001C141.11 32.8501 142.13 30.3001 143.14 27.7401H155.05C156.05 30.2901 157.05 32.8401 158.06 35.3901C158.14 35.5801 158.32 35.7101 158.53 35.7101H159.07C159.43 35.7101 159.67 35.3501 159.54 35.0101L159.55 35.0201ZM143.63 26.4101L149.17 12.3401H149.24L154.57 26.4101H143.64H143.63Z" fill="#2C3E3F"/>
<path d="M172.21 10.8401H162.13C161.85 10.8401 161.62 11.0701 161.62 11.3501V35.2001C161.62 35.4801 161.85 35.7101 162.13 35.7101H162.64C162.92 35.7101 163.15 35.4801 163.15 35.2001V24.6301H171.65C176.63 24.6301 179.45 22.1601 179.45 17.8001C179.45 11.8101 175.03 10.8401 172.21 10.8401ZM171.89 23.3101H163.15V12.1601H172.1C177.08 12.1601 177.92 15.9201 177.92 17.7701C177.92 20.3501 176.39 23.3101 171.89 23.3101Z" fill="#2C3E3F"/>
<path d="M113.91 22.1301H100.44V12.1701H115.12C115.4 12.1701 115.63 11.9401 115.63 11.6601V11.3501C115.63 11.0701 115.4 10.8401 115.12 10.8401H99.42C99.14 10.8401 98.91 11.0701 98.91 11.3501V35.2001C98.91 35.4801 99.14 35.7101 99.42 35.7101H106.07L106.84 34.3801H100.45V23.4401H113.16L113.92 22.1201L113.91 22.1301Z" fill="#2C3E3F"/>
<path d="M134.79 1.26005C135.02 0.860053 134.88 0.350053 134.48 0.110053C134.08 -0.119947 133.56 0.0200527 133.33 0.420053L107.36 45.4001C107.13 45.8001 107.27 46.3201 107.67 46.5501C108.07 46.7801 108.59 46.6401 108.82 46.2401L134.79 1.26005Z" fill="#AF1E23"/>
<path d="M127.9 1.26005C128.13 0.860053 127.99 0.350053 127.59 0.110053C127.19 -0.119947 126.67 0.0200527 126.44 0.420053L100.47 45.4001C100.24 45.8001 100.38 46.3201 100.78 46.5501C101.18 46.7801 101.7 46.6401 101.93 46.2401L127.9 1.26005Z" fill="#AF1E23"/>
<path d="M44.93 10.8401H44.42C44.1384 10.8401 43.91 11.0684 43.91 11.3501V35.2001C43.91 35.4818 44.1384 35.7101 44.42 35.7101H44.93C45.2117 35.7101 45.44 35.4818 45.44 35.2001V11.3501C45.44 11.0684 45.2117 10.8401 44.93 10.8401Z" fill="#2C3E3F"/>
<path d="M94.14 17.92C93.07 13.1 88.83 10.25 83.91 10.25C76.42 10.25 72.17 16.35 72.17 23.42C72.17 30.49 76.35 36.31 83.87 36.31C87.81 36.31 94.67 34.6 94.67 24.91V24.04C94.67 23.76 94.4401 23.53 94.16 23.53H84.69C84.41 23.53 84.18 23.76 84.18 24.04V24.35C84.18 24.63 84.41 24.86 84.69 24.86H93.34C93.62 30.96 89.85 34.99 83.94 34.99C77.11 34.99 73.7 29.73 73.7 23.43C73.7 17.13 77.25 11.59 83.94 11.59C88.37 11.59 91.46 14.09 92.69 18.19C92.75 18.41 92.95 18.55 93.18 18.55H93.64C93.96 18.55 94.21 18.25 94.14 17.93V17.92Z" fill="#2C3E3F"/>
<path d="M34.89 23.6901V23.6201C38.23 23.0601 40.22 20.5901 40.21 17.2501C40.21 12.4401 36.69 10.8401 32.34 10.8401H22.47C22.19 10.8401 21.96 11.0701 21.96 11.3501V35.2001C21.96 35.4801 22.19 35.7101 22.47 35.7101H22.98C23.26 35.7101 23.49 35.4801 23.49 35.2001V24.3901H32.34C38.03 24.3901 38.28 27.7001 38.27 30.9601V35.2001C38.27 35.4801 38.5 35.7101 38.78 35.7101H39.27C39.55 35.7101 39.78 35.4901 39.78 35.2101C39.8 33.8001 39.82 32.3901 39.84 30.9801C39.84 27.7001 39.46 24.2601 34.89 23.7001V23.6901ZM23.49 23.0701V12.1701H32.34C35.68 12.1701 38.68 13.6001 38.68 17.3601C38.68 21.3601 35.96 23.0701 32.34 23.0701H23.49Z" fill="#2C3E3F"/>
<path d="M57.98 10.8401H50.34C50.06 10.8401 49.83 11.0701 49.83 11.3501V35.2001C49.83 35.4801 50.06 35.7101 50.34 35.7101H57.91C65.89 35.7101 69.47 30.3101 69.47 23.2401C69.47 16.9401 66.89 10.8401 57.98 10.8401ZM58.06 34.3901H51.38V12.1601H57.75C61.44 12.1601 67.96 13.0701 67.96 23.2401C67.96 31.8401 62.7 34.3901 58.06 34.3901Z" fill="#2C3E3F"/>
<path d="M13.03 22.6501C13.03 22.6501 12.98 22.6001 12.96 22.5801C15.85 22.2001 17.8 19.9701 17.8 17.2801C17.8 14.0801 15.88 10.8301 9.96 10.8301H0.51C0.23 10.8301 0 11.0601 0 11.3401V35.1901C0 35.4701 0.23 35.7001 0.51 35.7001H9.96C15.15 35.7001 18.64 33.2601 18.64 28.7401C18.64 23.7201 13.69 22.5401 13.03 22.6501ZM1.53 12.1601H9.96C13.27 12.1601 16.26 13.3801 16.26 17.0001C16.26 20.0601 14.14 22.1201 9.96 22.1201H1.53V12.1601ZM9.96 34.3901H1.53V23.4501H9.96C13.2 23.4501 17.1 24.4601 17.1 28.7501C17.1 32.4701 14.38 34.3901 9.96 34.3901Z" fill="#2C3E3F"/>
</g>
<defs>
<clipPath id="clip0_6_1002">
<rect width="179.45" height="46.66" fill="white"/>
</clipPath>
</defs>
</svg>
