<?xml version="1.0" encoding="UTF-8" standalone="no"?>
<svg
   clip-rule="evenodd"
   fill-rule="evenodd"
   stroke-linejoin="round"
   stroke-miterlimit="2"
   version="1.1"
   viewBox="0 0 1766 1766"
   id="svg633"
   sodipodi:docname="dh-pie.svg"
   inkscape:version="1.2.2 (b0a84865, 2022-12-01)"
   xmlns:inkscape="http://www.inkscape.org/namespaces/inkscape"
   xmlns:sodipodi="http://sodipodi.sourceforge.net/DTD/sodipodi-0.dtd"
   xmlns="http://www.w3.org/2000/svg"
   xmlns:svg="http://www.w3.org/2000/svg">
  <defs
     id="defs637" />
  <sodipodi:namedview
     id="namedview635"
     pagecolor="#ffffff"
     bordercolor="#000000"
     borderopacity="0.25"
     inkscape:showpageshadow="2"
     inkscape:pageopacity="0.0"
     inkscape:pagecheckerboard="0"
     inkscape:deskcolor="#d1d1d1"
     showgrid="false"
     inkscape:zoom="0.5815402"
     inkscape:cx="575.19669"
     inkscape:cy="879.56086"
     inkscape:window-width="1390"
     inkscape:window-height="1349"
     inkscape:window-x="2240"
     inkscape:window-y="25"
     inkscape:window-maximized="0"
     inkscape:current-layer="g297" />
  <g
     transform="translate(-400.92 -795.35)"
     id="g631">
    <rect
       x="400.92"
       y="795.35"
       width="1765.9"
       height="1765.9"
       fill="none"
       id="rect228" />
    <g
       transform="translate(114.48 629)"
       clip-rule="evenodd"
       fill-rule="evenodd"
       stroke-linejoin="round"
       stroke-miterlimit="2"
       id="g297">
      <g
         id="g810"
         onclick="window.location.href='theme/freedom-of-expression">
        <g
           transform="translate(-6.1117 -550.28)"
           onclick="window.location.href='theme/freedom-of-expression"
           id="g234">
          <path
             d="m1795.8 1818.8c-42.02 127.05-122.89 242.59-239.47 327.04-115.94 83.98-250.08 124.81-383.24 125.57 0.26-0.55 0.41-1.16 0.41-1.81l0.62-651.49z"
             fill="#0054b6"
             id="path230" />
          <path
             d="m1843.2 1834.5-32.11-63.28-621.68-200.69-65.36 47.54-0.62 651.5c0.01-7.14 1.66-13.9 4.58-19.92l45.29 71.77c143.26-0.82 287.57-44.73 412.29-135.08 125.42-90.85 212.41-215.15 257.61-351.84zm-47.47-15.69c-42.02 127.05-122.89 242.59-239.47 327.04-115.94 83.98-250.08 124.81-383.24 125.57 0.26-0.55 0.41-1.16 0.41-1.81l0.62-651.49z"
             fill="#fff"
             id="path232" />
        </g>
        <g
           transform="translate(885.14 426.04)"
           fill="#ffffff"
           font-family="Figtree-Light_Medium, Figtree"
           font-size="50px"
           font-weight="300"
           onclick="window.location.href='theme/freedom-of-expression"
           id="g240">
          <text
             x="392.56"
             y="992.09399"
             id="text236">FREEDOM OF</text>
          <text
             x="392.56"
             y="1042.09"
             id="text238">EXPRESSION</text>
        </g>
      </g>
      <g
         id="g848"
         onclick="window.location.href='/theme/transparency/'">
        <g
           transform="translate(-6.1117,-550.28)"
           onmouseover="this.style.opacity='0.9'"
           onmouseout="this.style.opacity='1'"
           onclick="window.location.href='/theme/regulation'"
           id="g246">
          <path
             d="m 784.25,1073.1 c 235.32,-168.3 544.45,-160.02 768.11,-0.61 l -382.42,532.7 -18.2,-24.74 z"
             fill="#003571"
             onmouseover="this.style.opacity='0.9'"
             onmouseout="this.style.opacity='1'"
             onclick="window.location.href='/theme/regulation/'"
             id="path242" />
          <path
             d="m 755.16,1032.5 -11.406,70 367.5,507.34 c 0.21,0.3 18.42,25.04 18.42,25.04 l 80.89,-0.47 382.42,-532.7 -11.6,-69.88 c -240.58,-171.46 -573.09,-180.38 -826.22,0.67 z m 29.087,40.66 c 235.32,-168.3 544.45,-160.02 768.11,-0.61 l -382.42,532.7 -18.2,-24.74 z"
             fill="#ffffff"
             id="path244" />
        </g>
        <g
           transform="translate(38.597,-496.97)"
           onmouseover="this.style.opacity='0.9'"
           onmouseout="this.style.opacity='1'"
           onclick="window.location.href='/theme/transparency/'"
           id="g251">
          <g
             id="regulation"
             transform="translate(471.79,683.66)"
             onmouseover="this.style.opacity='0.9'"
             onmouseout="this.style.opacity='1'"
             onclick="window.location.href='/theme/transparency/'">
            <text
               x="496.724"
               y="434.505"
               fill="#ffffff"
               font-family="Figtree-Light_Medium, Figtree"
               font-size="50px"
               font-weight="300"
               id="text248">REGULATION</text>
          </g>
        </g>
      </g>
      <g
         id="g840"
         onclick="window.location.href='/theme/transparency/'">
        <g
           transform="translate(-6.1117,-550.28)"
           onmouseover="this.style.opacity='0.9'"
           onmouseout="this.style.opacity='1'"
           onclick="window.location.href='/theme/transparency/'"
           id="g257">
          <path
             d="m 773.78,1080.8 371.23,504.62 18.02,24.88 -346.72,111.32 -277.79,88.72 c -82.755,-261.47 4.095,-557.37 235.26,-729.54 z"
             fill="#147af4"
             id="path253" />
          <path
             d="m 814.06,1051.1 -70.141,-10.47 c -248.66,185.19 -342.08,503.48 -253.07,784.72 l 62.882,32.54 277.79,-88.71 c 0.072,-0.03 346.79,-111.34 346.79,-111.34 l 25.21,-76.94 -18.02,-24.88 c -0.21,-0.29 -371.44,-504.92 -371.44,-504.92 z m -40.276,29.63 371.23,504.62 18.02,24.88 -346.72,111.32 -277.79,88.72 c -82.755,-261.47 4.095,-557.37 235.26,-729.54 z"
             fill="#ffffff"
             id="path255" />
        </g>
        <g
           transform="translate(-23.307,-484.94)"
           onmouseover="this.style.opacity='0.9'"
           onmouseout="this.style.opacity='1'"
           onclick="window.location.href='/theme/transparency/'"
           id="g263">
          <g
             transform="translate(-154.06,797.21)"
             onmouseover="this.style.opacity='0.9'"
             onmouseout="this.style.opacity='1'"
             onclick="window.location.href='/theme/transparency/'"
             id="g261">
            <text
               x="711.474"
               y="667.104"
               fill="#ffffff"
               font-family="Figtree-Light_Medium, Figtree"
               font-size="50px"
               font-weight="300"
               id="text259">TRANSPARENCY</text>
          </g>
        </g>
      </g>
      <g
         onmouseover="this.style.opacity='0.9'"
         onmouseout="this.style.opacity='1'"
         onclick="window.location.href='/theme/enforcement/'"
         id="g279">
        <g
           transform="translate(-6.1117 -550.28)"
           onmouseover="this.style.opacity='0.9'"
           onmouseout="this.style.opacity='1'"
           onclick="window.location.href='/theme/enforcement/'"
           id="g271">
          <path
             d="m1559.1 1077.4c54.17 39.65 103.19 88.32 144.7 145.63 127.75 176.37 155.65 394.86 94.5 587.88l-621.7-200.7z"
             fill="#004492"
             id="path267" />
          <path
             d="m1588.6 1037-70.14 11.19-382.5 532.81 25.26 76.74 621.7 200.7 63.03-32.48c65.77-207.61 35.73-442.61-101.68-632.31-44.65-61.65-97.39-114-155.67-156.65zm-29.52 40.35c54.17 39.65 103.19 88.32 144.7 145.63 127.75 176.37 155.65 394.86 94.5 587.88l-621.7-200.7z"
             fill="#fff"
             id="path269" />
        </g>
        <g
           transform="translate(-6.1117 -550.28)"
           onmouseover="this.style.opacity='0.9'"
           onmouseout="this.style.opacity='1'"
           onclick="window.location.href='/theme/enforcement/'"
           id="g277">
          <g
             transform="translate(672.09 1103.8)"
             onmouseover="this.style.opacity='0.9'"
             onmouseout="this.style.opacity='1'"
             onclick="window.location.href='/theme/enforcement/'"
             id="g275">
            <text
               x="737.914"
               y="373.021"
               fill="#ffffff"
               font-family="Figtree-Light_Medium, Figtree"
               font-size="50px"
               font-weight="300"
               onmouseover="this.style.opacity='0.9'"
               onmouseout="this.style.opacity='1'"
               onclick="window.location.href='/theme/enforcement/'"
               id="text273">ENFORCEMENT</text>
          </g>
        </g>
      </g>
      <g
         id="g820"
         onclick="window.location.href='/theme/internet-empowerment/'">
        <g
           transform="translate(-6.1117 -550.28)"
           onmouseover="this.style.opacity='0.9'"
           onmouseout="this.style.opacity='1'"
           onclick="window.location.href='/theme/internet-empowerment/'"
           id="g285">
          <path
             d="m541.22 1818.6 277.62-89.13 346.9-110.79-0.62 650.91c0 0.65 0.15 1.26 0.41 1.81-203.45-1.15-403.71-95.84-532.11-273.1-40.802-56.33-71.418-116.95-92.211-179.7z"
             fill="#3893f3"
             id="path281" />
          <path
             d="m525.94 1771-32.178 63.33c22.366 67.49 55.291 132.71 99.18 193.3 138.1 190.66 353.49 292.53 572.32 293.77l45.3-71.77c2.92 6.05 4.58 12.84 4.57 20 0 0 0.62-650.9 0.62-650.9l-65.21-47.68-346.9 110.79c-0.073 0.03-277.7 89.16-277.7 89.16zm15.284 47.6 277.62-89.13 346.9-110.79-0.62 650.91c0 0.65 0.15 1.26 0.41 1.81-203.45-1.15-403.71-95.84-532.11-273.1-40.802-56.33-71.418-116.95-92.211-179.7z"
             fill="#fff"
             id="path283" />
        </g>
        <g
           transform="translate(19.682 -493.53)"
           onmouseover="this.style.opacity='0.9'"
           onmouseout="this.style.opacity='1'"
           onclick="window.location.href='/theme/internet-empowerment/'"
           id="g295">
          <g
             transform="translate(275.56 780.6)"
             fill="#ffffff"
             font-family="Figtree-Light_Medium, Figtree"
             font-size="50px"
             font-weight="300"
             onmouseover="this.style.opacity='0.9'"
             onmouseout="this.style.opacity='1'"
             onclick="window.location.href='/theme/internet-empowerment/'"
             id="g293">
            <text
               x="431.46399"
               y="1120.65"
               id="text287">INTERNET</text>
            <text
               x="431.46399"
               y="1170.65"
               id="text291">EMPO<tspan
   x="570.01398"
   y="1170.65"
   id="tspan289">W</tspan>ERMENT</text>
          </g>
        </g>
      </g>
    </g>
    <g
       transform="matrix(0.84319,0,0,0.33162,511.63,1892.4)"
       id="g301">
      <rect
         x="903.59998"
         y="1320.7"
         width="59.130001"
         height="71.903"
         fill="#ffffff"
         id="rect299" />
    </g>
    <g
       transform="matrix(1.1164,0,0,1.1164,131.776,-83.23)"
       id="g305">
      <path
         d="m 1025.7,868.3 c -395.49,0 -716.58,321.09 -716.58,716.58 0,395.49 321.09,716.58 716.58,716.58 395.49,0 716.58,-321.09 716.58,-716.58 0,-395.49 -321.09,-716.58 -716.58,-716.58 z m 0,67.179 c 358.41,0 649.4,290.99 649.4,649.4 0,358.42 -290.99,649.4 -649.4,649.4 -358.42,0 -649.4,-290.98 -649.4,-649.4 0,-358.41 290.99,-649.4 649.4,-649.4 z"
         fill="#e0f2ff"
         id="path303" />
    </g>
    <g
       transform="rotate(65.425,1461.8909,1743.1177)"
       id="g523">
      <g
         transform="rotate(-96.06,594.03,1979)"
         id="g421">
        <text
           x="594.02698"
           y="1979"
           font-family="Figtree-Light_Medium, Figtree"
           font-size="50px"
           font-weight="300"
           id="text419">I</text>
      </g>
      <g
         transform="rotate(-94.11,592.41,1965.9)"
         id="g425">
        <text
           x="592.414"
           y="1965.88"
           font-family="Figtree-Light_Medium, Figtree"
           font-size="50px"
           font-weight="300"
           id="text423">N</text>
      </g>
      <g
         transform="rotate(-91.27,589.66,1927.3)"
         id="g429">
        <text
           x="589.66101"
           y="1927.25"
           font-family="Figtree-Light_Medium, Figtree"
           font-size="50px"
           font-weight="300"
           id="text427">D</text>
      </g>
      <g
         transform="rotate(-89.585,589.04,1893.1)"
         id="g433">
        <text
           x="589.03302"
           y="1893.14"
           font-family="Figtree-Light_Medium, Figtree"
           font-size="50px"
           font-weight="300"
           id="text431">I</text>
      </g>
      <g
         transform="rotate(-87.843,588.97,1880)"
         id="g437">
        <text
           x="588.966"
           y="1879.95"
           font-family="Figtree-Light_Medium, Figtree"
           font-size="50px"
           font-weight="300"
           id="text435">R</text>
      </g>
      <g
         transform="rotate(-85.666,590.1,1849.1)"
         id="g441">
        <text
           x="590.10602"
           y="1849.09"
           font-family="Figtree-Light_Medium, Figtree"
           font-size="50px"
           font-weight="300"
           id="text439">E</text>
      </g>
      <g
         transform="rotate(-83.165,592.27,1819.4)"
         id="g445">
        <text
           x="592.276"
           y="1819.4301"
           font-family="Figtree-Light_Medium, Figtree"
           font-size="50px"
           font-weight="300"
           id="text443">C</text>
      </g>
      <g
         transform="rotate(-80.756,596.62,1783.8)"
         id="g449">
        <text
           x="596.62402"
           y="1783.78"
           font-family="Figtree-Light_Medium, Figtree"
           font-size="50px"
           font-weight="300"
           id="text447">T</text>
      </g>
      <g
         transform="rotate(-77.414,603.18,1744.8)"
         id="g453">
        <text
           x="603.172"
           y="1744.84"
           font-family="Figtree-Light_Medium, Figtree"
           font-size="50px"
           font-weight="300"
           id="text451">C</text>
      </g>
      <g
         transform="rotate(-74.571,610.96,1709.7)"
         id="g457">
        <text
           x="610.96503"
           y="1709.73"
           font-family="Figtree-Light_Medium, Figtree"
           font-size="50px"
           font-weight="300"
           id="text455">O</text>
      </g>
      <g
         transform="rotate(-71.804,621.28,1672.5)"
         id="g461">
        <text
           x="621.28802"
           y="1672.53"
           font-family="Figtree-Light_Medium, Figtree"
           font-size="50px"
           font-weight="300"
           id="text459">R</text>
      </g>
      <g
         transform="rotate(-69.439,630.87,1643.2)"
         id="g465">
        <text
           x="630.87402"
           y="1643.16"
           font-family="Figtree-Light_Medium, Figtree"
           font-size="50px"
           font-weight="300"
           id="text463">R</text>
      </g>
      <g
         transform="rotate(-67.026,641.65,1614.2)"
         id="g469">
        <text
           x="641.64899"
           y="1614.21"
           font-family="Figtree-Light_Medium, Figtree"
           font-size="50px"
           font-weight="300"
           id="text467">U</text>
      </g>
      <g
         transform="matrix(0.43173,-0.902,0.902,0.43173,-1054.1,1490)"
         id="g473">
        <text
           x="655.52698"
           y="1581.5601"
           font-family="Figtree-Light_Medium, Figtree"
           font-size="50px"
           font-weight="300"
           id="text471">P</text>
      </g>
      <g
         transform="rotate(-62.419,667.82,1555.8)"
         id="g477">
        <text
           x="667.82098"
           y="1555.8"
           font-family="Figtree-Light_Medium, Figtree"
           font-size="50px"
           font-weight="300"
           id="text475">T</text>
      </g>
      <g
         transform="rotate(-60.911,680.37,1531.9)"
         id="g481">
        <text
           x="680.37097"
           y="1531.95"
           font-family="Figtree-Light_Medium, Figtree"
           font-size="50px"
           font-weight="300"
           id="text479">I</text>
      </g>
      <g
         transform="rotate(-58.954,686.58,1520.3)"
         id="g485">
        <text
           x="686.58301"
           y="1520.3199"
           font-family="Figtree-Light_Medium, Figtree"
           font-size="50px"
           font-weight="300"
           id="text483">O</text>
      </g>
      <g
         transform="rotate(-56.034,706.5,1487.2)"
         id="g489">
        <text
           x="706.50702"
           y="1487.21"
           font-family="Figtree-Light_Medium, Figtree"
           font-size="50px"
           font-weight="300"
           id="text487">N</text>
      </g>
      <g
         transform="rotate(-52.019,735.43,1444.9)"
         id="g493">
        <text
           x="735.43201"
           y="1444.9399"
           font-family="Figtree-Light_Medium, Figtree"
           font-size="50px"
           font-weight="300"
           id="text491">M</text>
      </g>
      <g
         transform="rotate(-49.31,761.43,1411.9)"
         id="g497">
        <text
           x="761.43597"
           y="1411.86"
           font-family="Figtree-Light_Medium, Figtree"
           font-size="50px"
           font-weight="300"
           id="text495">E</text>
      </g>
      <g
         transform="rotate(-46.909,780.76,1389.3)"
         id="g501">
        <text
           x="780.74902"
           y="1389.3199"
           font-family="Figtree-Light_Medium, Figtree"
           font-size="50px"
           font-weight="300"
           id="text499">A</text>
      </g>
      <g
         transform="rotate(-44.557,803.35,1365.2)"
         id="g505">
        <text
           x="803.35101"
           y="1365.1801"
           font-family="Figtree-Light_Medium, Figtree"
           font-size="50px"
           font-weight="300"
           id="text503">S</text>
      </g>
      <g
         transform="rotate(-42.056,825.26,1343.5)"
         id="g509">
        <text
           x="825.26398"
           y="1343.54"
           font-family="Figtree-Light_Medium, Figtree"
           font-size="50px"
           font-weight="300"
           id="text507">U</text>
      </g>
      <g
         transform="rotate(-39.43,851.62,1319.8)"
         id="g513">
        <text
           x="851.62402"
           y="1319.78"
           font-family="Figtree-Light_Medium, Figtree"
           font-size="50px"
           font-weight="300"
           id="text511">R</text>
      </g>
      <g
         transform="rotate(-37.243,875.49,1300.1)"
         id="g517">
        <text
           x="875.49402"
           y="1300.12"
           font-family="Figtree-Light_Medium, Figtree"
           font-size="50px"
           font-weight="300"
           id="text515">E</text>
      </g>
      <g
         transform="rotate(-34.981,899.09,1282.2)"
         id="g521">
        <text
           x="899.086"
           y="1282.17"
           font-family="Figtree-Light_Medium, Figtree"
           font-size="50px"
           font-weight="300"
           id="text519">S</text>
      </g>
    </g>
    <g
       id="g1230"
       style="display:inline">
      <g
         transform="matrix(0.29658,0,0,0.29658,972.46,1223.06)"
         id="g311">
        <circle
           cx="1025.7"
           cy="1584.9"
           r="649.40002"
           fill="#001c3d"
           onmouseover="this.style.opacity='0.9'"
           onmouseout="this.style.opacity='1'"
           onclick="window.location.href='/theme/corruption-measures/'"
           id="circle307" />
        <path
           d="m 1025.7,766.89 c -451.46,0 -817.99,366.53 -817.99,817.99 0,451.46 366.53,817.99 817.99,817.99 451.46,0 817.99,-366.53 817.99,-817.99 0,-451.46 -366.53,-817.99 -817.99,-817.99 z m 0,168.59 c 358.41,0 649.4,290.99 649.4,649.4 0,358.42 -290.99,649.4 -649.4,649.4 -358.42,0 -649.4,-290.98 -649.4,-649.4 0,-358.41 290.99,-649.4 649.4,-649.4 z"
           fill="#ffffff"
           id="path309" />
      </g>
      <g
         transform="translate(493.77,738.96)"
         fill="#ffffff"
         font-family="Figtree-Light_Medium, Figtree"
         font-size="50px"
         font-weight="300"
         onmouseover="this.style.opacity='0.9'"
         onmouseout="this.style.opacity='1'"
         onclick="window.location.href='/theme/corruption-measures/'"
         id="g627">
        <text
           x="621.34998"
           y="954.62097"
           id="text623">CORRUPTION</text>
        <text
           x="649"
           y="1004.62"
           id="text625">MEASURES</text>
      </g>
    </g>
    <g
       transform="rotate(67.994842,515.97725,1931.8711)"
       id="g417">
      <g
         transform="rotate(-138.61,456.44,1297.1)"
         id="g315">
        <text
           x="456.44199"
           y="1297.13"
           font-family="Figtree-Light_Medium, Figtree"
           font-size="43.75px"
           font-weight="300"
           id="text313">D</text>
      </g>
      <g
         transform="rotate(-133.21,434.29,1277.1)"
         id="g319">
        <text
           x="434.28699"
           y="1277.0601"
           font-family="Figtree-Light_Medium, Figtree"
           font-size="43.75px"
           font-weight="300"
           id="text317">i</text>
      </g>
      <g
         transform="rotate(-129.47,427.62,1270.2)"
         id="g323">
        <text
           x="427.62"
           y="1270.1801"
           font-family="Figtree-Light_Medium, Figtree"
           font-size="43.75px"
           font-weight="300"
           id="text321">r</text>
      </g>
      <g
         transform="rotate(-124.5,418.4,1259.5)"
         id="g327">
        <text
           x="418.40399"
           y="1259.46"
           font-family="Figtree-Light_Medium, Figtree"
           font-size="43.75px"
           font-weight="300"
           id="text325">e</text>
      </g>
      <g
         transform="rotate(-117.77,404.92,1239.9)"
         id="g331">
        <text
           x="404.92099"
           y="1239.9"
           font-family="Figtree-Light_Medium, Figtree"
           font-size="43.75px"
           font-weight="300"
           id="text329">c</text>
      </g>
      <g
         transform="matrix(-0.37634,-0.92648,0.92648,-0.37634,-586.94,2042.7)"
         id="g335">
        <text
           x="394.056"
           y="1218.91"
           font-family="Figtree-Light_Medium, Figtree"
           font-size="43.75px"
           font-weight="300"
           id="text333">t</text>
      </g>
      <g
         transform="rotate(-103.19,384.37,1193.6)"
         id="g339">
        <text
           x="384.36401"
           y="1193.63"
           font-family="Figtree-Light_Medium, Figtree"
           font-size="43.75px"
           font-weight="300"
           id="text337">c</text>
      </g>
      <g
         transform="rotate(-96.26,378.91,1170.7)"
         id="g343">
        <text
           x="378.91501"
           y="1170.6899"
           font-family="Figtree-Light_Medium, Figtree"
           font-size="43.75px"
           font-weight="300"
           id="text341">o</text>
      </g>
      <g
         transform="rotate(-90.18,376.35,1145.5)"
         id="g347">
        <text
           x="376.35699"
           y="1145.5"
           font-family="Figtree-Light_Medium, Figtree"
           font-size="43.75px"
           font-weight="300"
           id="text345">r</text>
      </g>
      <g
         transform="rotate(-86.21,376.19,1131.4)"
         id="g351">
        <text
           x="376.18701"
           y="1131.4"
           font-family="Figtree-Light_Medium, Figtree"
           font-size="43.75px"
           font-weight="300"
           id="text349">r</text>
      </g>
      <g
         transform="rotate(-81.28,376.83,1117.3)"
         id="g355">
        <text
           x="376.83301"
           y="1117.27"
           font-family="Figtree-Light_Medium, Figtree"
           font-size="43.75px"
           font-weight="300"
           id="text353">u</text>
      </g>
      <g
         transform="rotate(-73.819,380.42,1093.3)"
         id="g359">
        <text
           x="380.41599"
           y="1093.27"
           font-family="Figtree-Light_Medium, Figtree"
           font-size="43.75px"
           font-weight="300"
           id="text357">p</text>
      </g>
      <g
         transform="rotate(-68.025,387.76,1068.7)"
         id="g363">
        <text
           x="387.76099"
           y="1068.65"
           font-family="Figtree-Light_Medium, Figtree"
           font-size="43.75px"
           font-weight="300"
           id="text361">t</text>
      </g>
      <g
         transform="rotate(-64.237,393.87,1053.8)"
         id="g367">
        <text
           x="393.866"
           y="1053.76"
           font-family="Figtree-Light_Medium, Figtree"
           font-size="43.75px"
           font-weight="300"
           id="text365">i</text>
      </g>
      <g
         transform="rotate(-59.353,397.74,1044.9)"
         id="g371">
        <text
           x="397.73999"
           y="1044.92"
           font-family="Figtree-Light_Medium, Figtree"
           font-size="43.75px"
           font-weight="300"
           id="text369">o</text>
      </g>
      <g
         transform="rotate(-52.174,410.69,1023.1)"
         id="g375">
        <text
           x="410.69199"
           y="1023.09"
           font-family="Figtree-Light_Medium, Figtree"
           font-size="43.75px"
           font-weight="300"
           id="text373">n</text>
      </g>
      <g
         transform="rotate(-44.254,433.2,996.06)"
         id="g379">
        <text
           x="433.20099"
           y="996.05603"
           font-family="Figtree-Light_Medium, Figtree"
           font-size="43.75px"
           font-weight="300"
           id="text377">i</text>
      </g>
      <g
         transform="rotate(-39.451,439.88,989.07)"
         id="g383">
        <text
           x="439.88501"
           y="989.06897"
           font-family="Figtree-Light_Medium, Figtree"
           font-size="43.75px"
           font-weight="300"
           id="text381">n</text>
      </g>
      <g
         transform="rotate(-32.653,458.56,973.66)"
         id="g387">
        <text
           x="458.56"
           y="973.65601"
           font-family="Figtree-Light_Medium, Figtree"
           font-size="43.75px"
           font-weight="300"
           id="text385">d</text>
      </g>
      <g
         transform="rotate(-27.374,480.19,960.23)"
         id="g391">
        <text
           x="480.19299"
           y="960.22803"
           font-family="Figtree-Light_Medium, Figtree"
           font-size="43.75px"
           font-weight="300"
           id="text389">i</text>
      </g>
      <g
         transform="rotate(-22.634,488.67,955.49)"
         id="g395">
        <text
           x="488.66901"
           y="955.48401"
           font-family="Figtree-Light_Medium, Figtree"
           font-size="43.75px"
           font-weight="300"
           id="text393">c</text>
      </g>
      <g
         transform="rotate(-16.181,510.44,946.44)"
         id="g399">
        <text
           x="510.44299"
           y="946.43903"
           font-family="Figtree-Light_Medium, Figtree"
           font-size="43.75px"
           font-weight="300"
           id="text397">a</text>
      </g>
      <g
         transform="rotate(-10.679,531.51,940.46)"
         id="g403">
        <text
           x="531.513"
           y="940.466"
           font-family="Figtree-Light_Medium, Figtree"
           font-size="43.75px"
           font-weight="300"
           id="text401">t</text>
      </g>
      <g
         transform="rotate(-4.7648,547.36,937.23)"
         id="g407">
        <text
           x="547.35797"
           y="937.23401"
           font-family="Figtree-Light_Medium, Figtree"
           font-size="43.75px"
           font-weight="300"
           id="text405">o</text>
      </g>
      <g
         transform="rotate(1.2945,572.61,935.34)"
         id="g411">
        <text
           x="572.62299"
           y="935.33301"
           font-family="Figtree-Light_Medium, Figtree"
           font-size="43.75px"
           font-weight="300"
           id="text409">r</text>
      </g>
      <g
         transform="rotate(5.6931,586.7,935.46)"
         id="g415">
        <text
           x="586.70203"
           y="935.45502"
           font-family="Figtree-Light_Medium, Figtree"
           font-size="43.75px"
           font-weight="300"
           id="text413">s</text>
      </g>
    </g>
    <g
       transform="rotate(71.743,1361.02,1760.2568)"
       id="g621">
      <g
         transform="rotate(-95.21,593.39,1898.2)"
         id="g527">
        <text
           x="593.38501"
           y="1898.17"
           font-family="Figtree-Light_Medium, Figtree"
           font-size="50px"
           font-weight="300"
           id="text525">P</text>
      </g>
      <g
         transform="rotate(-93.06,590.78,1870)"
         id="g531">
        <text
           x="590.784"
           y="1870.01"
           font-family="Figtree-Light_Medium, Figtree"
           font-size="50px"
           font-weight="300"
           id="text529">u</text>
      </g>
      <g
         transform="rotate(-90.62,589.27,1842.3)"
         id="g535">
        <text
           x="589.27301"
           y="1842.34"
           font-family="Figtree-Light_Medium, Figtree"
           font-size="50px"
           font-weight="300"
           id="text533">b</text>
      </g>
      <g
         transform="rotate(-89.029,589.06,1813.3)"
         id="g539">
        <text
           x="589.06702"
           y="1813.27"
           font-family="Figtree-Light_Medium, Figtree"
           font-size="50px"
           font-weight="300"
           id="text537">l</text>
      </g>
      <g
         transform="rotate(-88.132,589.24,1802.8)"
         id="g543">
        <text
           x="589.23499"
           y="1802.76"
           font-family="Figtree-Light_Medium, Figtree"
           font-size="50px"
           font-weight="300"
           id="text541">i</text>
      </g>
      <g
         transform="rotate(-86.572,589.47,1791.8)"
         id="g547">
        <text
           x="589.47198"
           y="1791.8101"
           font-family="Figtree-Light_Medium, Figtree"
           font-size="50px"
           font-weight="300"
           id="text545">c</text>
      </g>
      <g
         transform="rotate(-83.849,592.28,1752.4)"
         id="g551">
        <text
           x="592.276"
           y="1752.4399"
           font-family="Figtree-Light_Medium, Figtree"
           font-size="50px"
           font-weight="300"
           id="text549">I</text>
      </g>
      <g
         transform="rotate(-82.114,593.57,1739.3)"
         id="g555">
        <text
           x="593.56897"
           y="1739.3"
           font-family="Figtree-Light_Medium, Figtree"
           font-size="50px"
           font-weight="300"
           id="text553">n</text>
      </g>
      <g
         transform="rotate(-80.199,597.44,1711.8)"
         id="g559">
        <text
           x="597.44098"
           y="1711.85"
           font-family="Figtree-Light_Medium, Figtree"
           font-size="50px"
           font-weight="300"
           id="text557">t</text>
      </g>
      <g
         transform="rotate(-78.255,600.48,1693.7)"
         id="g563">
        <text
           x="600.48602"
           y="1693.73"
           font-family="Figtree-Light_Medium, Figtree"
           font-size="50px"
           font-weight="300"
           id="text561">e</text>
      </g>
      <g
         transform="rotate(-75.948,605.99,1667.2)"
         id="g567">
        <text
           x="605.992"
           y="1667.16"
           font-family="Figtree-Light_Medium, Figtree"
           font-size="50px"
           font-weight="300"
           id="text565">g</text>
      </g>
      <g
         transform="rotate(-73.819,613.14,1639)"
         id="g571">
        <text
           x="613.14398"
           y="1638.96"
           font-family="Figtree-Light_Medium, Figtree"
           font-size="50px"
           font-weight="300"
           id="text569">r</text>
      </g>
      <g
         transform="rotate(-72.797,617.65,1623.4)"
         id="g575">
        <text
           x="617.651"
           y="1623.4301"
           font-family="Figtree-Light_Medium, Figtree"
           font-size="50px"
           font-weight="300"
           id="text573">i</text>
      </g>
      <g
         transform="rotate(-71.588,620.84,1613)"
         id="g579">
        <text
           x="620.84198"
           y="1612.97"
           font-family="Figtree-Light_Medium, Figtree"
           font-size="50px"
           font-weight="300"
           id="text577">t</text>
      </g>
      <g
         transform="rotate(-69.671,626.6,1595.4)"
         id="g583">
        <text
           x="626.599"
           y="1595.4399"
           font-family="Figtree-Light_Medium, Figtree"
           font-size="50px"
           font-weight="300"
           id="text581">y</text>
      </g>
      <g
         transform="rotate(-66.341,640,1560.1)"
         id="g587">
        <text
           x="639.99701"
           y="1560.0601"
           font-family="Figtree-Light_Medium, Figtree"
           font-size="50px"
           font-weight="300"
           id="text585">F</text>
      </g>
      <g
         transform="rotate(-64.521,650.65,1535.8)"
         id="g591">
        <text
           x="650.64899"
           y="1535.8"
           font-family="Figtree-Light_Medium, Figtree"
           font-size="50px"
           font-weight="300"
           id="text589">r</text>
      </g>
      <g
         transform="rotate(-62.963,657.49,1521.2)"
         id="g595">
        <text
           x="657.48602"
           y="1521.24"
           font-family="Figtree-Light_Medium, Figtree"
           font-size="50px"
           font-weight="300"
           id="text593">a</text>
      </g>
      <g
         transform="rotate(-60.078,668.68,1498.8)"
         id="g599">
        <text
           x="668.67297"
           y="1498.8101"
           font-family="Figtree-Light_Medium, Figtree"
           font-size="50px"
           font-weight="300"
           id="text597">m</text>
      </g>
      <g
         transform="rotate(-57.191,689.83,1462.4)"
         id="g603">
        <text
           x="689.83899"
           y="1462.37"
           font-family="Figtree-Light_Medium, Figtree"
           font-size="50px"
           font-weight="300"
           id="text601">e</text>
      </g>
      <g
         transform="rotate(-54.456,704.14,1439.9)"
         id="g607">
        <text
           x="704.13599"
           y="1439.87"
           font-family="Figtree-Light_Medium, Figtree"
           font-size="50px"
           font-weight="300"
           id="text605">w</text>
      </g>
      <g
         transform="rotate(-51.757,726.13,1409.2)"
         id="g611">
        <text
           x="726.13098"
           y="1409.22"
           font-family="Figtree-Light_Medium, Figtree"
           font-size="50px"
           font-weight="300"
           id="text609">o</text>
      </g>
      <g
         transform="rotate(-49.705,744.12,1386.5)"
         id="g615">
        <text
           x="744.12097"
           y="1386.52"
           font-family="Figtree-Light_Medium, Figtree"
           font-size="50px"
           font-weight="300"
           id="text613">r</text>
      </g>
      <g
         transform="rotate(-48.029,754.45,1374.2)"
         id="g619">
        <text
           x="754.44598"
           y="1374.16"
           font-family="Figtree-Light_Medium, Figtree"
           font-size="50px"
           font-weight="300"
           id="text617">k</text>
      </g>
    </g>
  </g>
</svg>
