<?xml version="1.0" encoding="UTF-8" standalone="no"?>
<svg
   clip-rule="evenodd"
   fill-rule="evenodd"
   stroke-linejoin="round"
   stroke-miterlimit="2"
   version="1.1"
   viewBox="0 0 1766 1766"
   id="svg633"
   sodipodi:docname="dh-pie2.svg"
   inkscape:version="1.2.2 (b0a84865, 2022-12-01)"
   xmlns:inkscape="http://www.inkscape.org/namespaces/inkscape"
   xmlns:sodipodi="http://sodipodi.sourceforge.net/DTD/sodipodi-0.dtd"
   xmlns="http://www.w3.org/2000/svg"
   xmlns:svg="http://www.w3.org/2000/svg">
  <defs
     id="defs637" />
  <sodipodi:namedview
     id="namedview635"
     pagecolor="#ffffff"
     bordercolor="#000000"
     borderopacity="0.25"
     inkscape:showpageshadow="2"
     inkscape:pageopacity="0.0"
     inkscape:pagecheckerboard="0"
     inkscape:deskcolor="#d1d1d1"
     showgrid="false"
     inkscape:zoom="0.5815402"
     inkscape:cx="686.96885"
     inkscape:cy="881.28043"
     inkscape:window-width="1390"
     inkscape:window-height="1349"
     inkscape:window-x="2240"
     inkscape:window-y="25"
     inkscape:window-maximized="0"
     inkscape:current-layer="g631" />
  <g
     transform="translate(-400.92 -795.35)"
     id="g631">
    <rect
       x="400.92"
       y="795.35"
       width="1765.9"
       height="1765.9"
       fill="none"
       id="rect228" />
    <g
       transform="translate(114.48 629)"
       clip-rule="evenodd"
       fill-rule="evenodd"
       stroke-linejoin="round"
       stroke-miterlimit="2"
       id="g297">
      <g
         id="g810"
         onclick="window.location.href='theme/freedom-of-expression">
        <g
           transform="translate(-6.1117 -550.28)"
           onclick="window.location.href='theme/freedom-of-expression"
           id="g234">
          <path
             d="m1795.8 1818.8c-42.02 127.05-122.89 242.59-239.47 327.04-115.94 83.98-250.08 124.81-383.24 125.57 0.26-0.55 0.41-1.16 0.41-1.81l0.62-651.49z"
             fill="#0054b6"
             id="path230" />
          <path
             d="m1843.2 1834.5-32.11-63.28-621.68-200.69-65.36 47.54-0.62 651.5c0.01-7.14 1.66-13.9 4.58-19.92l45.29 71.77c143.26-0.82 287.57-44.73 412.29-135.08 125.42-90.85 212.41-215.15 257.61-351.84zm-47.47-15.69c-42.02 127.05-122.89 242.59-239.47 327.04-115.94 83.98-250.08 124.81-383.24 125.57 0.26-0.55 0.41-1.16 0.41-1.81l0.62-651.49z"
             fill="#fff"
             id="path232" />
        </g>
        <g
           transform="translate(885.14 426.04)"
           fill="#ffffff"
           font-family="Figtree-Light_Medium, Figtree"
           font-size="50px"
           font-weight="300"
           onclick="window.location.href='theme/freedom-of-expression"
           id="g240">
          <g
             aria-label="FREEDOM OF"
             id="text236">
            <path
               d="m 397.56,992.09399 v -35 h 20.15 v 2.9 h -16.95 v 13.35 h 15.25 v 2.9 h -15.25 v 15.85 z"
               id="path751" />
            <path
               d="m 424.50998,992.09399 v -35 h 10.75 q 3.3,0 5.85,1.35 2.55,1.3 3.95,3.65 1.45,2.3 1.45,5.35 0,3 -1.6,5.35 -1.55,2.35 -4.25,3.7 -2.7,1.3 -6.05,1.3 h -6.9 v 14.3 z m 19.9,0 -8.5,-14.5 2.65,-1.55 9.35,16.05 z m -16.7,-17.25 h 8.4 q 2,0 3.6,-0.95 1.65,-0.95 2.65,-2.6 1,-1.7 1,-3.85 0,-3.3 -2.3,-5.35 -2.25,-2.1 -5.8,-2.1 h -7.55 z"
               id="path753" />
            <path
               d="m 455.40988,992.09399 v -35 h 20.15 v 2.9 h -16.95 v 12.6 h 15.75 v 2.9 h -15.75 v 13.7 h 16.95 v 2.9 z"
               id="path755" />
            <path
               d="m 485.05981,992.09399 v -35 h 20.15 v 2.9 h -16.95 v 12.6 h 15.75 v 2.9 h -15.75 v 13.7 h 16.95 v 2.9 z"
               id="path757" />
            <path
               d="m 514.70973,992.09399 v -35 h 10.45 q 4.75,0 8.4,2.25 3.65,2.2 5.7,6.15 2.1,3.95 2.1,9.1 0,5.1 -2.1,9.05 -2.05,3.95 -5.7,6.2 -3.65,2.25 -8.4,2.25 z m 3.2,-2.9 h 7.25 q 2.7,0 5.05,-1.1 2.35,-1.15 4.15,-3.15 1.8,-2.05 2.8,-4.7 1,-2.65 1,-5.65 0,-3 -1,-5.65 -1,-2.65 -2.8,-4.65 -1.8,-2.05 -4.15,-3.15 -2.35,-1.15 -5.05,-1.15 h -7.25 z"
               id="path759" />
            <path
               d="m 563.30966,992.69399 q -4.95,0 -8.8,-2.3 -3.8,-2.3 -6,-6.4 -2.15,-4.1 -2.15,-9.4 0,-5.35 2.15,-9.4 2.15,-4.1 5.9,-6.4 3.8,-2.3 8.75,-2.3 4.95,0 8.75,2.35 3.8,2.3 5.9,6.4 2.15,4.05 2.15,9.35 0,5.3 -2.15,9.4 -2.1,4.1 -5.85,6.4 -3.75,2.3 -8.65,2.3 z m 0,-2.9 q 3.95,0 6.95,-1.95 3.05,-1.95 4.75,-5.35 1.75,-3.45 1.75,-7.9 0,-4.45 -1.75,-7.85 -1.75,-3.45 -4.8,-5.4 -3.05,-1.95 -7.05,-1.95 -3.95,0 -7.05,1.95 -3.05,1.95 -4.8,5.4 -1.75,3.4 -1.75,7.85 0,4.45 1.75,7.9 1.75,3.4 4.85,5.35 3.15,1.95 7.15,1.95 z"
               id="path761" />
            <path
               d="m 587.45963,992.09399 v -35 h 3.2 l 12.85,19 12.8,-19 h 3.2 v 35 h -3.2 v -29.7 l -12.85,19.15 -12.8,-19.05 v 29.6 z"
               id="path763" />
            <path
               d="m 656.45952,992.69399 q -4.95,0 -8.8,-2.3 -3.8,-2.3 -6,-6.4 -2.15,-4.1 -2.15,-9.4 0,-5.35 2.15,-9.4 2.15,-4.1 5.9,-6.4 3.8,-2.3 8.75,-2.3 4.95,0 8.75,2.35 3.8,2.3 5.9,6.4 2.15,4.05 2.15,9.35 0,5.3 -2.15,9.4 -2.1,4.1 -5.85,6.4 -3.75,2.3 -8.65,2.3 z m 0,-2.9 q 3.95,0 6.95,-1.95 3.05,-1.95 4.75,-5.35 1.75,-3.45 1.75,-7.9 0,-4.45 -1.75,-7.85 -1.75,-3.45 -4.8,-5.4 -3.05,-1.95 -7.05,-1.95 -3.95,0 -7.05,1.95 -3.05,1.95 -4.8,5.4 -1.75,3.4 -1.75,7.85 0,4.45 1.75,7.9 1.75,3.4 4.85,5.35 3.15,1.95 7.15,1.95 z"
               id="path765" />
            <path
               d="m 680.6095,992.09399 v -35 h 20.15 v 2.9 h -16.95 v 13.35 h 15.25 v 2.9 h -15.25 v 15.85 z"
               id="path767" />
          </g>
          <g
             aria-label="EXPRESSION"
             id="text238">
            <path
               d="m 397.56,1042.09 v -35 h 20.15 v 2.9 h -16.95 v 12.6 h 15.75 v 2.9 h -15.75 v 13.7 h 16.95 v 2.9 z"
               id="path770" />
            <path
               d="m 422.70992,1042.09 13.5,-19.25 11.15,-15.75 h 3.8 l -13.3,18.5 -11.25,16.5 z m 24.55,0 -11.25,-16.5 -13.3,-18.5 h 3.8 l 11.15,15.75 13.5,19.25 z"
               id="path772" />
            <path
               d="m 456.65986,1042.09 v -35 h 10.75 q 3.3,0 5.85,1.4 2.55,1.35 3.95,3.8 1.45,2.45 1.45,5.65 0,3.15 -1.3,5.6 -1.25,2.45 -3.5,3.85 -2.2,1.4 -5.1,1.4 h -8.9 v 13.3 z m 3.2,-16.25 h 8.9 q 2.95,0 4.85,-2.2 1.9,-2.2 1.9,-5.7 0,-3.55 -2.3,-5.75 -2.25,-2.2 -5.8,-2.2 h -7.55 z"
               id="path774" />
            <path
               d="m 485.15985,1042.09 v -35 h 10.75 q 3.3,0 5.85,1.35 2.55,1.3 3.95,3.65 1.45,2.3 1.45,5.35 0,3 -1.6,5.35 -1.55,2.35 -4.25,3.7 -2.7,1.3 -6.05,1.3 h -6.9 v 14.3 z m 19.9,0 -8.5,-14.5 2.65,-1.55 9.35,16.05 z m -16.7,-17.25 h 8.4 q 2,0 3.6,-0.95 1.65,-0.95 2.65,-2.6 1,-1.7 1,-3.85 0,-3.3 -2.3,-5.35 -2.25,-2.1 -5.8,-2.1 h -7.55 z"
               id="path776" />
            <path
               d="m 516.05975,1042.09 v -35 h 20.15 v 2.9 h -16.95 v 12.6 h 15.75 v 2.9 h -15.75 v 13.7 h 16.95 v 2.9 z"
               id="path778" />
            <path
               d="m 556.65969,1042.69 q -2.95,0 -5.2,-0.6 -2.2,-0.65 -3.8,-1.75 -1.6,-1.1 -2.65,-2.45 -1,-1.35 -1.55,-2.85 l 3,-1.15 q 0.85,2.35 3.35,4.15 2.5,1.75 6.1,1.75 4.6,0 7.15,-1.75 2.55,-1.8 2.55,-4.7 0,-2.8 -2.35,-4.45 -2.35,-1.7 -6.1,-2.65 l -3.55,-0.9 q -2.3,-0.6 -4.3,-1.7 -1.95,-1.15 -3.15,-2.9 -1.2,-1.75 -1.2,-4.3 0,-4.7 3,-7.3 3,-2.65 8.75,-2.65 3.45,0 5.95,1.2 2.5,1.15 4,2.9 1.55,1.7 2.05,3.45 l -2.95,1.15 q -1.1,-2.75 -3.6,-4.25 -2.45,-1.55 -5.95,-1.55 -3.7,0 -5.9,1.8 -2.15,1.8 -2.15,4.85 0,2.75 1.7,4.15 1.7,1.35 4.45,2.05 l 3.55,0.85 q 5.3,1.25 8.1,4 2.85,2.7 2.85,5.8 0,2.65 -1.35,4.9 -1.35,2.2 -4.05,3.55 -2.7,1.35 -6.75,1.35 z"
               id="path780" />
            <path
               d="m 587.50962,1042.69 q -2.95,0 -5.2,-0.6 -2.2,-0.65 -3.8,-1.75 -1.6,-1.1 -2.65,-2.45 -1,-1.35 -1.55,-2.85 l 3,-1.15 q 0.85,2.35 3.35,4.15 2.5,1.75 6.1,1.75 4.6,0 7.15,-1.75 2.55,-1.8 2.55,-4.7 0,-2.8 -2.35,-4.45 -2.35,-1.7 -6.1,-2.65 l -3.55,-0.9 q -2.3,-0.6 -4.3,-1.7 -1.95,-1.15 -3.15,-2.9 -1.2,-1.75 -1.2,-4.3 0,-4.7 3,-7.3 3,-2.65 8.75,-2.65 3.45,0 5.95,1.2 2.5,1.15 4,2.9 1.55,1.7 2.05,3.45 l -2.95,1.15 q -1.1,-2.75 -3.6,-4.25 -2.45,-1.55 -5.95,-1.55 -3.7,0 -5.9,1.8 -2.15,1.8 -2.15,4.85 0,2.75 1.7,4.15 1.7,1.35 4.45,2.05 l 3.55,0.85 q 5.3,1.25 8.1,4 2.85,2.7 2.85,5.8 0,2.65 -1.35,4.9 -1.35,2.2 -4.05,3.55 -2.7,1.35 -6.75,1.35 z"
               id="path782" />
            <path
               d="m 607.40955,1042.09 v -35 h 3.2 v 35 z"
               id="path784" />
            <path
               d="m 635.05954,1042.69 q -4.95,0 -8.8,-2.3 -3.8,-2.3 -6,-6.4 -2.15,-4.1 -2.15,-9.4 0,-5.35 2.15,-9.4 2.15,-4.1 5.9,-6.4 3.8,-2.3 8.75,-2.3 4.95,0 8.75,2.35 3.8,2.3 5.9,6.4 2.15,4.05 2.15,9.35 0,5.3 -2.15,9.4 -2.1,4.1 -5.85,6.4 -3.75,2.3 -8.65,2.3 z m 0,-2.9 q 3.95,0 6.95,-1.95 3.05,-1.95 4.75,-5.35 1.75,-3.45 1.75,-7.9 0,-4.45 -1.75,-7.85 -1.75,-3.45 -4.8,-5.4 -3.05,-1.95 -7.05,-1.95 -3.95,0 -7.05,1.95 -3.05,1.95 -4.8,5.4 -1.75,3.4 -1.75,7.85 0,4.45 1.75,7.9 1.75,3.4 4.85,5.35 3.15,1.95 7.15,1.95 z"
               id="path786" />
            <path
               d="m 659.2095,1042.09 v -35 h 3.2 l 22.3,29.85 v -29.85 h 3.2 v 35 h -3.2 l -22.3,-29.9 v 29.9 z"
               id="path788" />
          </g>
        </g>
      </g>
      <g
         id="g848"
         onclick="window.location.href='/theme/transparency/'">
        <g
           transform="translate(-6.1117,-550.28)"
           onmouseover="this.style.opacity='0.9'"
           onmouseout="this.style.opacity='1'"
           onclick="window.location.href='/theme/regulation'"
           id="g246">
          <path
             d="m 784.25,1073.1 c 235.32,-168.3 544.45,-160.02 768.11,-0.61 l -382.42,532.7 -18.2,-24.74 z"
             fill="#003571"
             onmouseover="this.style.opacity='0.9'"
             onmouseout="this.style.opacity='1'"
             onclick="window.location.href='/theme/regulation/'"
             id="path242" />
          <path
             d="m 755.16,1032.5 -11.406,70 367.5,507.34 c 0.21,0.3 18.42,25.04 18.42,25.04 l 80.89,-0.47 382.42,-532.7 -11.6,-69.88 c -240.58,-171.46 -573.09,-180.38 -826.22,0.67 z m 29.087,40.66 c 235.32,-168.3 544.45,-160.02 768.11,-0.61 l -382.42,532.7 -18.2,-24.74 z"
             fill="#ffffff"
             id="path244" />
        </g>
        <g
           transform="translate(38.597,-496.97)"
           onmouseover="this.style.opacity='0.9'"
           onmouseout="this.style.opacity='1'"
           onclick="window.location.href='/theme/transparency/'"
           id="g251">
          <g
             id="regulation"
             transform="translate(471.79,683.66)"
             onmouseover="this.style.opacity='0.9'"
             onmouseout="this.style.opacity='1'"
             onclick="window.location.href='/theme/transparency/'">
            <g
               aria-label="REGULATION"
               id="text248"
               style="font-weight:300;font-size:50px;font-family:Figtree-Light_Medium, Figtree;fill:#ffffff">
              <path
                 d="m 501.724,434.505 v -35 h 10.75 q 3.3,0 5.85,1.35 2.55,1.3 3.95,3.65 1.45,2.3 1.45,5.35 0,3 -1.6,5.35 -1.55,2.35 -4.25,3.7 -2.7,1.3 -6.05,1.3 h -6.9 v 14.3 z m 19.9,0 -8.5,-14.5 2.65,-1.55 9.35,16.05 z m -16.7,-17.25 h 8.4 q 2,0 3.6,-0.95 1.65,-0.95 2.65,-2.6 1,-1.7 1,-3.85 0,-3.3 -2.3,-5.35 -2.25,-2.1 -5.8,-2.1 h -7.55 z"
                 id="path667" />
              <path
                 d="m 532.62391,434.505 v -35 h 20.15 v 2.9 h -16.95 v 12.6 h 15.75 v 2.9 h -15.75 v 13.7 h 16.95 v 2.9 z"
                 id="path669" />
              <path
                 d="m 577.92383,435.105 q -5.3,0 -9.4,-2.3 -4.1,-2.35 -6.45,-6.4 -2.3,-4.1 -2.3,-9.35 0,-5.35 2.3,-9.4 2.35,-4.1 6.45,-6.4 4.1,-2.35 9.4,-2.35 2.65,0 5.3,0.9 2.65,0.9 4.85,2.5 2.25,1.55 3.6,3.6 l -2.45,1.85 q -1.1,-1.75 -2.95,-3.1 -1.8,-1.35 -4,-2.1 -2.15,-0.75 -4.35,-0.75 -4.35,0 -7.75,1.95 -3.35,1.95 -5.3,5.4 -1.9,3.4 -1.9,7.9 0,4.4 1.9,7.85 1.95,3.4 5.3,5.35 3.4,1.95 7.75,1.95 3.65,0 6.5,-1.55 2.85,-1.55 4.45,-4.3 1.65,-2.8 1.65,-6.4 h 3.1 q 0,4.4 -2,7.85 -2,3.4 -5.55,5.35 -3.55,1.95 -8.15,1.95 z m 3.8,-15.15 v -2.95 h 11.9 v 2.95 h -1.4 z"
                 id="path671" />
              <path
                 d="m 613.22375,435.305 q -3.8,0 -6.8,-1.65 -2.95,-1.7 -4.65,-4.65 -1.65,-2.95 -1.65,-6.75 v -22.75 h 3.2 v 22.75 q 0,2.95 1.25,5.25 1.3,2.3 3.55,3.6 2.3,1.3 5.2,1.3 2.95,0 5.2,-1.3 2.3,-1.3 3.55,-3.6 1.3,-2.3 1.3,-5.25 v -22.75 h 3.2 v 22.75 q 0,3.8 -1.7,6.75 -1.7,2.95 -4.75,4.65 -3,1.65 -6.9,1.65 z"
                 id="path673" />
              <path
                 d="m 636.07373,434.505 v -35 h 3.2 v 32.1 h 16.95 v 2.9 z"
                 id="path675" />
              <path
                 d="m 685.92366,434.505 -14.3,-35 h 3.3 l 14.4,35 z m -28.7,0 14.4,-35 h 3.3 l -14.3,35 z m 6.8,-10.85 v -2.9 h 18.5 v 2.9 z"
                 id="path677" />
              <path
                 d="m 701.72359,434.505 v -32.1 h -11.4 v -2.9 h 26 v 2.9 h -11.4 v 32.1 z"
                 id="path679" />
              <path
                 d="m 721.82355,434.505 v -35 h 3.2 v 35 z"
                 id="path681" />
              <path
                 d="m 749.47354,435.105 q -4.95,0 -8.8,-2.3 -3.8,-2.3 -6,-6.4 -2.15,-4.1 -2.15,-9.4 0,-5.35 2.15,-9.4 2.15,-4.1 5.9,-6.4 3.8,-2.3 8.75,-2.3 4.95,0 8.75,2.35 3.8,2.3 5.9,6.4 2.15,4.05 2.15,9.35 0,5.3 -2.15,9.4 -2.1,4.1 -5.85,6.4 -3.75,2.3 -8.65,2.3 z m 0,-2.9 q 3.95,0 6.95,-1.95 3.05,-1.95 4.75,-5.35 1.75,-3.45 1.75,-7.9 0,-4.45 -1.75,-7.85 -1.75,-3.45 -4.8,-5.4 -3.05,-1.95 -7.05,-1.95 -3.95,0 -7.05,1.95 -3.05,1.95 -4.8,5.4 -1.75,3.4 -1.75,7.85 0,4.45 1.75,7.9 1.75,3.4 4.85,5.35 3.15,1.95 7.15,1.95 z"
                 id="path683" />
              <path
                 d="m 773.6235,434.505 v -35 h 3.2 l 22.3,29.85 v -29.85 h 3.2 v 35 h -3.2 l -22.3,-29.9 v 29.9 z"
                 id="path685" />
            </g>
          </g>
        </g>
      </g>
      <g
         id="g840"
         onclick="window.location.href='/theme/transparency/'">
        <g
           transform="translate(-6.1117,-550.28)"
           onmouseover="this.style.opacity='0.9'"
           onmouseout="this.style.opacity='1'"
           onclick="window.location.href='/theme/transparency/'"
           id="g257">
          <path
             d="m 773.78,1080.8 371.23,504.62 18.02,24.88 -346.72,111.32 -277.79,88.72 c -82.755,-261.47 4.095,-557.37 235.26,-729.54 z"
             fill="#147af4"
             id="path253" />
          <path
             d="m 814.06,1051.1 -70.141,-10.47 c -248.66,185.19 -342.08,503.48 -253.07,784.72 l 62.882,32.54 277.79,-88.71 c 0.072,-0.03 346.79,-111.34 346.79,-111.34 l 25.21,-76.94 -18.02,-24.88 c -0.21,-0.29 -371.44,-504.92 -371.44,-504.92 z m -40.276,29.63 371.23,504.62 18.02,24.88 -346.72,111.32 -277.79,88.72 c -82.755,-261.47 4.095,-557.37 235.26,-729.54 z"
             fill="#ffffff"
             id="path255" />
        </g>
        <g
           transform="translate(-23.307,-484.94)"
           onmouseover="this.style.opacity='0.9'"
           onmouseout="this.style.opacity='1'"
           onclick="window.location.href='/theme/transparency/'"
           id="g263">
          <g
             transform="translate(-154.06,797.21)"
             onmouseover="this.style.opacity='0.9'"
             onmouseout="this.style.opacity='1'"
             onclick="window.location.href='/theme/transparency/'"
             id="g261">
            <g
               aria-label="TRANSPARENCY"
               id="text259"
               style="font-weight:300;font-size:50px;font-family:Figtree-Light_Medium, Figtree;fill:#ffffff">
              <path
                 d="m 723.374,667.104 v -32.1 h -11.4 v -2.9 h 26 v 2.9 h -11.4 v 32.1 z"
                 id="path492" />
              <path
                 d="m 743.47395,667.104 v -35 h 10.75 q 3.3,0 5.85,1.35 2.55,1.3 3.95,3.65 1.45,2.3 1.45,5.35 0,3 -1.6,5.35 -1.55,2.35 -4.25,3.7 -2.7,1.3 -6.05,1.3 h -6.9 v 14.3 z m 19.9,0 -8.5,-14.5 2.65,-1.55 9.35,16.05 z m -16.7,-17.25 h 8.4 q 2,0 3.6,-0.95 1.65,-0.95 2.65,-2.6 1,-1.7 1,-3.85 0,-3.3 -2.3,-5.35 -2.25,-2.1 -5.8,-2.1 h -7.55 z"
                 id="path494" />
              <path
                 d="m 798.57386,667.104 -14.3,-35 h 3.3 l 14.4,35 z m -28.7,0 14.4,-35 h 3.3 l -14.3,35 z m 6.8,-10.85 v -2.9 h 18.5 v 2.9 z"
                 id="path496" />
              <path
                 d="m 807.47379,667.104 v -35 h 3.2 l 22.3,29.85 v -29.85 h 3.2 v 35 h -3.2 l -22.3,-29.9 v 29.9 z"
                 id="path498" />
              <path
                 d="m 857.12371,667.704 q -2.95,0 -5.2,-0.6 -2.2,-0.65 -3.8,-1.75 -1.6,-1.1 -2.65,-2.45 -1,-1.35 -1.55,-2.85 l 3,-1.15 q 0.85,2.35 3.35,4.15 2.5,1.75 6.1,1.75 4.6,0 7.15,-1.75 2.55,-1.8 2.55,-4.7 0,-2.8 -2.35,-4.45 -2.35,-1.7 -6.1,-2.65 l -3.55,-0.9 q -2.3,-0.6 -4.3,-1.7 -1.95,-1.15 -3.15,-2.9 -1.2,-1.75 -1.2,-4.3 0,-4.7 3,-7.3 3,-2.65 8.75,-2.65 3.45,0 5.95,1.2 2.5,1.15 4,2.9 1.55,1.7 2.05,3.45 l -2.95,1.15 q -1.1,-2.75 -3.6,-4.25 -2.45,-1.55 -5.95,-1.55 -3.7,0 -5.9,1.8 -2.15,1.8 -2.15,4.85 0,2.75 1.7,4.15 1.7,1.35 4.45,2.05 l 3.55,0.85 q 5.3,1.25 8.1,4 2.85,2.7 2.85,5.8 0,2.65 -1.35,4.9 -1.35,2.2 -4.05,3.55 -2.7,1.35 -6.75,1.35 z"
                 id="path500" />
              <path
                 d="m 877.02364,667.104 v -35 h 10.75 q 3.3,0 5.85,1.4 2.55,1.35 3.95,3.8 1.45,2.45 1.45,5.65 0,3.15 -1.3,5.6 -1.25,2.45 -3.5,3.85 -2.2,1.4 -5.1,1.4 h -8.9 v 13.3 z m 3.2,-16.25 h 8.9 q 2.95,0 4.85,-2.2 1.9,-2.2 1.9,-5.7 0,-3.55 -2.3,-5.75 -2.25,-2.2 -5.8,-2.2 h -7.55 z"
                 id="path502" />
              <path
                 d="m 929.72362,667.104 -14.3,-35 h 3.3 l 14.4,35 z m -28.7,0 14.4,-35 h 3.3 l -14.3,35 z m 6.8,-10.85 v -2.9 h 18.5 v 2.9 z"
                 id="path504" />
              <path
                 d="m 938.62357,667.104 v -35 h 10.75 q 3.3,0 5.85,1.35 2.55,1.3 3.95,3.65 1.45,2.3 1.45,5.35 0,3 -1.6,5.35 -1.55,2.35 -4.25,3.7 -2.7,1.3 -6.05,1.3 h -6.9 v 14.3 z m 19.9,0 -8.5,-14.5 2.65,-1.55 9.35,16.05 z m -16.7,-17.25 h 8.4 q 2,0 3.6,-0.95 1.65,-0.95 2.65,-2.6 1,-1.7 1,-3.85 0,-3.3 -2.3,-5.35 -2.25,-2.1 -5.8,-2.1 h -7.55 z"
                 id="path506" />
              <path
                 d="m 969.52347,667.104 v -35 h 20.15 v 2.9 h -16.95 v 12.6 h 15.75 v 2.9 h -15.75 v 13.7 h 16.95 v 2.9 z"
                 id="path508" />
              <path
                 d="m 999.1734,667.104 v -35 h 3.2 l 22.3,29.85 v -29.85 h 3.2 v 35 h -3.2 l -22.3,-29.9 v 29.9 z"
                 id="path510" />
              <path
                 d="m 1052.3233,667.704 q -4.95,0 -8.8,-2.3 -3.8,-2.35 -6,-6.4 -2.15,-4.1 -2.15,-9.4 0,-5.3 2.15,-9.35 2.15,-4.1 5.95,-6.4 3.8,-2.35 8.7,-2.35 2.95,0 5.75,1.1 2.85,1.05 5.15,3 2.3,1.9 3.55,4.4 l -2.65,1.65 q -1.05,-2.15 -2.95,-3.75 -1.85,-1.65 -4.15,-2.55 -2.3,-0.95 -4.7,-0.95 -3.95,0 -7.05,1.95 -3.05,1.95 -4.8,5.4 -1.75,3.4 -1.75,7.85 0,4.5 1.75,7.95 1.75,3.45 4.85,5.4 3.15,1.95 7.15,1.95 2.45,0 4.75,-1 2.3,-1.05 4.15,-2.85 1.9,-1.8 2.95,-4.1 l 2.65,1.65 q -1.3,2.65 -3.6,4.75 -2.25,2.05 -5.1,3.2 -2.85,1.15 -5.8,1.15 z"
                 id="path512" />
              <path
                 d="m 1085.1233,652.504 -2.55,-1.8 11.4,-18.6 h 3.75 z m -3.2,14.6 v -16.8 h 3.2 v 16.8 z m 0,-14.6 -12.6,-20.4 h 3.75 l 11.4,18.6 z"
                 id="path514" />
            </g>
          </g>
        </g>
      </g>
      <g
         onmouseover="this.style.opacity='0.9'"
         onmouseout="this.style.opacity='1'"
         onclick="window.location.href='/theme/enforcement/'"
         id="g279">
        <g
           transform="translate(-6.1117 -550.28)"
           onmouseover="this.style.opacity='0.9'"
           onmouseout="this.style.opacity='1'"
           onclick="window.location.href='/theme/enforcement/'"
           id="g271">
          <path
             d="m1559.1 1077.4c54.17 39.65 103.19 88.32 144.7 145.63 127.75 176.37 155.65 394.86 94.5 587.88l-621.7-200.7z"
             fill="#004492"
             id="path267" />
          <path
             d="m1588.6 1037-70.14 11.19-382.5 532.81 25.26 76.74 621.7 200.7 63.03-32.48c65.77-207.61 35.73-442.61-101.68-632.31-44.65-61.65-97.39-114-155.67-156.65zm-29.52 40.35c54.17 39.65 103.19 88.32 144.7 145.63 127.75 176.37 155.65 394.86 94.5 587.88l-621.7-200.7z"
             fill="#fff"
             id="path269" />
        </g>
        <g
           transform="translate(-6.1117 -550.28)"
           onmouseover="this.style.opacity='0.9'"
           onmouseout="this.style.opacity='1'"
           onclick="window.location.href='/theme/enforcement/'"
           id="g277">
          <g
             transform="translate(672.09 1103.8)"
             onmouseover="this.style.opacity='0.9'"
             onmouseout="this.style.opacity='1'"
             onclick="window.location.href='/theme/enforcement/'"
             id="g275">
            <g
               aria-label="ENFORCEMENT"
               id="text273"
               onclick="window.location.href='/theme/enforcement/'"
               onmouseover="this.style.opacity='0.9'"
               onmouseout="this.style.opacity='1'"
               style="font-weight:300;font-size:50px;font-family:Figtree-Light_Medium, Figtree;fill:#ffffff">
              <path
                 d="m 742.914,373.021 v -35 h 20.15 v 2.9 h -16.95 v 12.6 h 15.75 v 2.9 h -15.75 v 13.7 h 16.95 v 2.9 z"
                 id="path688" />
              <path
                 d="m 772.56393,373.021 v -35 h 3.2 l 22.3,29.85 v -29.85 h 3.2 v 35 h -3.2 l -22.3,-29.9 v 29.9 z"
                 id="path690" />
              <path
                 d="m 811.26384,373.021 v -35 h 20.15 v 2.9 h -16.95 v 13.35 h 15.25 v 2.9 h -15.25 v 15.85 z"
                 id="path692" />
              <path
                 d="m 852.66382,373.621 q -4.95,0 -8.8,-2.3 -3.8,-2.3 -6,-6.4 -2.15,-4.1 -2.15,-9.4 0,-5.35 2.15,-9.4 2.15,-4.1 5.9,-6.4 3.8,-2.3 8.75,-2.3 4.95,0 8.75,2.35 3.8,2.3 5.9,6.4 2.15,4.05 2.15,9.35 0,5.3 -2.15,9.4 -2.1,4.1 -5.85,6.4 -3.75,2.3 -8.65,2.3 z m 0,-2.9 q 3.95,0 6.95,-1.95 3.05,-1.95 4.75,-5.35 1.75,-3.45 1.75,-7.9 0,-4.45 -1.75,-7.85 -1.75,-3.45 -4.8,-5.4 -3.05,-1.95 -7.05,-1.95 -3.95,0 -7.05,1.95 -3.05,1.95 -4.8,5.4 -1.75,3.4 -1.75,7.85 0,4.45 1.75,7.9 1.75,3.4 4.85,5.35 3.15,1.95 7.15,1.95 z"
                 id="path694" />
              <path
                 d="m 876.81378,373.021 v -35 h 10.75 q 3.3,0 5.85,1.35 2.55,1.3 3.95,3.65 1.45,2.3 1.45,5.35 0,3 -1.6,5.35 -1.55,2.35 -4.25,3.7 -2.7,1.3 -6.05,1.3 h -6.9 v 14.3 z m 19.9,0 -8.5,-14.5 2.65,-1.55 9.35,16.05 z m -16.7,-17.25 h 8.4 q 2,0 3.6,-0.95 1.65,-0.95 2.65,-2.6 1,-1.7 1,-3.85 0,-3.3 -2.3,-5.35 -2.25,-2.1 -5.8,-2.1 h -7.55 z"
                 id="path696" />
              <path
                 d="m 922.16368,373.621 q -4.95,0 -8.8,-2.3 -3.8,-2.35 -6,-6.4 -2.15,-4.1 -2.15,-9.4 0,-5.3 2.15,-9.35 2.15,-4.1 5.95,-6.4 3.8,-2.35 8.7,-2.35 2.95,0 5.75,1.1 2.85,1.05 5.15,3 2.3,1.9 3.55,4.4 l -2.65,1.65 q -1.05,-2.15 -2.95,-3.75 -1.85,-1.65 -4.15,-2.55 -2.3,-0.95 -4.7,-0.95 -3.95,0 -7.05,1.95 -3.05,1.95 -4.8,5.4 -1.75,3.4 -1.75,7.85 0,4.5 1.75,7.95 1.75,3.45 4.85,5.4 3.15,1.95 7.15,1.95 2.45,0 4.75,-1 2.3,-1.05 4.15,-2.85 1.9,-1.8 2.95,-4.1 l 2.65,1.65 q -1.3,2.65 -3.6,4.75 -2.25,2.05 -5.1,3.2 -2.85,1.15 -5.8,1.15 z"
                 id="path698" />
              <path
                 d="m 943.66368,373.021 v -35 h 20.15 v 2.9 h -16.95 v 12.6 h 15.75 v 2.9 h -15.75 v 13.7 h 16.95 v 2.9 z"
                 id="path700" />
              <path
                 d="m 973.31361,373.021 v -35 h 3.2 l 12.85,19 12.79999,-19 h 3.2 v 35 h -3.2 v -29.7 l -12.84999,19.15 -12.8,-19.05 v 29.6 z"
                 id="path702" />
              <path
                 d="m 1015.3636,373.021 v -35 h 20.15 v 2.9 h -16.95 v 12.6 h 15.75 v 2.9 h -15.75 v 13.7 h 16.95 v 2.9 z"
                 id="path704" />
              <path
                 d="m 1045.0135,373.021 v -35 h 3.2 l 22.3,29.85 v -29.85 h 3.2 v 35 h -3.2 l -22.3,-29.9 v 29.9 z"
                 id="path706" />
              <path
                 d="m 1090.6134,373.021 v -32.1 h -11.4 v -2.9 h 26 v 2.9 h -11.4 v 32.1 z"
                 id="path708" />
            </g>
          </g>
        </g>
      </g>
      <g
         id="g820"
         onclick="window.location.href='/theme/internet-empowerment/'">
        <g
           transform="translate(-6.1117 -550.28)"
           onmouseover="this.style.opacity='0.9'"
           onmouseout="this.style.opacity='1'"
           onclick="window.location.href='/theme/internet-empowerment/'"
           id="g285">
          <path
             d="m541.22 1818.6 277.62-89.13 346.9-110.79-0.62 650.91c0 0.65 0.15 1.26 0.41 1.81-203.45-1.15-403.71-95.84-532.11-273.1-40.802-56.33-71.418-116.95-92.211-179.7z"
             fill="#3893f3"
             id="path281" />
          <path
             d="m525.94 1771-32.178 63.33c22.366 67.49 55.291 132.71 99.18 193.3 138.1 190.66 353.49 292.53 572.32 293.77l45.3-71.77c2.92 6.05 4.58 12.84 4.57 20 0 0 0.62-650.9 0.62-650.9l-65.21-47.68-346.9 110.79c-0.073 0.03-277.7 89.16-277.7 89.16zm15.284 47.6 277.62-89.13 346.9-110.79-0.62 650.91c0 0.65 0.15 1.26 0.41 1.81-203.45-1.15-403.71-95.84-532.11-273.1-40.802-56.33-71.418-116.95-92.211-179.7z"
             fill="#fff"
             id="path283" />
        </g>
        <g
           transform="translate(19.682 -493.53)"
           onmouseover="this.style.opacity='0.9'"
           onmouseout="this.style.opacity='1'"
           onclick="window.location.href='/theme/internet-empowerment/'"
           id="g295">
          <g
             transform="translate(275.56 780.6)"
             fill="#ffffff"
             font-family="Figtree-Light_Medium, Figtree"
             font-size="50px"
             font-weight="300"
             onmouseover="this.style.opacity='0.9'"
             onmouseout="this.style.opacity='1'"
             onclick="window.location.href='/theme/internet-empowerment/'"
             id="g293">
            <g
               aria-label="INTERNET"
               id="text287">
              <path
                 d="m 436.46399,1120.65 v -35 h 3.2 v 35 z"
                 id="path711" />
              <path
                 d="m 449.66399,1120.65 v -35 h 3.2 l 22.3,29.85 v -29.85 h 3.2 v 35 h -3.2 l -22.3,-29.9 v 29.9 z"
                 id="path713" />
              <path
                 d="m 495.2639,1120.65 v -32.1 h -11.4 v -2.9 h 26 v 2.9 h -11.4 v 32.1 z"
                 id="path715" />
              <path
                 d="m 515.36385,1120.65 v -35 h 20.15 v 2.9 h -16.95 v 12.6 h 15.75 v 2.9 h -15.75 v 13.7 h 16.95 v 2.9 z"
                 id="path717" />
              <path
                 d="m 545.01378,1120.65 v -35 h 10.75 q 3.3,0 5.85,1.35 2.55,1.3 3.95,3.65 1.45,2.3 1.45,5.35 0,3 -1.6,5.35 -1.55,2.35 -4.25,3.7 -2.7,1.3 -6.05,1.3 h -6.9 v 14.3 z m 19.9,0 -8.5,-14.5 2.65,-1.55 9.35,16.05 z m -16.7,-17.25 h 8.4 q 2,0 3.6,-0.95 1.65,-0.95 2.65,-2.6 1,-1.7 1,-3.85 0,-3.3 -2.3,-5.35 -2.25,-2.1 -5.8,-2.1 h -7.55 z"
                 id="path719" />
              <path
                 d="m 575.91368,1120.65 v -35 h 3.2 l 22.3,29.85 v -29.85 h 3.2 v 35 h -3.2 l -22.3,-29.9 v 29.9 z"
                 id="path721" />
              <path
                 d="m 614.61359,1120.65 v -35 h 20.15 v 2.9 h -16.95 v 12.6 h 15.75 v 2.9 h -15.75 v 13.7 h 16.95 v 2.9 z"
                 id="path723" />
              <path
                 d="m 651.16352,1120.65 v -32.1 h -11.4 v -2.9 h 26 v 2.9 h -11.4 v 32.1 z"
                 id="path725" />
            </g>
            <g
               aria-label="EMPOWERMENT"
               id="text291">
              <path
                 d="m 436.46399,1170.65 v -35 h 20.15 v 2.9 h -16.95 v 12.6 h 15.75 v 2.9 h -15.75 v 13.7 h 16.95 v 2.9 z"
                 id="path728" />
              <path
                 d="m 466.11391,1170.65 v -35 h 3.2 l 12.85,19 12.8,-19 h 3.2 v 35 h -3.2 v -29.7 l -12.85,19.15 -12.8,-19.05 v 29.6 z"
                 id="path730" />
              <path
                 d="m 508.16389,1170.65 v -35 h 10.75 q 3.3,0 5.85,1.4 2.55,1.35 3.95,3.8 1.45,2.45 1.45,5.65 0,3.15 -1.3,5.6 -1.25,2.45 -3.5,3.85 -2.2,1.4 -5.1,1.4 h -8.9 v 13.3 z m 3.2,-16.25 h 8.9 q 2.95,0 4.85,-2.2 1.9,-2.2 1.9,-5.7 0,-3.55 -2.3,-5.75 -2.25,-2.2 -5.8,-2.2 h -7.55 z"
                 id="path732" />
              <path
                 d="m 551.11388,1171.25 q -4.95,0 -8.8,-2.3 -3.8,-2.3 -6,-6.4 -2.15,-4.1 -2.15,-9.4 0,-5.35 2.15,-9.4 2.15,-4.1 5.9,-6.4 3.8,-2.3 8.75,-2.3 4.95,0 8.75,2.35 3.8,2.3 5.9,6.4 2.15,4.05 2.15,9.35 0,5.3 -2.15,9.4 -2.1,4.1 -5.85,6.4 -3.75,2.3 -8.65,2.3 z m 0,-2.9 q 3.95,0 6.95,-1.95 3.05,-1.95 4.75,-5.35 1.75,-3.45 1.75,-7.9 0,-4.45 -1.75,-7.85 -1.75,-3.45 -4.8,-5.4 -3.05,-1.95 -7.05,-1.95 -3.95,0 -7.05,1.95 -3.05,1.95 -4.8,5.4 -1.75,3.4 -1.75,7.85 0,4.45 1.75,7.9 1.75,3.4 4.85,5.35 3.15,1.95 7.15,1.95 z"
                 id="path734" />
              <path
                 d="m 602.71398,1170.65 11.1,-35 h 3.2 l -11.05,35 z m -21.4,0 -10.8,-35 h 3.2 l 10.85,35 z m 0.25,0 10.6,-35 h 3.2 l -10.55,35 z m 20.9,0 -10.3,-35 h 3.2 l 10.35,35 z"
                 id="path736" />
              <path
                 d="m 622.51392,1170.65 v -35 h 20.15 v 2.9 h -16.95 v 12.6 h 15.75 v 2.9 h -15.75 v 13.7 h 16.95 v 2.9 z"
                 id="path738" />
              <path
                 d="m 652.16385,1170.65 v -35 h 10.75 q 3.3,0 5.85,1.35 2.55,1.3 3.95,3.65 1.45,2.3 1.45,5.35 0,3 -1.6,5.35 -1.55,2.35 -4.25,3.7 -2.7,1.3 -6.05,1.3 h -6.9 v 14.3 z m 19.9,0 -8.5,-14.5 2.65,-1.55 9.35,16.05 z m -16.7,-17.25 h 8.4 q 2,0 3.6,-0.95 1.65,-0.95 2.65,-2.6 1,-1.7 1,-3.85 0,-3.3 -2.3,-5.35 -2.25,-2.1 -5.8,-2.1 h -7.55 z"
                 id="path740" />
              <path
                 d="m 683.06375,1170.65 v -35 h 3.2 l 12.85,19 12.8,-19 h 3.2 v 35 h -3.2 v -29.7 l -12.85,19.15 -12.8,-19.05 v 29.6 z"
                 id="path742" />
              <path
                 d="m 725.11374,1170.65 v -35 h 20.15 v 2.9 h -16.95 v 12.6 h 15.75 v 2.9 h -15.75 v 13.7 h 16.95 v 2.9 z"
                 id="path744" />
              <path
                 d="m 754.76366,1170.65 v -35 h 3.2 l 22.3,29.85 v -29.85 h 3.2 v 35 h -3.2 l -22.3,-29.9 v 29.9 z"
                 id="path746" />
              <path
                 d="m 800.36356,1170.65 v -32.1 h -11.4 v -2.9 h 26 v 2.9 h -11.4 v 32.1 z"
                 id="path748" />
            </g>
          </g>
        </g>
      </g>
    </g>
    <g
       transform="matrix(0.84319,0,0,0.33162,511.63,1892.4)"
       id="g301">
      <rect
         x="903.59998"
         y="1320.7"
         width="59.130001"
         height="71.903"
         fill="#ffffff"
         id="rect299" />
    </g>
    <g
       transform="matrix(1.1164,0,0,1.1164,131.776,-83.23)"
       id="g305">
      <path
         d="m 1025.7,868.3 c -395.49,0 -716.58,321.09 -716.58,716.58 0,395.49 321.09,716.58 716.58,716.58 395.49,0 716.58,-321.09 716.58,-716.58 0,-395.49 -321.09,-716.58 -716.58,-716.58 z m 0,67.179 c 358.41,0 649.4,290.99 649.4,649.4 0,358.42 -290.99,649.4 -649.4,649.4 -358.42,0 -649.4,-290.98 -649.4,-649.4 0,-358.41 290.99,-649.4 649.4,-649.4 z"
         fill="#e0f2ff"
         id="path303" />
    </g>
    <g
       transform="rotate(65.425,1461.8909,1743.1177)"
       id="g523">
      <g
         transform="rotate(-96.06,594.03,1979)"
         id="g421">
        <g
           aria-label="I"
           id="text419"
           style="font-weight:300;font-size:50px;font-family:Figtree-Light_Medium, Figtree">
          <path
             d="m 599.02698,1979 v -35 h 3.2 v 35 z"
             id="path589" />
        </g>
      </g>
      <g
         transform="rotate(-94.11,592.41,1965.9)"
         id="g425">
        <g
           aria-label="N"
           id="text423"
           style="font-weight:300;font-size:50px;font-family:Figtree-Light_Medium, Figtree">
          <path
             d="m 597.414,1965.88 v -35 h 3.2 l 22.3,29.85 v -29.85 h 3.2 v 35 h -3.2 l -22.3,-29.9 v 29.9 z"
             id="path592" />
        </g>
      </g>
      <g
         transform="rotate(-91.27,589.66,1927.3)"
         id="g429">
        <g
           aria-label="D"
           id="text427"
           style="font-weight:300;font-size:50px;font-family:Figtree-Light_Medium, Figtree">
          <path
             d="m 594.66101,1927.25 v -35 h 10.45 q 4.75,0 8.4,2.25 3.65,2.2 5.7,6.15 2.1,3.95 2.1,9.1 0,5.1 -2.1,9.05 -2.05,3.95 -5.7,6.2 -3.65,2.25 -8.4,2.25 z m 3.2,-2.9 h 7.25 q 2.7,0 5.05,-1.1 2.35,-1.15 4.15,-3.15 1.8,-2.05 2.8,-4.7 1,-2.65 1,-5.65 0,-3 -1,-5.65 -1,-2.65 -2.8,-4.65 -1.8,-2.05 -4.15,-3.15 -2.35,-1.15 -5.05,-1.15 h -7.25 z"
             id="path595" />
        </g>
      </g>
      <g
         transform="rotate(-89.585,589.04,1893.1)"
         id="g433">
        <g
           aria-label="I"
           id="text431"
           style="font-weight:300;font-size:50px;font-family:Figtree-Light_Medium, Figtree">
          <path
             d="m 594.03302,1893.14 v -35 h 3.2 v 35 z"
             id="path598" />
        </g>
      </g>
      <g
         transform="rotate(-87.843,588.97,1880)"
         id="g437">
        <g
           aria-label="R"
           id="text435"
           style="font-weight:300;font-size:50px;font-family:Figtree-Light_Medium, Figtree">
          <path
             d="m 593.966,1879.95 v -35 h 10.75 q 3.3,0 5.85,1.35 2.55,1.3 3.95,3.65 1.45,2.3 1.45,5.35 0,3 -1.6,5.35 -1.55,2.35 -4.25,3.7 -2.7,1.3 -6.05,1.3 h -6.9 v 14.3 z m 19.9,0 -8.5,-14.5 2.65,-1.55 9.35,16.05 z m -16.7,-17.25 h 8.4 q 2,0 3.6,-0.95 1.65,-0.95 2.65,-2.6 1,-1.7 1,-3.85 0,-3.3 -2.3,-5.35 -2.25,-2.1 -5.8,-2.1 h -7.55 z"
             id="path601" />
        </g>
      </g>
      <g
         transform="rotate(-85.666,590.1,1849.1)"
         id="g441">
        <g
           aria-label="E"
           id="text439"
           style="font-weight:300;font-size:50px;font-family:Figtree-Light_Medium, Figtree">
          <path
             d="m 595.10602,1849.09 v -35 h 20.15 v 2.9 h -16.95 v 12.6 h 15.75 v 2.9 h -15.75 v 13.7 h 16.95 v 2.9 z"
             id="path604" />
        </g>
      </g>
      <g
         transform="rotate(-83.165,592.27,1819.4)"
         id="g445">
        <g
           aria-label="C"
           id="text443"
           style="font-weight:300;font-size:50px;font-family:Figtree-Light_Medium, Figtree">
          <path
             d="m 611.726,1820.0301 q -4.95,0 -8.8,-2.3 -3.8,-2.35 -6,-6.4 -2.15,-4.1 -2.15,-9.4 0,-5.3 2.15,-9.35 2.15,-4.1 5.95,-6.4 3.8,-2.35 8.7,-2.35 2.95,0 5.75,1.1 2.85,1.05 5.15,3 2.3,1.9 3.55,4.4 l -2.65,1.65 q -1.05,-2.15 -2.95,-3.75 -1.85,-1.65 -4.15,-2.55 -2.3,-0.95 -4.7,-0.95 -3.95,0 -7.05,1.95 -3.05,1.95 -4.8,5.4 -1.75,3.4 -1.75,7.85 0,4.5 1.75,7.95 1.75,3.45 4.85,5.4 3.15,1.95 7.15,1.95 2.45,0 4.75,-1 2.3,-1.05 4.15,-2.85 1.9,-1.8 2.95,-4.1 l 2.65,1.65 q -1.3,2.65 -3.6,4.75 -2.25,2.05 -5.1,3.2 -2.85,1.15 -5.8,1.15 z"
             id="path607" />
        </g>
      </g>
      <g
         transform="rotate(-80.756,596.62,1783.8)"
         id="g449">
        <g
           aria-label="T"
           id="text447"
           style="font-weight:300;font-size:50px;font-family:Figtree-Light_Medium, Figtree">
          <path
             d="m 608.52402,1783.78 v -32.1 h -11.4 v -2.9 h 26 v 2.9 h -11.4 v 32.1 z"
             id="path610" />
        </g>
      </g>
      <g
         transform="rotate(-77.414,603.18,1744.8)"
         id="g453">
        <g
           aria-label="C"
           id="text451"
           style="font-weight:300;font-size:50px;font-family:Figtree-Light_Medium, Figtree">
          <path
             d="m 622.622,1745.44 q -4.95,0 -8.8,-2.3 -3.8,-2.35 -6,-6.4 -2.15,-4.1 -2.15,-9.4 0,-5.3 2.15,-9.35 2.15,-4.1 5.95,-6.4 3.8,-2.35 8.7,-2.35 2.95,0 5.75,1.1 2.85,1.05 5.15,3 2.3,1.9 3.55,4.4 l -2.65,1.65 q -1.05,-2.15 -2.95,-3.75 -1.85,-1.65 -4.15,-2.55 -2.3,-0.95 -4.7,-0.95 -3.95,0 -7.05,1.95 -3.05,1.95 -4.8,5.4 -1.75,3.4 -1.75,7.85 0,4.5 1.75,7.95 1.75,3.45 4.85,5.4 3.15,1.95 7.15,1.95 2.45,0 4.75,-1 2.3,-1.05 4.15,-2.85 1.9,-1.8 2.95,-4.1 l 2.65,1.65 q -1.3,2.65 -3.6,4.75 -2.25,2.05 -5.1,3.2 -2.85,1.15 -5.8,1.15 z"
             id="path613" />
        </g>
      </g>
      <g
         transform="rotate(-74.571,610.96,1709.7)"
         id="g457">
        <g
           aria-label="O"
           id="text455"
           style="font-weight:300;font-size:50px;font-family:Figtree-Light_Medium, Figtree">
          <path
             d="m 630.41503,1710.33 q -4.95,0 -8.8,-2.3 -3.8,-2.3 -6,-6.4 -2.15,-4.1 -2.15,-9.4 0,-5.35 2.15,-9.4 2.15,-4.1 5.9,-6.4 3.8,-2.3 8.75,-2.3 4.95,0 8.75,2.35 3.8,2.3 5.9,6.4 2.15,4.05 2.15,9.35 0,5.3 -2.15,9.4 -2.1,4.1 -5.85,6.4 -3.75,2.3 -8.65,2.3 z m 0,-2.9 q 3.95,0 6.95,-1.95 3.05,-1.95 4.75,-5.35 1.75,-3.45 1.75,-7.9 0,-4.45 -1.75,-7.85 -1.75,-3.45 -4.8,-5.4 -3.05,-1.95 -7.05,-1.95 -3.95,0 -7.05,1.95 -3.05,1.95 -4.8,5.4 -1.75,3.4 -1.75,7.85 0,4.45 1.75,7.9 1.75,3.4 4.85,5.35 3.15,1.95 7.15,1.95 z"
             id="path616" />
        </g>
      </g>
      <g
         transform="rotate(-71.804,621.28,1672.5)"
         id="g461">
        <g
           aria-label="R"
           id="text459"
           style="font-weight:300;font-size:50px;font-family:Figtree-Light_Medium, Figtree">
          <path
             d="m 626.28802,1672.53 v -35 h 10.75 q 3.3,0 5.85,1.35 2.55,1.3 3.95,3.65 1.45,2.3 1.45,5.35 0,3 -1.6,5.35 -1.55,2.35 -4.25,3.7 -2.7,1.3 -6.05,1.3 h -6.9 v 14.3 z m 19.9,0 -8.5,-14.5 2.65,-1.55 9.35,16.05 z m -16.7,-17.25 h 8.4 q 2,0 3.6,-0.95 1.65,-0.95 2.65,-2.6 1,-1.7 1,-3.85 0,-3.3 -2.3,-5.35 -2.25,-2.1 -5.8,-2.1 h -7.55 z"
             id="path619" />
        </g>
      </g>
      <g
         transform="rotate(-69.439,630.87,1643.2)"
         id="g465">
        <g
           aria-label="R"
           id="text463"
           style="font-weight:300;font-size:50px;font-family:Figtree-Light_Medium, Figtree">
          <path
             d="m 635.87402,1643.16 v -35 h 10.75 q 3.3,0 5.85,1.35 2.55,1.3 3.95,3.65 1.45,2.3 1.45,5.35 0,3 -1.6,5.35 -1.55,2.35 -4.25,3.7 -2.7,1.3 -6.05,1.3 h -6.9 v 14.3 z m 19.9,0 -8.5,-14.5 2.65,-1.55 9.35,16.05 z m -16.7,-17.25 h 8.4 q 2,0 3.6,-0.95 1.65,-0.95 2.65,-2.6 1,-1.7 1,-3.85 0,-3.3 -2.3,-5.35 -2.25,-2.1 -5.8,-2.1 h -7.55 z"
             id="path622" />
        </g>
      </g>
      <g
         transform="rotate(-67.026,641.65,1614.2)"
         id="g469">
        <g
           aria-label="U"
           id="text467"
           style="font-weight:300;font-size:50px;font-family:Figtree-Light_Medium, Figtree">
          <path
             d="m 659.24899,1615.01 q -3.8,0 -6.8,-1.65 -2.95,-1.7 -4.65,-4.65 -1.65,-2.95 -1.65,-6.75 v -22.75 h 3.2 v 22.75 q 0,2.95 1.25,5.25 1.3,2.3 3.55,3.6 2.3,1.3 5.2,1.3 2.95,0 5.2,-1.3 2.3,-1.3 3.55,-3.6 1.3,-2.3 1.3,-5.25 v -22.75 h 3.2 v 22.75 q 0,3.8 -1.7,6.75 -1.7,2.95 -4.75,4.65 -3,1.65 -6.9,1.65 z"
             id="path625" />
        </g>
      </g>
      <g
         transform="matrix(0.43173,-0.902,0.902,0.43173,-1054.1,1490)"
         id="g473">
        <g
           aria-label="P"
           id="text471"
           style="font-weight:300;font-size:50px;font-family:Figtree-Light_Medium, Figtree">
          <path
             d="m 660.52698,1581.5601 v -35 h 10.75 q 3.3,0 5.85,1.4 2.55,1.35 3.95,3.8 1.45,2.45 1.45,5.65 0,3.15 -1.3,5.6 -1.25,2.45 -3.5,3.85 -2.2,1.4 -5.1,1.4 h -8.9 v 13.3 z m 3.2,-16.25 h 8.9 q 2.95,0 4.85,-2.2 1.9,-2.2 1.9,-5.7 0,-3.55 -2.3,-5.75 -2.25,-2.2 -5.8,-2.2 h -7.55 z"
             id="path628" />
        </g>
      </g>
      <g
         transform="rotate(-62.419,667.82,1555.8)"
         id="g477">
        <g
           aria-label="T"
           id="text475"
           style="font-weight:300;font-size:50px;font-family:Figtree-Light_Medium, Figtree">
          <path
             d="m 679.72098,1555.8 v -32.1 h -11.4 v -2.9 h 26 v 2.9 h -11.4 v 32.1 z"
             id="path631" />
        </g>
      </g>
      <g
         transform="rotate(-60.911,680.37,1531.9)"
         id="g481">
        <g
           aria-label="I"
           id="text479"
           style="font-weight:300;font-size:50px;font-family:Figtree-Light_Medium, Figtree">
          <path
             d="m 685.37097,1531.95 v -35 h 3.2 v 35 z"
             id="path634" />
        </g>
      </g>
      <g
         transform="rotate(-58.954,686.58,1520.3)"
         id="g485">
        <g
           aria-label="O"
           id="text483"
           style="font-weight:300;font-size:50px;font-family:Figtree-Light_Medium, Figtree">
          <path
             d="m 706.03301,1520.9199 q -4.95,0 -8.8,-2.3 -3.8,-2.3 -6,-6.4 -2.15,-4.1 -2.15,-9.4 0,-5.35 2.15,-9.4 2.15,-4.1 5.9,-6.4 3.8,-2.3 8.75,-2.3 4.95,0 8.75,2.35 3.8,2.3 5.9,6.4 2.15,4.05 2.15,9.35 0,5.3 -2.15,9.4 -2.1,4.1 -5.85,6.4 -3.75,2.3 -8.65,2.3 z m 0,-2.9 q 3.95,0 6.95,-1.95 3.05,-1.95 4.75,-5.35 1.75,-3.45 1.75,-7.9 0,-4.45 -1.75,-7.85 -1.75,-3.45 -4.8,-5.4 -3.05,-1.95 -7.05,-1.95 -3.95,0 -7.05,1.95 -3.05,1.95 -4.8,5.4 -1.75,3.4 -1.75,7.85 0,4.45 1.75,7.9 1.75,3.4 4.85,5.35 3.15,1.95 7.15,1.95 z"
             id="path637" />
        </g>
      </g>
      <g
         transform="rotate(-56.034,706.5,1487.2)"
         id="g489">
        <g
           aria-label="N"
           id="text487"
           style="font-weight:300;font-size:50px;font-family:Figtree-Light_Medium, Figtree">
          <path
             d="m 711.50702,1487.21 v -35 h 3.2 l 22.3,29.85 v -29.85 h 3.2 v 35 h -3.2 l -22.3,-29.9 v 29.9 z"
             id="path640" />
        </g>
      </g>
      <g
         transform="rotate(-52.019,735.43,1444.9)"
         id="g493">
        <g
           aria-label="M"
           id="text491"
           style="font-weight:300;font-size:50px;font-family:Figtree-Light_Medium, Figtree">
          <path
             d="m 740.43201,1444.9399 v -35 h 3.2 l 12.85,19 12.8,-19 h 3.2 v 35 h -3.2 v -29.7 l -12.85,19.15 -12.8,-19.05 v 29.6 z"
             id="path643" />
        </g>
      </g>
      <g
         transform="rotate(-49.31,761.43,1411.9)"
         id="g497">
        <g
           aria-label="E"
           id="text495"
           style="font-weight:300;font-size:50px;font-family:Figtree-Light_Medium, Figtree">
          <path
             d="m 766.43597,1411.86 v -35 h 20.15 v 2.9 h -16.95 v 12.6 h 15.75 v 2.9 h -15.75 v 13.7 h 16.95 v 2.9 z"
             id="path646" />
        </g>
      </g>
      <g
         transform="rotate(-46.909,780.76,1389.3)"
         id="g501">
        <g
           aria-label="A"
           id="text499"
           style="font-weight:300;font-size:50px;font-family:Figtree-Light_Medium, Figtree">
          <path
             d="m 809.94902,1389.3199 -14.3,-35 h 3.3 l 14.4,35 z m -28.7,0 14.4,-35 h 3.3 l -14.3,35 z m 6.8,-10.85 v -2.9 h 18.5 v 2.9 z"
             id="path649" />
        </g>
      </g>
      <g
         transform="rotate(-44.557,803.35,1365.2)"
         id="g505">
        <g
           aria-label="S"
           id="text503"
           style="font-weight:300;font-size:50px;font-family:Figtree-Light_Medium, Figtree">
          <path
             d="m 819.30101,1365.7801 q -2.95,0 -5.2,-0.6 -2.2,-0.65 -3.8,-1.75 -1.6,-1.1 -2.65,-2.45 -1,-1.35 -1.55,-2.85 l 3,-1.15 q 0.85,2.35 3.35,4.15 2.5,1.75 6.1,1.75 4.6,0 7.15,-1.75 2.55,-1.8 2.55,-4.7 0,-2.8 -2.35,-4.45 -2.35,-1.7 -6.1,-2.65 l -3.55,-0.9 q -2.3,-0.6 -4.3,-1.7 -1.95,-1.15 -3.15,-2.9 -1.2,-1.75 -1.2,-4.3 0,-4.7 3,-7.3 3,-2.65 8.75,-2.65 3.45,0 5.95,1.2 2.5,1.15 4,2.9 1.55,1.7 2.05,3.45 l -2.95,1.15 q -1.1,-2.75 -3.6,-4.25 -2.45,-1.55 -5.95,-1.55 -3.7,0 -5.9,1.8 -2.15,1.8 -2.15,4.85 0,2.75 1.7,4.15 1.7,1.35 4.45,2.05 l 3.55,0.85 q 5.3,1.25 8.1,4 2.85,2.7 2.85,5.8 0,2.65 -1.35,4.9 -1.35,2.2 -4.05,3.55 -2.7,1.35 -6.75,1.35 z"
             id="path652" />
        </g>
      </g>
      <g
         transform="rotate(-42.056,825.26,1343.5)"
         id="g509">
        <g
           aria-label="U"
           id="text507"
           style="font-weight:300;font-size:50px;font-family:Figtree-Light_Medium, Figtree">
          <path
             d="m 842.86398,1344.34 q -3.8,0 -6.8,-1.65 -2.95,-1.7 -4.65,-4.65 -1.65,-2.95 -1.65,-6.75 v -22.75 h 3.2 v 22.75 q 0,2.95 1.25,5.25 1.3,2.3 3.55,3.6 2.3,1.3 5.2,1.3 2.95,0 5.2,-1.3 2.3,-1.3 3.55,-3.6 1.3,-2.3 1.3,-5.25 v -22.75 h 3.2 v 22.75 q 0,3.8 -1.7,6.75 -1.7,2.95 -4.75,4.65 -3,1.65 -6.9,1.65 z"
             id="path655" />
        </g>
      </g>
      <g
         transform="rotate(-39.43,851.62,1319.8)"
         id="g513">
        <g
           aria-label="R"
           id="text511"
           style="font-weight:300;font-size:50px;font-family:Figtree-Light_Medium, Figtree">
          <path
             d="m 856.62402,1319.78 v -35 h 10.75 q 3.3,0 5.85,1.35 2.55,1.3 3.95,3.65 1.45,2.3 1.45,5.35 0,3 -1.6,5.35 -1.55,2.35 -4.25,3.7 -2.7,1.3 -6.05,1.3 h -6.9 v 14.3 z m 19.9,0 -8.5,-14.5 2.65,-1.55 9.35,16.05 z m -16.7,-17.25 h 8.4 q 2,0 3.6,-0.95 1.65,-0.95 2.65,-2.6 1,-1.7 1,-3.85 0,-3.3 -2.3,-5.35 -2.25,-2.1 -5.8,-2.1 h -7.55 z"
             id="path658" />
        </g>
      </g>
      <g
         transform="rotate(-37.243,875.49,1300.1)"
         id="g517">
        <g
           aria-label="E"
           id="text515"
           style="font-weight:300;font-size:50px;font-family:Figtree-Light_Medium, Figtree">
          <path
             d="m 880.49402,1300.12 v -35 h 20.15 v 2.9 h -16.95 v 12.6 h 15.75 v 2.9 h -15.75 v 13.7 h 16.95 v 2.9 z"
             id="path661" />
        </g>
      </g>
      <g
         transform="rotate(-34.981,899.09,1282.2)"
         id="g521">
        <g
           aria-label="S"
           id="text519"
           style="font-weight:300;font-size:50px;font-family:Figtree-Light_Medium, Figtree">
          <path
             d="m 915.036,1282.77 q -2.95,0 -5.2,-0.6 -2.2,-0.65 -3.8,-1.75 -1.6,-1.1 -2.65,-2.45 -1,-1.35 -1.55,-2.85 l 3,-1.15 q 0.85,2.35 3.35,4.15 2.5,1.75 6.1,1.75 4.6,0 7.15,-1.75 2.55,-1.8 2.55,-4.7 0,-2.8 -2.35,-4.45 -2.35,-1.7 -6.1,-2.65 l -3.55,-0.9 q -2.3,-0.6 -4.3,-1.7 -1.95,-1.15 -3.15,-2.9 -1.2,-1.75 -1.2,-4.3 0,-4.7 3,-7.3 3,-2.65 8.75,-2.65 3.45,0 5.95,1.2 2.5,1.15 4,2.9 1.55,1.7 2.05,3.45 l -2.95,1.15 q -1.1,-2.75 -3.6,-4.25 -2.45,-1.55 -5.95,-1.55 -3.7,0 -5.9,1.8 -2.15,1.8 -2.15,4.85 0,2.75 1.7,4.15 1.7,1.35 4.45,2.05 l 3.55,0.85 q 5.3,1.25 8.1,4 2.85,2.7 2.85,5.8 0,2.65 -1.35,4.9 -1.35,2.2 -4.05,3.55 -2.7,1.35 -6.75,1.35 z"
             id="path664" />
        </g>
      </g>
    </g>
    <g
       id="g1230"
       style="display:inline">
      <g
         transform="matrix(0.29658,0,0,0.29658,972.46,1223.06)"
         id="g311">
        <circle
           cx="1025.7"
           cy="1584.9"
           r="649.40002"
           fill="#001c3d"
           onmouseover="this.style.opacity='0.9'"
           onmouseout="this.style.opacity='1'"
           onclick="window.location.href='/theme/corruption-measures/'"
           id="circle307" />
        <path
           d="m 1025.7,766.89 c -451.46,0 -817.99,366.53 -817.99,817.99 0,451.46 366.53,817.99 817.99,817.99 451.46,0 817.99,-366.53 817.99,-817.99 0,-451.46 -366.53,-817.99 -817.99,-817.99 z m 0,168.59 c 358.41,0 649.4,290.99 649.4,649.4 0,358.42 -290.99,649.4 -649.4,649.4 -358.42,0 -649.4,-290.98 -649.4,-649.4 0,-358.41 290.99,-649.4 649.4,-649.4 z"
           fill="#ffffff"
           id="path309" />
      </g>
      <g
         transform="translate(493.77,738.96)"
         fill="#ffffff"
         font-family="Figtree-Light_Medium, Figtree"
         font-size="50px"
         font-weight="300"
         onmouseover="this.style.opacity='0.9'"
         onmouseout="this.style.opacity='1'"
         onclick="window.location.href='/theme/corruption-measures/'"
         id="g627">
        <g
           aria-label="CORRUPTION"
           id="text623">
          <path
             d="m 640.79998,955.22097 q -4.95,0 -8.8,-2.3 -3.8,-2.35 -6,-6.4 -2.15,-4.1 -2.15,-9.4 0,-5.3 2.15,-9.35 2.15,-4.1 5.95,-6.4 3.8,-2.35 8.7,-2.35 2.95,0 5.75,1.1 2.85,1.05 5.15,3 2.3,1.9 3.55,4.4 l -2.65,1.65 q -1.05,-2.15 -2.95,-3.75 -1.85,-1.65 -4.15,-2.55 -2.3,-0.95 -4.7,-0.95 -3.95,0 -7.05,1.95 -3.05,1.95 -4.8,5.4 -1.75,3.4 -1.75,7.85 0,4.5 1.75,7.95 1.75,3.45 4.85,5.4 3.15,1.95 7.15,1.95 2.45,0 4.75,-1 2.3,-1.05 4.15,-2.85 1.9,-1.8 2.95,-4.1 l 2.65,1.65 q -1.3,2.65 -3.6,4.75 -2.25,2.05 -5.1,3.2 -2.85,1.15 -5.8,1.15 z"
             id="path1136" />
          <path
             d="m 676.74997,955.22097 q -4.95,0 -8.8,-2.3 -3.8,-2.3 -6,-6.4 -2.15,-4.1 -2.15,-9.4 0,-5.35 2.15,-9.4 2.15,-4.1 5.9,-6.4 3.8,-2.3 8.75,-2.3 4.95,0 8.75,2.35 3.8,2.3 5.9,6.4 2.15,4.05 2.15,9.35 0,5.3 -2.15,9.4 -2.1,4.1 -5.85,6.4 -3.75,2.3 -8.65,2.3 z m 0,-2.9 q 3.95,0 6.95,-1.95 3.05,-1.95 4.75,-5.35 1.75,-3.45 1.75,-7.9 0,-4.45 -1.75,-7.85 -1.75,-3.45 -4.8,-5.4 -3.05,-1.95 -7.05,-1.95 -3.95,0 -7.05,1.95 -3.05,1.95 -4.8,5.4 -1.75,3.4 -1.75,7.85 0,4.45 1.75,7.9 1.75,3.4 4.85,5.35 3.15,1.95 7.15,1.95 z"
             id="path1138" />
          <path
             d="m 700.89993,954.62097 v -35 h 10.75 q 3.3,0 5.85,1.35 2.55,1.3 3.95,3.65 1.45,2.3 1.45,5.35 0,3 -1.6,5.35 -1.55,2.35 -4.25,3.7 -2.7,1.3 -6.05,1.3 h -6.9 v 14.3 z m 19.9,0 -8.5,-14.5 2.65,-1.55 9.35,16.05 z m -16.7,-17.25 h 8.4 q 2,0 3.6,-0.95 1.65,-0.95 2.65,-2.6 1,-1.7 1,-3.85 0,-3.3 -2.3,-5.35 -2.25,-2.1 -5.8,-2.1 h -7.55 z"
             id="path1140" />
          <path
             d="m 731.79984,954.62097 v -35 h 10.75 q 3.3,0 5.85,1.35 2.55,1.3 3.95,3.65 1.45,2.3 1.45,5.35 0,3 -1.6,5.35 -1.55,2.35 -4.25,3.7 -2.7,1.3 -6.05,1.3 h -6.9 v 14.3 z m 19.9,0 -8.5,-14.5 2.65,-1.55 9.35,16.05 z m -16.7,-17.25 h 8.4 q 2,0 3.6,-0.95 1.65,-0.95 2.65,-2.6 1,-1.7 1,-3.85 0,-3.3 -2.3,-5.35 -2.25,-2.1 -5.8,-2.1 h -7.55 z"
             id="path1142" />
          <path
             d="m 775.29975,955.42097 q -3.8,0 -6.8,-1.65 -2.95,-1.7 -4.65,-4.65 -1.65,-2.95 -1.65,-6.75 v -22.75 h 3.2 v 22.75 q 0,2.95 1.25,5.25 1.3,2.3 3.55,3.6 2.3,1.3 5.2,1.3 2.95,0 5.2,-1.3 2.3,-1.3 3.55,-3.6 1.3,-2.3 1.3,-5.25 v -22.75 h 3.2 v 22.75 q 0,3.8 -1.7,6.75 -1.7,2.95 -4.75,4.65 -3,1.65 -6.9,1.65 z"
             id="path1144" />
          <path
             d="m 798.14973,954.62097 v -35 h 10.75 q 3.3,0 5.85,1.4 2.55,1.35 3.95,3.8 1.45,2.45 1.45,5.65 0,3.15 -1.3,5.6 -1.25,2.45 -3.5,3.85 -2.2,1.4 -5.1,1.4 h -8.9 v 13.3 z m 3.2,-16.25 h 8.9 q 2.95,0 4.85,-2.2 1.9,-2.2 1.9,-5.7 0,-3.55 -2.3,-5.75 -2.25,-2.2 -5.8,-2.2 h -7.55 z"
             id="path1146" />
          <path
             d="m 833.54972,954.62097 v -32.1 h -11.4 v -2.9 h 26 v 2.9 h -11.4 v 32.1 z"
             id="path1148" />
          <path
             d="m 853.64966,954.62097 v -35 h 3.2 v 35 z"
             id="path1150" />
          <path
             d="m 881.29967,955.22097 q -4.95,0 -8.8,-2.3 -3.8,-2.3 -6,-6.4 -2.15,-4.1 -2.15,-9.4 0,-5.35 2.15,-9.4 2.15,-4.1 5.9,-6.4 3.8,-2.3 8.75,-2.3 4.95,0 8.75,2.35 3.8,2.3 5.9,6.4 2.15,4.05 2.15,9.35 0,5.3 -2.15,9.4 -2.1,4.1 -5.85,6.4 -3.75,2.3 -8.65,2.3 z m 0,-2.9 q 3.95,0 6.95,-1.95 3.05,-1.95 4.75,-5.35 1.75,-3.45 1.75,-7.9 0,-4.45 -1.75,-7.85 -1.75,-3.45 -4.8,-5.4 -3.05,-1.95 -7.05,-1.95 -3.95,0 -7.05,1.95 -3.05,1.95 -4.8,5.4 -1.75,3.4 -1.75,7.85 0,4.45 1.75,7.9 1.75,3.4 4.85,5.35 3.15,1.95 7.15,1.95 z"
             id="path1152" />
          <path
             d="m 905.44965,954.62097 v -35 h 3.2 l 22.3,29.85 v -29.85 h 3.2 v 35 h -3.2 l -22.3,-29.9 v 29.9 z"
             id="path1154" />
        </g>
        <g
           aria-label="MEASURES"
           id="text625">
          <path
             d="m 654,1004.62 v -35 h 3.2 l 12.85,19 12.8,-19 h 3.2 v 35 h -3.2 v -29.7 L 670,994.07 657.2,975.02 v 29.6 z"
             id="path1157" />
          <path
             d="m 696.04998,1004.62 v -35 h 20.15 v 2.9 h -16.95 v 12.6 h 15.75 v 2.9 h -15.75 v 13.7 h 16.95 v 2.9 z"
             id="path1159" />
          <path
             d="m 749.89991,1004.62 -14.3,-35 h 3.3 l 14.4,35 z m -28.7,0 14.4,-35 h 3.3 l -14.3,35 z m 6.8,-10.85 v -2.9 h 18.5 v 2.9 z"
             id="path1161" />
          <path
             d="m 769.74984,1005.22 q -2.95,0 -5.2,-0.6 -2.2,-0.65 -3.8,-1.75 -1.6,-1.1 -2.65,-2.45 -1,-1.35 -1.55,-2.85 l 3,-1.15 q 0.85,2.35 3.35,4.15 2.5,1.75 6.1,1.75 4.6,0 7.15,-1.75 2.55,-1.8 2.55,-4.7 0,-2.8 -2.35,-4.45 -2.35,-1.7 -6.1,-2.65 l -3.55,-0.9 q -2.3,-0.6 -4.3,-1.7 -1.95,-1.15 -3.15,-2.9 -1.2,-1.75 -1.2,-4.3 0,-4.7 3,-7.3 3,-2.65 8.75,-2.65 3.45,0 5.95,1.2 2.5,1.15 4,2.9 1.55,1.7 2.05,3.45 l -2.95,1.15 q -1.1,-2.75 -3.6,-4.25 -2.45,-1.55 -5.95,-1.55 -3.7,0 -5.9,1.8 -2.15,1.8 -2.15,4.85 0,2.75 1.7,4.15 1.7,1.35 4.45,2.05 l 3.55,0.85 q 5.3,1.25 8.1,4 2.85,2.7 2.85,5.8 0,2.65 -1.35,4.9 -1.35,2.2 -4.05,3.55 -2.7,1.35 -6.75,1.35 z"
             id="path1163" />
          <path
             d="m 802.24978,1005.42 q -3.8,0 -6.8,-1.65 -2.95,-1.7 -4.65,-4.65 -1.65,-2.95 -1.65,-6.75 v -22.75 h 3.2 v 22.75 q 0,2.95 1.25,5.25 1.3,2.3 3.55,3.6 2.3,1.3 5.2,1.3 2.95,0 5.2,-1.3 2.3,-1.3 3.55,-3.6 1.3,-2.3 1.3,-5.25 v -22.75 h 3.2 v 22.75 q 0,3.8 -1.7,6.75 -1.7,2.95 -4.75,4.65 -3,1.65 -6.9,1.65 z"
             id="path1165" />
          <path
             d="m 825.09976,1004.62 v -35 h 10.75 q 3.3,0 5.85,1.35 2.55,1.3 3.95,3.65 1.45,2.3 1.45,5.35 0,3 -1.6,5.35 -1.55,2.35 -4.25,3.7 -2.7,1.3 -6.05,1.3 h -6.9 v 14.3 z m 19.9,0 -8.5,-14.5 2.65,-1.55 9.35,16.05 z m -16.7,-17.25 h 8.4 q 2,0 3.6,-0.95 1.65,-0.95 2.65,-2.6 1,-1.7 1,-3.85 0,-3.3 -2.3,-5.35 -2.25,-2.1 -5.8,-2.1 h -7.55 z"
             id="path1167" />
          <path
             d="m 855.99966,1004.62 v -35 h 20.15 v 2.9 h -16.95 v 12.6 h 15.75 v 2.9 h -15.75 v 13.7 h 16.95 v 2.9 z"
             id="path1169" />
          <path
             d="m 896.5996,1005.22 q -2.95,0 -5.2,-0.6 -2.2,-0.65 -3.8,-1.75 -1.6,-1.1 -2.65,-2.45 -1,-1.35 -1.55,-2.85 l 3,-1.15 q 0.85,2.35 3.35,4.15 2.5,1.75 6.1,1.75 4.6,0 7.15,-1.75 2.55,-1.8 2.55,-4.7 0,-2.8 -2.35,-4.45 -2.35,-1.7 -6.1,-2.65 l -3.55,-0.9 q -2.3,-0.6 -4.3,-1.7 -1.95,-1.15 -3.15,-2.9 -1.2,-1.75 -1.2,-4.3 0,-4.7 3,-7.3 3,-2.65 8.75,-2.65 3.45,0 5.95,1.2 2.5,1.15 4,2.9 1.55,1.7 2.05,3.45 l -2.95,1.15 q -1.1,-2.75 -3.6,-4.25 -2.45,-1.55 -5.95,-1.55 -3.7,0 -5.9,1.8 -2.15,1.8 -2.15,4.85 0,2.75 1.7,4.15 1.7,1.35 4.45,2.05 l 3.55,0.85 q 5.3,1.25 8.1,4 2.85,2.7 2.85,5.8 0,2.65 -1.35,4.9 -1.35,2.2 -4.05,3.55 -2.7,1.35 -6.75,1.35 z"
             id="path1171" />
        </g>
      </g>
    </g>
    <g
       transform="rotate(67.994842,515.97725,1931.8711)"
       id="g417">
      <g
         transform="rotate(-138.61,456.44,1297.1)"
         id="g315">
        <g
           aria-label="D"
           id="text313"
           style="font-weight:300;font-size:43.75px;font-family:Figtree-Light_Medium, Figtree">
          <path
             d="m 460.81699,1297.13 v -30.625 h 9.14375 q 4.15625,0 7.35,1.9688 3.19375,1.925 4.9875,5.3812 1.8375,3.4563 1.8375,7.9625 0,4.4625 -1.8375,7.9188 -1.79375,3.4562 -4.9875,5.425 -3.19375,1.9687 -7.35,1.9687 z m 2.8,-2.5375 h 6.34375 q 2.3625,0 4.41875,-0.9625 2.05625,-1.0062 3.63125,-2.7562 1.575,-1.7938 2.45,-4.1125 0.875,-2.3188 0.875,-4.9438 0,-2.625 -0.875,-4.9437 -0.875,-2.3188 -2.45,-4.0688 -1.575,-1.7937 -3.63125,-2.7562 -2.05625,-1.0063 -4.41875,-1.0063 h -6.34375 z"
             id="path1174" />
        </g>
      </g>
      <g
         transform="rotate(-133.21,434.29,1277.1)"
         id="g319">
        <g
           aria-label="i"
           id="text317"
           style="font-weight:300;font-size:43.75px;font-family:Figtree-Light_Medium, Figtree">
          <path
             d="m 437.74324,1277.0601 v -21.875 h 2.625 v 21.875 z m 1.35625,-27.5625 q -0.7,0 -1.225,-0.525 -0.525,-0.525 -0.525,-1.225 0,-0.7438 0.525,-1.225 0.525,-0.525 1.225,-0.525 0.74375,0 1.225,0.525 0.525,0.4812 0.525,1.225 0,0.7 -0.525,1.225 -0.48125,0.525 -1.225,0.525 z"
             id="path1177" />
        </g>
      </g>
      <g
         transform="rotate(-129.47,427.62,1270.2)"
         id="g323">
        <g
           aria-label="r"
           id="text321"
           style="font-weight:300;font-size:43.75px;font-family:Figtree-Light_Medium, Figtree">
          <path
             d="m 431.995,1258.1926 q 0,-3.5438 1.3125,-5.7313 1.35625,-2.1875 3.45625,-3.1937 2.14375,-1.05 4.50625,-1.05 v 2.4062 q -1.925,0 -3.71875,0.7 -1.75,0.6563 -2.8875,2.275 -1.1375,1.575 -1.1375,4.3313 z m -1.09375,11.9875 v -21.875 h 2.625 v 21.875 z"
             id="path1180" />
        </g>
      </g>
      <g
         transform="rotate(-124.5,418.4,1259.5)"
         id="g327">
        <g
           aria-label="e"
           id="text325"
           style="font-weight:300;font-size:43.75px;font-family:Figtree-Light_Medium, Figtree">
          <path
             d="m 431.13524,1259.985 q -3.15,0 -5.6,-1.4438 -2.40625,-1.4875 -3.80625,-4.0687 -1.35625,-2.5813 -1.35625,-5.95 0,-3.3688 1.35625,-5.95 1.35625,-2.5813 3.71875,-4.025 2.40625,-1.4875 5.46875,-1.4875 3.10625,0 5.25,1.5312 2.1875,1.4875 3.325,4.1563 1.1375,2.625 1.1375,6.0812 h -18.68125 l 1.00625,-0.8312 q 0,3.0187 1.00625,5.1625 1.00625,2.1437 2.84375,3.2812 1.88125,1.1375 4.33125,1.1375 2.5375,0 4.2875,-1.225 1.79375,-1.2687 2.8,-3.2375 l 2.1875,1.3563 q -0.83125,1.6187 -2.1875,2.8875 -1.3125,1.225 -3.10625,1.925 -1.79375,0.7 -3.98125,0.7 z m -7.9625,-12.775 -1.09375,-0.7875 h 16.84375 l -1.09375,0.8312 q 0,-2.3187 -0.875,-4.0687 -0.83125,-1.75 -2.3625,-2.7125 -1.53125,-1.0063 -3.675,-1.0063 -2.1,0 -3.89375,1.0063 -1.75,0.9625 -2.8,2.7125 -1.05,1.7062 -1.05,4.025 z"
             id="path1183" />
        </g>
      </g>
      <g
         transform="rotate(-117.77,404.92,1239.9)"
         id="g331">
        <g
           aria-label="c"
           id="text329"
           style="font-weight:300;font-size:43.75px;font-family:Figtree-Light_Medium, Figtree">
          <path
             d="m 417.65224,1240.425 q -3.15,0 -5.6,-1.4437 -2.40625,-1.4875 -3.80625,-4.0688 -1.35625,-2.5812 -1.35625,-5.95 0,-3.3687 1.35625,-5.95 1.35625,-2.5812 3.7625,-4.025 2.45,-1.4875 5.55625,-1.4875 3.10625,0 5.5125,1.4 2.40625,1.3563 3.71875,3.8063 l -2.275,1.225 q -1.00625,-1.8813 -2.84375,-2.9313 -1.79375,-1.0937 -4.1125,-1.0937 -2.3625,0 -4.2,1.1812 -1.79375,1.1375 -2.84375,3.1938 -1.00625,2.0125 -1.00625,4.6812 0,2.6688 1.05,4.725 1.05,2.0125 2.8875,3.1938 1.8375,1.1375 4.2,1.1375 2.3625,0 4.2,-1.1813 1.8375,-1.225 2.8,-3.3687 l 2.31875,1.225 q -1.3125,2.6687 -3.7625,4.2 -2.40625,1.5312 -5.55625,1.5312 z"
             id="path1186" />
        </g>
      </g>
      <g
         transform="matrix(-0.37634,-0.92648,0.92648,-0.37634,-586.94,2042.7)"
         id="g335">
        <g
           aria-label="t"
           id="text333"
           style="font-weight:300;font-size:43.75px;font-family:Figtree-Light_Medium, Figtree">
          <path
             d="m 405.256,1219.435 q -3.01875,0 -4.725,-1.575 -1.70625,-1.6187 -1.70625,-4.55 v -23.1 h 2.625 v 23.1 q 0,1.75 1.00625,2.7563 1.00625,0.9625 2.8,0.9625 0.525,0 1.00625,-0.1313 0.525,-0.175 1.4875,-0.8312 l 1.09375,2.275 q -1.18125,0.7 -1.96875,0.875 -0.7875,0.2187 -1.61875,0.2187 z m -10.325,-19.9937 v -2.4063 h 13.475 v 2.4063 z"
             id="path1189" />
        </g>
      </g>
      <g
         transform="rotate(-103.19,384.37,1193.6)"
         id="g339">
        <g
           aria-label="c"
           id="text337"
           style="font-weight:300;font-size:43.75px;font-family:Figtree-Light_Medium, Figtree">
          <path
             d="m 397.09526,1194.155 q -3.15,0 -5.6,-1.4437 -2.40625,-1.4875 -3.80625,-4.0688 -1.35625,-2.5812 -1.35625,-5.95 0,-3.3687 1.35625,-5.95 1.35625,-2.5812 3.7625,-4.025 2.45,-1.4875 5.55625,-1.4875 3.10625,0 5.5125,1.4 2.40625,1.3563 3.71875,3.8063 l -2.275,1.225 q -1.00625,-1.8813 -2.84375,-2.9313 -1.79375,-1.0937 -4.1125,-1.0937 -2.3625,0 -4.2,1.1812 -1.79375,1.1375 -2.84375,3.1938 -1.00625,2.0125 -1.00625,4.6812 0,2.6688 1.05,4.725 1.05,2.0125 2.8875,3.1938 1.8375,1.1375 4.2,1.1375 2.3625,0 4.2,-1.1813 1.8375,-1.225 2.8,-3.3687 l 2.31875,1.225 q -1.3125,2.6687 -3.7625,4.2 -2.40625,1.5312 -5.55625,1.5312 z"
             id="path1192" />
        </g>
      </g>
      <g
         transform="rotate(-96.26,378.91,1170.7)"
         id="g343">
        <g
           aria-label="o"
           id="text341"
           style="font-weight:300;font-size:43.75px;font-family:Figtree-Light_Medium, Figtree">
          <path
             d="m 391.64626,1171.2149 q -3.15,0 -5.6,-1.4437 -2.40625,-1.4875 -3.80625,-4.0688 -1.35625,-2.5812 -1.35625,-5.95 0,-3.3687 1.35625,-5.95 1.35625,-2.5812 3.7625,-4.025 2.45,-1.4875 5.55625,-1.4875 3.15,0 5.55625,1.4875 2.45,1.4438 3.80625,4.025 1.35625,2.5813 1.35625,5.95 0,3.3688 -1.35625,5.95 -1.35625,2.5813 -3.7625,4.0688 -2.40625,1.4437 -5.5125,1.4437 z m 0,-2.4062 q 2.3625,0 4.15625,-1.1375 1.79375,-1.1813 2.8,-3.1938 1.05,-2.0562 1.05,-4.725 0,-2.6687 -1.05,-4.6812 -1.00625,-2.0563 -2.84375,-3.1938 -1.8375,-1.1812 -4.2,-1.1812 -2.3625,0 -4.2,1.1812 -1.79375,1.1375 -2.84375,3.1938 -1.00625,2.0125 -1.00625,4.6812 0,2.6688 1.05,4.725 1.05,2.0125 2.8875,3.1938 1.8375,1.1375 4.2,1.1375 z"
             id="path1195" />
        </g>
      </g>
      <g
         transform="rotate(-90.18,376.35,1145.5)"
         id="g347">
        <g
           aria-label="r"
           id="text345"
           style="font-weight:300;font-size:43.75px;font-family:Figtree-Light_Medium, Figtree">
          <path
             d="m 380.73199,1133.5125 q 0,-3.5437 1.3125,-5.7312 1.35625,-2.1875 3.45625,-3.1938 2.14375,-1.05 4.50625,-1.05 v 2.4063 q -1.925,0 -3.71875,0.7 -1.75,0.6562 -2.8875,2.275 -1.1375,1.575 -1.1375,4.3312 z m -1.09375,11.9875 v -21.875 h 2.625 v 21.875 z"
             id="path1198" />
        </g>
      </g>
      <g
         transform="rotate(-86.21,376.19,1131.4)"
         id="g351">
        <g
           aria-label="r"
           id="text349"
           style="font-weight:300;font-size:43.75px;font-family:Figtree-Light_Medium, Figtree">
          <path
             d="m 380.56201,1119.4125 q 0,-3.5437 1.3125,-5.7312 1.35625,-2.1875 3.45625,-3.1938 2.14375,-1.05 4.50625,-1.05 v 2.4063 q -1.925,0 -3.71875,0.7 -1.75,0.6562 -2.8875,2.275 -1.1375,1.575 -1.1375,4.3312 z m -1.09375,11.9875 v -21.875 h 2.625 v 21.875 z"
             id="path1201" />
        </g>
      </g>
      <g
         transform="rotate(-81.28,376.83,1117.3)"
         id="g355">
        <g
           aria-label="u"
           id="text353"
           style="font-weight:300;font-size:43.75px;font-family:Figtree-Light_Medium, Figtree">
          <path
             d="m 395.33926,1117.27 -0.175,-4.025 v -17.85 h 2.625 v 21.875 z m -15.88125,-10.675 v -11.2 h 2.625 v 11.2 z m 2.625,0 q 0,3.6313 0.83125,5.5125 0.875,1.8813 2.3625,2.5813 1.4875,0.6562 3.28125,0.6562 3.10625,0 4.85625,-2.275 1.75,-2.3187 1.75,-6.4312 h 1.61875 q 0,3.5 -1.00625,5.9937 -1.00625,2.4938 -2.93125,3.85 -1.925,1.3125 -4.76875,1.3125 -2.49375,0 -4.4625,-1.0062 -1.96875,-1.05 -3.0625,-3.2813 -1.09375,-2.275 -1.09375,-5.9062 v -1.0063 z"
             id="path1204" />
        </g>
      </g>
      <g
         transform="rotate(-73.819,380.42,1093.3)"
         id="g359">
        <g
           aria-label="p"
           id="text357"
           style="font-weight:300;font-size:43.75px;font-family:Figtree-Light_Medium, Figtree">
          <path
             d="m 383.91599,1102.02 v -30.625 h 2.45 l 0.175,4.025 v 26.6 z m 10.325,-8.225 q -2.75625,0 -4.9,-1.4437 -2.14375,-1.4875 -3.36875,-4.0688 -1.18125,-2.625 -1.18125,-5.95 0,-3.3687 1.18125,-5.95 1.225,-2.5812 3.36875,-4.025 2.14375,-1.4875 4.9,-1.4875 2.8875,0 5.11875,1.4875 2.23125,1.4438 3.5,4.025 1.26875,2.5813 1.26875,5.95 0,3.325 -1.26875,5.95 -1.26875,2.5813 -3.5,4.0688 -2.23125,1.4437 -5.11875,1.4437 z m -0.525,-2.3625 q 2.275,0 4.025,-1.1375 1.75,-1.1812 2.75625,-3.2375 1.00625,-2.0562 1.00625,-4.725 0,-2.6687 -1.00625,-4.725 -0.9625,-2.0562 -2.7125,-3.1937 -1.75,-1.1813 -4.025,-1.1813 -2.1,0 -3.7625,1.1813 -1.61875,1.1375 -2.5375,3.1937 -0.91875,2.0563 -0.91875,4.725 0,2.6688 0.91875,4.725 0.91875,2.0563 2.5375,3.2375 1.61875,1.1375 3.71875,1.1375 z"
             id="path1207" />
        </g>
      </g>
      <g
         transform="rotate(-68.025,387.76,1068.7)"
         id="g363">
        <g
           aria-label="t"
           id="text361"
           style="font-weight:300;font-size:43.75px;font-family:Figtree-Light_Medium, Figtree">
          <path
             d="m 398.96099,1069.175 q -3.01875,0 -4.725,-1.575 -1.70625,-1.6187 -1.70625,-4.55 v -23.1 h 2.625 v 23.1 q 0,1.75 1.00625,2.7563 1.00625,0.9625 2.8,0.9625 0.525,0 1.00625,-0.1313 0.525,-0.175 1.4875,-0.8312 l 1.09375,2.275 q -1.18125,0.7 -1.96875,0.875 -0.7875,0.2187 -1.61875,0.2187 z m -10.325,-19.9937 v -2.4063 h 13.475 v 2.4063 z"
             id="path1210" />
        </g>
      </g>
      <g
         transform="rotate(-64.237,393.87,1053.8)"
         id="g367">
        <g
           aria-label="i"
           id="text365"
           style="font-weight:300;font-size:43.75px;font-family:Figtree-Light_Medium, Figtree">
          <path
             d="m 397.32225,1053.76 v -21.875 h 2.625 v 21.875 z m 1.35625,-27.5625 q -0.7,0 -1.225,-0.525 -0.525,-0.525 -0.525,-1.225 0,-0.7437 0.525,-1.225 0.525,-0.525 1.225,-0.525 0.74375,0 1.225,0.525 0.525,0.4813 0.525,1.225 0,0.7 -0.525,1.225 -0.48125,0.525 -1.225,0.525 z"
             id="path1213" />
        </g>
      </g>
      <g
         transform="rotate(-59.353,397.74,1044.9)"
         id="g371">
        <g
           aria-label="o"
           id="text369"
           style="font-weight:300;font-size:43.75px;font-family:Figtree-Light_Medium, Figtree">
          <path
             d="m 410.47124,1045.445 q -3.15,0 -5.6,-1.4437 -2.40625,-1.4875 -3.80625,-4.0688 -1.35625,-2.5812 -1.35625,-5.95 0,-3.3687 1.35625,-5.95 1.35625,-2.5812 3.7625,-4.025 2.45,-1.4875 5.55625,-1.4875 3.15,0 5.55625,1.4875 2.45,1.4438 3.80625,4.025 1.35625,2.5813 1.35625,5.95 0,3.3688 -1.35625,5.95 -1.35625,2.5813 -3.7625,4.0688 -2.40625,1.4437 -5.5125,1.4437 z m 0,-2.4062 q 2.3625,0 4.15625,-1.1375 1.79375,-1.1813 2.8,-3.1938 1.05,-2.0562 1.05,-4.725 0,-2.6687 -1.05,-4.6812 -1.00625,-2.0563 -2.84375,-3.1938 -1.8375,-1.1812 -4.2,-1.1812 -2.3625,0 -4.2,1.1812 -1.79375,1.1375 -2.84375,3.1938 -1.00625,2.0125 -1.00625,4.6812 0,2.6688 1.05,4.725 1.05,2.0125 2.8875,3.1938 1.8375,1.1375 4.2,1.1375 z"
             id="path1216" />
        </g>
      </g>
      <g
         transform="rotate(-52.174,410.69,1023.1)"
         id="g375">
        <g
           aria-label="n"
           id="text373"
           style="font-weight:300;font-size:43.75px;font-family:Figtree-Light_Medium, Figtree">
          <path
             d="m 413.97324,1023.09 v -21.875 h 2.45 l 0.175,4.025 v 17.85 z m 15.70625,0 v -11.2 h 2.625 v 11.2 z m 0,-11.2 q 0,-3.6312 -0.875,-5.5125 -0.83125,-1.8812 -2.31875,-2.5375 -1.44375,-0.7 -3.28125,-0.7 -3.10625,0 -4.85625,2.3188 -1.75,2.275 -1.75,6.3875 h -1.61875 q 0,-3.5 1.00625,-5.9938 1.00625,-2.4937 2.93125,-3.8062 1.96875,-1.3563 4.76875,-1.3563 2.5375,0 4.4625,1.05 1.96875,1.0063 3.0625,3.2375 1.1375,2.2313 1.09375,5.9063 v 1.0062 z"
             id="path1219" />
        </g>
      </g>
      <g
         transform="rotate(-44.254,433.2,996.06)"
         id="g379">
        <g
           aria-label="i"
           id="text377"
           style="font-weight:300;font-size:43.75px;font-family:Figtree-Light_Medium, Figtree">
          <path
             d="m 436.65724,996.05603 v -21.875 h 2.625 v 21.875 z m 1.35625,-27.5625 q -0.7,0 -1.225,-0.525 -0.525,-0.525 -0.525,-1.225 0,-0.74375 0.525,-1.225 0.525,-0.525 1.225,-0.525 0.74375,0 1.225,0.525 0.525,0.48125 0.525,1.225 0,0.7 -0.525,1.225 -0.48125,0.525 -1.225,0.525 z"
             id="path1222" />
        </g>
      </g>
      <g
         transform="rotate(-39.451,439.88,989.07)"
         id="g383">
        <g
           aria-label="n"
           id="text381"
           style="font-weight:300;font-size:43.75px;font-family:Figtree-Light_Medium, Figtree">
          <path
             d="m 443.16626,989.06897 v -21.875 h 2.45 l 0.175,4.025 v 17.85 z m 15.70625,0 v -11.2 h 2.625 v 11.2 z m 0,-11.2 q 0,-3.63125 -0.875,-5.5125 -0.83125,-1.88125 -2.31875,-2.5375 -1.44375,-0.7 -3.28125,-0.7 -3.10625,0 -4.85625,2.31875 -1.75,2.275 -1.75,6.3875 h -1.61875 q 0,-3.5 1.00625,-5.99375 1.00625,-2.49375 2.93125,-3.80625 1.96875,-1.35625 4.76875,-1.35625 2.5375,0 4.4625,1.05 1.96875,1.00625 3.0625,3.2375 1.1375,2.23125 1.09375,5.90625 v 1.00625 z"
             id="path1225" />
        </g>
      </g>
      <g
         transform="rotate(-32.653,458.56,973.66)"
         id="g387">
        <g
           aria-label="d"
           id="text385"
           style="font-weight:300;font-size:43.75px;font-family:Figtree-Light_Medium, Figtree">
          <path
             d="m 478.2475,973.65601 -0.13125,-4.06875 v -26.55625 h 2.625 v 30.625 z m -7.83125,0.525 q -2.8875,0 -5.11875,-1.44375 -2.23125,-1.4875 -3.5,-4.06875 -1.26875,-2.625 -1.26875,-5.95 0,-3.36875 1.26875,-5.95 1.26875,-2.58125 3.5,-4.025 2.23125,-1.4875 5.11875,-1.4875 2.8,0 4.9,1.4875 2.14375,1.44375 3.325,4.025 1.225,2.58125 1.225,5.95 0,3.325 -1.225,5.95 -1.18125,2.58125 -3.325,4.06875 -2.1,1.44375 -4.9,1.44375 z m 0.525,-2.3625 q 2.1,0 3.71875,-1.1375 1.61875,-1.18125 2.5375,-3.2375 0.91875,-2.05625 0.91875,-4.725 0,-2.66875 -0.91875,-4.725 -0.91875,-2.05625 -2.5375,-3.19375 -1.61875,-1.18125 -3.7625,-1.18125 -2.275,0 -4.025,1.18125 -1.75,1.1375 -2.75625,3.19375 -0.9625,2.05625 -0.9625,4.725 0,2.66875 1.00625,4.725 1.00625,2.05625 2.75625,3.2375 1.75,1.1375 4.025,1.1375 z"
             id="path1228" />
        </g>
      </g>
      <g
         transform="rotate(-27.374,480.19,960.23)"
         id="g391">
        <g
           aria-label="i"
           id="text389"
           style="font-weight:300;font-size:43.75px;font-family:Figtree-Light_Medium, Figtree">
          <path
             d="m 483.64924,960.22803 v -21.875 h 2.625 v 21.875 z m 1.35625,-27.5625 q -0.7,0 -1.225,-0.525 -0.525,-0.525 -0.525,-1.225 0,-0.74375 0.525,-1.225 0.525,-0.525 1.225,-0.525 0.74375,0 1.225,0.525 0.525,0.48125 0.525,1.225 0,0.7 -0.525,1.225 -0.48125,0.525 -1.225,0.525 z"
             id="path1231" />
        </g>
      </g>
      <g
         transform="rotate(-22.634,488.67,955.49)"
         id="g395">
        <g
           aria-label="c"
           id="text393"
           style="font-weight:300;font-size:43.75px;font-family:Figtree-Light_Medium, Figtree">
          <path
             d="m 501.40026,956.00901 q -3.15,0 -5.6,-1.44375 -2.40625,-1.4875 -3.80625,-4.06875 -1.35625,-2.58125 -1.35625,-5.95 0,-3.36875 1.35625,-5.95 1.35625,-2.58125 3.7625,-4.025 2.45,-1.4875 5.55625,-1.4875 3.10625,0 5.5125,1.4 2.40625,1.35625 3.71875,3.80625 l -2.275,1.225 q -1.00625,-1.88125 -2.84375,-2.93125 -1.79375,-1.09375 -4.1125,-1.09375 -2.3625,0 -4.2,1.18125 -1.79375,1.1375 -2.84375,3.19375 -1.00625,2.0125 -1.00625,4.68125 0,2.66875 1.05,4.725 1.05,2.0125 2.8875,3.19375 1.8375,1.1375 4.2,1.1375 2.3625,0 4.2,-1.18125 1.8375,-1.225 2.8,-3.36875 l 2.31875,1.225 q -1.3125,2.66875 -3.7625,4.2 -2.40625,1.53125 -5.55625,1.53125 z"
             id="path1234" />
        </g>
      </g>
      <g
         transform="rotate(-16.181,510.44,946.44)"
         id="g399">
        <g
           aria-label="a"
           id="text397"
           style="font-weight:300;font-size:43.75px;font-family:Figtree-Light_Medium, Figtree">
          <path
             d="m 527.33049,946.43903 -0.21875,-3.28125 v -8.44375 q 0,-2.8 -0.65625,-4.59375 -0.6125,-1.8375 -1.96875,-2.75625 -1.3125,-0.91875 -3.45625,-0.91875 -1.96875,0 -3.325,0.7875 -1.3125,0.7875 -2.1875,2.45 l -2.3625,-1.05 q 0.91875,-1.575 2.05625,-2.58125 1.18125,-1.00625 2.625,-1.4875 1.44375,-0.525 3.19375,-0.525 2.93125,0 4.85625,1.18125 1.925,1.18125 2.8875,3.54375 0.9625,2.3625 0.9625,5.95 v 11.725 z m -6.7375,0.525 q -3.85,0 -6.0375,-1.75 -2.14375,-1.79375 -2.14375,-4.94375 0,-3.2375 2.14375,-5.03125 2.1875,-1.79375 6.0375,-1.79375 h 6.5625 v 2.40625 h -6.2125 q -3.15,0 -4.55,1.18125 -1.35625,1.1375 -1.35625,3.2375 0,2.0125 1.4,3.15 1.44375,1.1375 3.98125,1.1375 2.1,0 3.5875,-0.83125 1.53125,-0.875 2.31875,-2.5375 0.7875,-1.6625 0.7875,-4.1125 h 1.53125 q 0,4.4625 -2.14375,7.175 -2.1,2.7125 -5.90625,2.7125 z"
             id="path1237" />
        </g>
      </g>
      <g
         transform="rotate(-10.679,531.51,940.46)"
         id="g403">
        <g
           aria-label="t"
           id="text401"
           style="font-weight:300;font-size:43.75px;font-family:Figtree-Light_Medium, Figtree">
          <path
             d="m 542.713,940.991 q -3.01875,0 -4.725,-1.575 -1.70625,-1.61875 -1.70625,-4.55 v -23.1 h 2.625 v 23.1 q 0,1.75 1.00625,2.75625 1.00625,0.9625 2.8,0.9625 0.525,0 1.00625,-0.13125 0.525,-0.175 1.4875,-0.83125 l 1.09375,2.275 q -1.18125,0.7 -1.96875,0.875 -0.7875,0.21875 -1.61875,0.21875 z M 532.388,920.99725 V 918.591 h 13.475 v 2.40625 z"
             id="path1240" />
        </g>
      </g>
      <g
         transform="rotate(-4.7648,547.36,937.23)"
         id="g407">
        <g
           aria-label="o"
           id="text405"
           style="font-weight:300;font-size:43.75px;font-family:Figtree-Light_Medium, Figtree">
          <path
             d="m 560.08922,937.75901 q -3.15,0 -5.6,-1.44375 -2.40625,-1.4875 -3.80625,-4.06875 -1.35625,-2.58125 -1.35625,-5.95 0,-3.36875 1.35625,-5.95 1.35625,-2.58125 3.7625,-4.025 2.45,-1.4875 5.55625,-1.4875 3.15,0 5.55625,1.4875 2.45,1.44375 3.80625,4.025 1.35625,2.58125 1.35625,5.95 0,3.36875 -1.35625,5.95 -1.35625,2.58125 -3.7625,4.06875 -2.40625,1.44375 -5.5125,1.44375 z m 0,-2.40625 q 2.3625,0 4.15625,-1.1375 1.79375,-1.18125 2.8,-3.19375 1.05,-2.05625 1.05,-4.725 0,-2.66875 -1.05,-4.68125 -1.00625,-2.05625 -2.84375,-3.19375 -1.8375,-1.18125 -4.2,-1.18125 -2.3625,0 -4.2,1.18125 -1.79375,1.1375 -2.84375,3.19375 -1.00625,2.0125 -1.00625,4.68125 0,2.66875 1.05,4.725 1.05,2.0125 2.8875,3.19375 1.8375,1.1375 4.2,1.1375 z"
             id="path1243" />
        </g>
      </g>
      <g
         transform="rotate(1.2945,572.61,935.34)"
         id="g411">
        <g
           aria-label="r"
           id="text409"
           style="font-weight:300;font-size:43.75px;font-family:Figtree-Light_Medium, Figtree">
          <path
             d="m 576.99799,923.34551 q 0,-3.54375 1.3125,-5.73125 1.35625,-2.1875 3.45625,-3.19375 2.14375,-1.05 4.50625,-1.05 v 2.40625 q -1.925,0 -3.71875,0.7 -1.75,0.65625 -2.8875,2.275 -1.1375,1.575 -1.1375,4.33125 z m -1.09375,11.9875 v -21.875 h 2.625 v 21.875 z"
             id="path1246" />
        </g>
      </g>
      <g
         transform="rotate(5.6931,586.7,935.46)"
         id="g415">
        <g
           aria-label="s"
           id="text413"
           style="font-weight:300;font-size:43.75px;font-family:Figtree-Light_Medium, Figtree">
          <path
             d="m 597.42078,935.98002 q -2.49375,0 -4.2875,-0.74375 -1.79375,-0.74375 -2.93125,-1.925 -1.09375,-1.18125 -1.53125,-2.45 l 2.3625,-0.875 q 0.74375,1.61875 2.3625,2.625 1.6625,0.9625 3.54375,0.9625 2.31875,0 3.9375,-0.9625 1.61875,-0.9625 1.61875,-2.7125 0,-1.575 -1.18125,-2.58125 -1.18125,-1.00625 -3.5,-1.61875 l -2.14375,-0.56875 q -2.93125,-0.7875 -4.55,-2.275 -1.575,-1.53125 -1.575,-3.4125 0,-3.01875 1.96875,-4.68125 2.0125,-1.70625 6.0375,-1.70625 1.88125,0 3.36875,0.56875 1.53125,0.525 2.58125,1.53125 1.09375,1.00625 1.61875,2.40625 l -2.3625,1.00625 q -0.7,-1.70625 -2.05625,-2.40625 -1.35625,-0.7 -3.54375,-0.7 -2.31875,0 -3.675,1.00625 -1.3125,0.9625 -1.3125,2.75625 0,0.9625 1.05,1.925 1.09375,0.91875 3.2375,1.4875 l 1.88125,0.48125 q 2.14375,0.525 3.63125,1.53125 1.53125,0.9625 2.31875,2.23125 0.83125,1.26875 0.83125,2.8 0,1.96875 -1.00625,3.4125 -1.00625,1.4 -2.75625,2.14375 -1.70625,0.74375 -3.9375,0.74375 z"
             id="path1249" />
        </g>
      </g>
    </g>
    <g
       transform="rotate(71.743,1361.02,1760.2568)"
       id="g621"
       style="display:inline">
      <g
         transform="rotate(-95.21,593.39,1898.2)"
         id="g527">
        <g
           aria-label="P"
           id="text525"
           style="font-weight:300;font-size:50px;font-family:Figtree-Light_Medium, Figtree">
          <path
             d="m 598.38501,1898.17 v -35 h 10.75 q 3.3,0 5.85,1.4 2.55,1.35 3.95,3.8 1.45,2.45 1.45,5.65 0,3.15 -1.3,5.6 -1.25,2.45 -3.5,3.85 -2.2,1.4 -5.1,1.4 h -8.9 v 13.3 z m 3.2,-16.25 h 8.9 q 2.95,0 4.85,-2.2 1.9,-2.2 1.9,-5.7 0,-3.55 -2.3,-5.75 -2.25,-2.2 -5.8,-2.2 h -7.55 z"
             id="path517" />
        </g>
      </g>
      <g
         transform="rotate(-93.06,590.78,1870)"
         id="g531">
        <g
           aria-label="u"
           id="text529"
           style="font-weight:300;font-size:50px;font-family:Figtree-Light_Medium, Figtree">
          <path
             d="m 611.934,1870.01 -0.2,-4.6 v -20.4 h 3 v 25 z m -18.15,-12.2 v -12.8 h 3 v 12.8 z m 3,0 q 0,4.15 0.95,6.3 1,2.15 2.7,2.95 1.7,0.75 3.75,0.75 3.55,0 5.55,-2.6 2,-2.65 2,-7.35 h 1.85 q 0,4 -1.15,6.85 -1.15,2.85 -3.35,4.4 -2.2,1.5 -5.45,1.5 -2.85,0 -5.1,-1.15 -2.25,-1.2 -3.5,-3.75 -1.25,-2.6 -1.25,-6.75 v -1.15 z"
             id="path520" />
        </g>
      </g>
      <g
         transform="rotate(-90.62,589.27,1842.3)"
         id="g535">
        <g
           aria-label="b"
           id="text533"
           style="font-weight:300;font-size:50px;font-family:Figtree-Light_Medium, Figtree">
          <path
             d="m 593.02301,1842.34 v -35 h 3 v 30.35 l -0.15,4.65 z m 11.8,0.6 q -3.15,0 -5.6,-1.65 -2.45,-1.7 -3.85,-4.65 -1.35,-3 -1.35,-6.8 0,-3.85 1.35,-6.8 1.4,-2.95 3.85,-4.6 2.45,-1.7 5.6,-1.7 3.3,0 5.85,1.7 2.55,1.65 4,4.6 1.45,2.95 1.45,6.8 0,3.8 -1.45,6.8 -1.45,2.95 -4,4.65 -2.55,1.65 -5.85,1.65 z m -0.6,-2.7 q 2.6,0 4.6,-1.3 2,-1.35 3.15,-3.7 1.15,-2.35 1.15,-5.4 0,-3.05 -1.15,-5.4 -1.1,-2.35 -3.1,-3.65 -2,-1.35 -4.6,-1.35 -2.4,0 -4.3,1.35 -1.85,1.3 -2.9,3.65 -1.05,2.35 -1.05,5.4 0,3.05 1.05,5.4 1.05,2.35 2.9,3.7 1.85,1.3 4.25,1.3 z"
             id="path523" />
        </g>
      </g>
      <g
         transform="rotate(-89.029,589.06,1813.3)"
         id="g539">
        <g
           aria-label="l"
           id="text537"
           style="font-weight:300;font-size:50px;font-family:Figtree-Light_Medium, Figtree">
          <path
             d="m 592.81702,1813.27 v -35 h 3 v 35 z"
             id="path526" />
        </g>
      </g>
      <g
         transform="rotate(-88.132,589.24,1802.8)"
         id="g543">
        <g
           aria-label="i"
           id="text541"
           style="font-weight:300;font-size:50px;font-family:Figtree-Light_Medium, Figtree">
          <path
             d="m 593.18499,1802.76 v -25 h 3 v 25 z m 1.55,-31.5 q -0.8,0 -1.4,-0.6 -0.6,-0.6 -0.6,-1.4 0,-0.85 0.6,-1.4 0.6,-0.6 1.4,-0.6 0.85,0 1.4,0.6 0.6,0.55 0.6,1.4 0,0.8 -0.6,1.4 -0.55,0.6 -1.4,0.6 z"
             id="path529" />
        </g>
      </g>
      <g
         transform="rotate(-86.572,589.47,1791.8)"
         id="g547">
        <g
           aria-label="c"
           id="text545"
           style="font-weight:300;font-size:50px;font-family:Figtree-Light_Medium, Figtree">
          <path
             d="m 604.02198,1792.4101 q -3.6,0 -6.4,-1.65 -2.75,-1.7 -4.35,-4.65 -1.55,-2.95 -1.55,-6.8 0,-3.85 1.55,-6.8 1.55,-2.95 4.3,-4.6 2.8,-1.7 6.35,-1.7 3.55,0 6.3,1.6 2.75,1.55 4.25,4.35 l -2.6,1.4 q -1.15,-2.15 -3.25,-3.35 -2.05,-1.25 -4.7,-1.25 -2.7,0 -4.8,1.35 -2.05,1.3 -3.25,3.65 -1.15,2.3 -1.15,5.35 0,3.05 1.2,5.4 1.2,2.3 3.3,3.65 2.1,1.3 4.8,1.3 2.7,0 4.8,-1.35 2.1,-1.4 3.2,-3.85 l 2.65,1.4 q -1.5,3.05 -4.3,4.8 -2.75,1.75 -6.35,1.75 z"
             id="path532" />
        </g>
      </g>
      <g
         transform="rotate(-83.849,592.28,1752.4)"
         id="g551">
        <g
           aria-label="I"
           id="text549"
           style="font-weight:300;font-size:50px;font-family:Figtree-Light_Medium, Figtree">
          <path
             d="m 597.276,1752.4399 v -35 h 3.2 v 35 z"
             id="path535" />
        </g>
      </g>
      <g
         transform="rotate(-82.114,593.57,1739.3)"
         id="g555">
        <g
           aria-label="n"
           id="text553"
           style="font-weight:300;font-size:50px;font-family:Figtree-Light_Medium, Figtree">
          <path
             d="m 597.31897,1739.3 v -25 h 2.8 l 0.2,4.6 v 20.4 z m 17.95,0 v -12.8 h 3 v 12.8 z m 0,-12.8 q 0,-4.15 -1,-6.3 -0.95,-2.15 -2.65,-2.9 -1.65,-0.8 -3.75,-0.8 -3.55,0 -5.55,2.65 -2,2.6 -2,7.3 h -1.85 q 0,-4 1.15,-6.85 1.15,-2.85 3.35,-4.35 2.25,-1.55 5.45,-1.55 2.9,0 5.1,1.2 2.25,1.15 3.5,3.7 1.3,2.55 1.25,6.75 v 1.15 z"
             id="path538" />
        </g>
      </g>
      <g
         transform="rotate(-80.199,597.44,1711.8)"
         id="g559">
        <g
           aria-label="t"
           id="text557"
           style="font-weight:300;font-size:50px;font-family:Figtree-Light_Medium, Figtree">
          <path
             d="m 610.24098,1712.45 q -3.45,0 -5.4,-1.8 -1.95,-1.85 -1.95,-5.2 v -26.4 h 3 v 26.4 q 0,2 1.15,3.15 1.15,1.1 3.2,1.1 0.6,0 1.15,-0.15 0.6,-0.2 1.7,-0.95 l 1.25,2.6 q -1.35,0.8 -2.25,1 -0.9,0.25 -1.85,0.25 z m -11.8,-22.85 v -2.75 h 15.4 v 2.75 z"
             id="path541" />
        </g>
      </g>
      <g
         transform="rotate(-78.255,600.48,1693.7)"
         id="g563">
        <g
           aria-label="e"
           id="text561"
           style="font-weight:300;font-size:50px;font-family:Figtree-Light_Medium, Figtree">
          <path
             d="m 615.03602,1694.33 q -3.6,0 -6.4,-1.65 -2.75,-1.7 -4.35,-4.65 -1.55,-2.95 -1.55,-6.8 0,-3.85 1.55,-6.8 1.55,-2.95 4.25,-4.6 2.75,-1.7 6.25,-1.7 3.55,0 6,1.75 2.5,1.7 3.8,4.75 1.3,3 1.3,6.95 h -21.35 l 1.15,-0.95 q 0,3.45 1.15,5.9 1.15,2.45 3.25,3.75 2.15,1.3 4.95,1.3 2.9,0 4.9,-1.4 2.05,-1.45 3.2,-3.7 l 2.5,1.55 q -0.95,1.85 -2.5,3.3 -1.5,1.4 -3.55,2.2 -2.05,0.8 -4.55,0.8 z m -9.1,-14.6 -1.25,-0.9 h 19.25 l -1.25,0.95 q 0,-2.65 -1,-4.65 -0.95,-2 -2.7,-3.1 -1.75,-1.15 -4.2,-1.15 -2.4,0 -4.45,1.15 -2,1.1 -3.2,3.1 -1.2,1.95 -1.2,4.6 z"
             id="path544" />
        </g>
      </g>
      <g
         transform="rotate(-75.948,605.99,1667.2)"
         id="g567">
        <g
           aria-label="g"
           id="text565"
           style="font-weight:300;font-size:50px;font-family:Figtree-Light_Medium, Figtree">
          <path
             d="m 619.292,1677.76 q -2.25,0 -4.15,-0.5 -1.9,-0.5 -3.2,-1.1 -1.3,-0.55 -1.8,-0.8 l 1.1,-2.5 q 0.6,0.35 1.8,0.85 1.25,0.55 2.85,0.9 1.65,0.4 3.4,0.4 2.6,0 4.65,-1.05 2.05,-1.05 3.2,-3.3 1.2,-2.25 1.2,-5.8 v -22.7 h 3 v 22.7 q 0,4.35 -1.65,7.2 -1.6,2.9 -4.35,4.3 -2.75,1.4 -6.05,1.4 z m 0.25,-10.6 q -3.3,0 -5.85,-1.65 -2.55,-1.65 -4,-4.55 -1.45,-2.95 -1.45,-6.7 0,-3.75 1.45,-6.6 1.45,-2.85 4,-4.45 2.55,-1.65 5.85,-1.65 3.2,0 5.6,1.65 2.45,1.6 3.8,4.45 1.4,2.85 1.4,6.6 0,3.75 -1.4,6.7 -1.35,2.9 -3.8,4.55 -2.4,1.65 -5.6,1.65 z m 0.6,-2.65 q 2.4,0 4.25,-1.3 1.85,-1.35 2.9,-3.65 1.05,-2.3 1.05,-5.3 0,-2.95 -1.05,-5.2 -1.05,-2.3 -2.9,-3.6 -1.85,-1.3 -4.3,-1.3 -2.6,0 -4.6,1.3 -2,1.3 -3.15,3.6 -1.1,2.25 -1.1,5.2 0,3 1.15,5.3 1.15,2.3 3.15,3.65 2,1.3 4.6,1.3 z"
             id="path547" />
        </g>
      </g>
      <g
         transform="rotate(-73.819,613.14,1639)"
         id="g571">
        <g
           aria-label="r"
           id="text569"
           style="font-weight:300;font-size:50px;font-family:Figtree-Light_Medium, Figtree">
          <path
             d="m 618.14398,1625.26 q 0,-4.05 1.5,-6.55 1.55,-2.5 3.95,-3.65 2.45,-1.2 5.15,-1.2 v 2.75 q -2.2,0 -4.25,0.8 -2,0.75 -3.3,2.6 -1.3,1.8 -1.3,4.95 z m -1.25,13.7 v -25 h 3 v 25 z"
             id="path550" />
        </g>
      </g>
      <g
         transform="rotate(-72.797,617.65,1623.4)"
         id="g575">
        <g
           aria-label="i"
           id="text573"
           style="font-weight:300;font-size:50px;font-family:Figtree-Light_Medium, Figtree">
          <path
             d="m 621.601,1623.4301 v -25 h 3 v 25 z m 1.55,-31.5 q -0.8,0 -1.4,-0.6 -0.6,-0.6 -0.6,-1.4 0,-0.85 0.6,-1.4 0.6,-0.6 1.4,-0.6 0.85,0 1.4,0.6 0.6,0.55 0.6,1.4 0,0.8 -0.6,1.4 -0.55,0.6 -1.4,0.6 z"
             id="path553" />
        </g>
      </g>
      <g
         transform="rotate(-71.588,620.84,1613)"
         id="g579">
        <g
           aria-label="t"
           id="text577"
           style="font-weight:300;font-size:50px;font-family:Figtree-Light_Medium, Figtree">
          <path
             d="m 633.64198,1613.57 q -3.45,0 -5.4,-1.8 -1.95,-1.85 -1.95,-5.2 v -26.4 h 3 v 26.4 q 0,2 1.15,3.15 1.15,1.1 3.2,1.1 0.6,0 1.15,-0.15 0.6,-0.2 1.7,-0.95 l 1.25,2.6 q -1.35,0.8 -2.25,1 -0.9,0.25 -1.85,0.25 z m -11.8,-22.85 v -2.75 h 15.4 v 2.75 z"
             id="path556" />
        </g>
      </g>
      <g
         transform="rotate(-69.671,626.6,1595.4)"
         id="g583">
        <g
           aria-label="y"
           id="text581"
           style="font-weight:300;font-size:50px;font-family:Figtree-Light_Medium, Figtree">
          <path
             d="m 631.549,1606.0399 q -0.8,0 -1.9,-0.3 -1.1,-0.3 -2.55,-0.9 l 1.1,-2.55 q 1.3,0.5 2.2,0.75 0.9,0.25 1.4,0.25 1.45,0 2.35,-0.8 0.95,-0.8 1.55,-2.2 l 2.85,-6.8 9.75,-23.05 h 3.15 l -12.25,29 q -0.9,2.1 -1.9,3.55 -0.95,1.5 -2.35,2.25 -1.35,0.8 -3.4,0.8 z m 6.15,-10.6 -10.55,-25 h 3.1 l 9.65,23 0.85,2 z"
             id="path559" />
        </g>
      </g>
      <g
         transform="rotate(-66.341,640,1560.1)"
         id="g587">
        <g
           aria-label="F"
           id="text585"
           style="font-weight:300;font-size:50px;font-family:Figtree-Light_Medium, Figtree">
          <path
             d="m 644.99701,1560.0601 v -35 h 20.15 v 2.9 h -16.95 v 13.35 h 15.25 v 2.9 h -15.25 v 15.85 z"
             id="path562" />
        </g>
      </g>
      <g
         transform="rotate(-64.521,650.65,1535.8)"
         id="g591">
        <g
           aria-label="r"
           id="text589"
           style="font-weight:300;font-size:50px;font-family:Figtree-Light_Medium, Figtree">
          <path
             d="m 655.64899,1522.1 q 0,-4.05 1.5,-6.55 1.55,-2.5 3.95,-3.65 2.45,-1.2 5.15,-1.2 v 2.75 q -2.2,0 -4.25,0.8 -2,0.75 -3.3,2.6 -1.3,1.8 -1.3,4.95 z m -1.25,13.7 v -25 h 3 v 25 z"
             id="path565" />
        </g>
      </g>
      <g
         transform="rotate(-62.963,657.49,1521.2)"
         id="g595">
        <g
           aria-label="a"
           id="text593"
           style="font-weight:300;font-size:50px;font-family:Figtree-Light_Medium, Figtree">
          <path
             d="m 676.78602,1521.24 -0.25,-3.75 v -9.65 q 0,-3.2 -0.75,-5.25 -0.7,-2.1 -2.25,-3.15 -1.5,-1.05 -3.95,-1.05 -2.25,0 -3.8,0.9 -1.5,0.9 -2.5,2.8 l -2.7,-1.2 q 1.05,-1.8 2.35,-2.95 1.35,-1.15 3,-1.7 1.65,-0.6 3.65,-0.6 3.35,0 5.55,1.35 2.2,1.35 3.3,4.05 1.1,2.7 1.1,6.8 v 13.4 z m -7.7,0.6 q -4.4,0 -6.9,-2 -2.45,-2.05 -2.45,-5.65 0,-3.7 2.45,-5.75 2.5,-2.05 6.9,-2.05 h 7.5 v 2.75 h -7.1 q -3.6,0 -5.2,1.35 -1.55,1.3 -1.55,3.7 0,2.3 1.6,3.6 1.65,1.3 4.55,1.3 2.4,0 4.1,-0.95 1.75,-1 2.65,-2.9 0.9,-1.9 0.9,-4.7 h 1.75 q 0,5.1 -2.45,8.2 -2.4,3.1 -6.75,3.1 z"
             id="path568" />
        </g>
      </g>
      <g
         transform="rotate(-60.078,668.68,1498.8)"
         id="g599">
        <g
           aria-label="m"
           id="text597"
           style="font-weight:300;font-size:50px;font-family:Figtree-Light_Medium, Figtree">
          <path
             d="m 672.42297,1498.8101 v -25 h 2.8 l 0.15,3.6 q 1.15,-2.05 2.95,-3.1 1.85,-1.1 4.3,-1.1 2.95,0 5.1,1.45 2.15,1.4 3.1,4.35 1.05,-2.8 3.05,-4.3 2.05,-1.5 4.95,-1.5 4.1,0 6.55,2.8 2.5,2.8 2.45,8.5 v 14.3 h -3 v -12.8 q 0,-4.15 -0.9,-6.3 -0.85,-2.15 -2.3,-2.9 -1.45,-0.8 -3.3,-0.8 -3.15,0 -4.95,2.65 -1.75,2.6 -1.75,7.3 v 12.85 h -3 v -12.8 q 0,-4.15 -0.9,-6.3 -0.85,-2.15 -2.3,-2.9 -1.45,-0.8 -3.3,-0.8 -3.15,0 -4.95,2.65 -1.75,2.6 -1.75,7.3 v 12.85 z"
             id="path571" />
        </g>
      </g>
      <g
         transform="rotate(-57.191,689.83,1462.4)"
         id="g603">
        <g
           aria-label="e"
           id="text601"
           style="font-weight:300;font-size:50px;font-family:Figtree-Light_Medium, Figtree">
          <path
             d="m 704.38899,1462.97 q -3.6,0 -6.4,-1.65 -2.75,-1.7 -4.35,-4.65 -1.55,-2.95 -1.55,-6.8 0,-3.85 1.55,-6.8 1.55,-2.95 4.25,-4.6 2.75,-1.7 6.25,-1.7 3.55,0 6,1.75 2.5,1.7 3.8,4.75 1.3,3 1.3,6.95 h -21.35 l 1.15,-0.95 q 0,3.45 1.15,5.9 1.15,2.45 3.25,3.75 2.15,1.3 4.95,1.3 2.9,0 4.9,-1.4 2.05,-1.45 3.2,-3.7 l 2.5,1.55 q -0.95,1.85 -2.5,3.3 -1.5,1.4 -3.55,2.2 -2.05,0.8 -4.55,0.8 z m -9.1,-14.6 -1.25,-0.9 h 19.25 l -1.25,0.95 q 0,-2.65 -1,-4.65 -0.95,-2 -2.7,-3.1 -1.75,-1.15 -4.2,-1.15 -2.4,0 -4.45,1.15 -2,1.1 -3.2,3.1 -1.2,1.95 -1.2,4.6 z"
             id="path574" />
        </g>
      </g>
      <g
         transform="rotate(-54.456,704.14,1439.9)"
         id="g607">
        <g
           aria-label="w"
           id="text605"
           style="font-weight:300;font-size:50px;font-family:Figtree-Light_Medium, Figtree">
          <path
             d="m 730.28599,1439.87 8.55,-25 h 3 l -8.5,25 z m -17.1,0 8.6,-25 h 3 l -8.55,25 z m -0.05,0 -8.5,-25 h 3 l 8.55,25 z m 17.15,0 -8.5,-25 h 3 l 8.55,25 z"
             id="path577" />
        </g>
      </g>
      <g
         transform="rotate(-51.757,726.13,1409.2)"
         id="g611">
        <g
           aria-label="o"
           id="text609"
           style="font-weight:300;font-size:50px;font-family:Figtree-Light_Medium, Figtree">
          <path
             d="m 740.68098,1409.82 q -3.6,0 -6.4,-1.65 -2.75,-1.7 -4.35,-4.65 -1.55,-2.95 -1.55,-6.8 0,-3.85 1.55,-6.8 1.55,-2.95 4.3,-4.6 2.8,-1.7 6.35,-1.7 3.6,0 6.35,1.7 2.8,1.65 4.35,4.6 1.55,2.95 1.55,6.8 0,3.85 -1.55,6.8 -1.55,2.95 -4.3,4.65 -2.75,1.65 -6.3,1.65 z m 0,-2.75 q 2.7,0 4.75,-1.3 2.05,-1.35 3.2,-3.65 1.2,-2.35 1.2,-5.4 0,-3.05 -1.2,-5.35 -1.15,-2.35 -3.25,-3.65 -2.1,-1.35 -4.8,-1.35 -2.7,0 -4.8,1.35 -2.05,1.3 -3.25,3.65 -1.15,2.3 -1.15,5.35 0,3.05 1.2,5.4 1.2,2.3 3.3,3.65 2.1,1.3 4.8,1.3 z"
             id="path580" />
        </g>
      </g>
      <g
         transform="rotate(-49.705,744.12,1386.5)"
         id="g615">
        <g
           aria-label="r"
           id="text613"
           style="font-weight:300;font-size:50px;font-family:Figtree-Light_Medium, Figtree">
          <path
             d="m 749.12097,1372.82 q 0,-4.05 1.5,-6.55 1.55,-2.5 3.95,-3.65 2.45,-1.2 5.15,-1.2 v 2.75 q -2.2,0 -4.25,0.8 -2,0.75 -3.3,2.6 -1.3,1.8 -1.3,4.95 z m -1.25,13.7 v -25 h 3 v 25 z"
             id="path583" />
        </g>
      </g>
      <g
         transform="rotate(-48.029,754.45,1374.2)"
         id="g619">
        <g
           aria-label="k"
           id="text617"
           style="font-weight:300;font-size:50px;font-family:Figtree-Light_Medium, Figtree">
          <path
             d="m 761.19598,1365.46 -2.05,-2.05 13.55,-14.25 h 3.9 z m -3,8.7 v -35 h 3 v 35 z m 15.65,0 -9.95,-15.2 1.95,-2.15 11.85,17.35 z"
             id="path586" />
        </g>
      </g>
    </g>
  </g>
</svg>
