<svg width="125" height="138" viewBox="0 0 125 138" fill="none" xmlns="http://www.w3.org/2000/svg">
<g clip-path="url(#clip0_6_988)">
<path d="M64.11 92.81C69.89 101.65 79.39 107.34 92.22 107.34C103.86 107.34 124.14 102.27 124.14 73.62C124.14 72.76 124.14 71.9 124.14 71.04C124.14 70.21 123.46 69.54 122.64 69.54H94.64C93.81 69.54 93.14 70.21 93.14 71.04V71.94C93.14 72.77 93.81 73.44 94.64 73.44H120.23C121.06 91.46 109.92 103.41 92.43 103.41C79.95 103.41 71.38 97.43 66.61 88.5L64.13 92.8L64.11 92.81Z" fill="white"/>
<path d="M97.65 34.7302C107.94 36.4602 115.15 43.3202 118.27 53.7502C118.46 54.3902 119.05 54.8202 119.71 54.8202H121.07C122.03 54.8202 122.75 53.9302 122.54 52.9902C119.92 41.2602 110.91 33.5402 99.71 31.1602L97.65 34.7202V34.7302Z" fill="white"/>
<path d="M111.8 3.72005C112.49 2.53005 112.08 1.02005 110.89 0.330054C109.7 -0.349946 108.18 0.0500544 107.5 1.24005L30.7 134.25C30.02 135.44 30.42 136.96 31.61 137.64C32.8 138.33 34.32 137.92 35 136.73L111.8 3.72005Z" fill="white"/>
<path d="M91.4 3.72005C92.09 2.53005 91.68 1.02005 90.49 0.330054C89.3 -0.349946 87.78 0.0500544 87.1 1.24005L10.31 134.25C9.63003 135.44 10.03 136.96 11.22 137.64C12.41 138.33 13.93 137.92 14.61 136.73L91.4 3.72005Z" fill="white"/>
<path d="M29.11 101.69H4.53V69.34H29.46C34.97 69.34 41.12 70.32 45.35 73.56L47.32 70.14C43.49 67.57 39.48 66.8201 38.52 66.9801C38.45 66.9101 38.38 66.84 38.31 66.77C46.85 65.64 52.63 59.0501 52.63 51.1101C52.63 41.6301 46.96 32.05 29.46 32.05H1.5C0.67 32.05 0 32.72 0 33.55V104.08C0 104.91 0.67 105.58 1.5 105.58H26.86L29.11 101.68V101.69ZM4.53 35.9701H29.46C39.25 35.9701 48.1 39.5701 48.1 50.2901C48.1 59.3501 41.83 65.43 29.46 65.43H4.53V35.9701Z" fill="white"/>
</g>
<defs>
<clipPath id="clip0_6_988">
<rect width="124.14" height="137.98" fill="white"/>
</clipPath>
</defs>
</svg>
