<?xml version="1.0" encoding="UTF-8" standalone="no"?>
<svg
   width="100%"
   height="100%"
   viewBox="0 0 1766 1766"
   version="1.1"
   xml:space="preserve"
   style="fill-rule:evenodd;clip-rule:evenodd;stroke-linejoin:round;stroke-miterlimit:2;"
   id="svg446"
   sodipodi:docname="dh-pie.svg"
   inkscape:version="1.2.2 (b0a84865, 2022-12-01)"
   xmlns:inkscape="http://www.inkscape.org/namespaces/inkscape"
   xmlns:sodipodi="http://sodipodi.sourceforge.net/DTD/sodipodi-0.dtd"
   xmlns="http://www.w3.org/2000/svg"
   xmlns:svg="http://www.w3.org/2000/svg">
    <defs
   id="defs450" />
    <sodipodi:namedview
   id="namedview448"
   pagecolor="#ffffff"
   bordercolor="#000000"
   borderopacity="0.25"
   inkscape:showpageshadow="2"
   inkscape:pageopacity="0.0"
   inkscape:pagecheckerboard="0"
   inkscape:deskcolor="#d1d1d1"
   showgrid="false"
   inkscape:zoom="0.5815402"
   inkscape:cx="672.35249"
   inkscape:cy="890.73808"
   inkscape:window-width="1390"
   inkscape:window-height="916"
   inkscape:window-x="1692"
   inkscape:window-y="409"
   inkscape:window-maximized="0"
   inkscape:current-layer="g443" />
    <g
   id="Artboard1"
   transform="matrix(1,0,0,1,-400.918,-795.349)">
        <rect
   x="400.918"
   y="795.349"
   width="1765.9"
   height="1765.9"
   style="fill:none;"
   id="rect16" />
        <g
   transform="matrix(1,0,0,1,114.485,629.004)"
   id="g443">
            <g
   transform="matrix(1,0,0,1,-7.43803,-552.266)"
   id="g48">
                <g
   transform="matrix(1,0,0,1,1.32629,1.98776)"
   id="g22"
   onclick="window.location.href='theme/freedom-of-expression">
                    <path
   d="M1795.76,1818.84C1753.74,1945.89 1672.87,2061.43 1556.29,2145.88C1440.35,2229.86 1306.21,2270.69 1173.05,2271.45C1173.31,2270.9 1173.46,2270.29 1173.46,2269.64L1174.08,1618.15L1795.76,1818.84Z"
   style="fill:rgb(0,84,182);"
   id="path18" />
                    <path
   d="M1843.23,1834.53L1811.12,1771.25L1189.44,1570.56L1124.08,1618.1L1123.46,2269.6C1123.47,2262.46 1125.12,2255.7 1128.04,2249.68L1173.33,2321.45C1316.59,2320.63 1460.9,2276.72 1585.62,2186.37C1711.04,2095.52 1798.03,1971.22 1843.23,1834.53ZM1795.76,1818.84C1753.74,1945.89 1672.87,2061.43 1556.29,2145.88C1440.35,2229.86 1306.21,2270.69 1173.05,2271.45C1173.31,2270.9 1173.46,2270.29 1173.46,2269.64L1174.08,1618.15L1795.76,1818.84Z"
   style="fill:white;"
   id="path20" />
                </g>
                <g
   transform="matrix(1,0,0,1,1.32629,1.98776)"
   id="g28"
   onclick="window.location.href='/theme/internet-empowerment/'">
                    <path
   d="M541.223,1818.65L818.848,1729.52L1165.75,1618.73L1165.13,2269.64C1165.13,2270.29 1165.28,2270.9 1165.54,2271.45C962.09,2270.3 761.829,2175.61 633.434,1998.35C592.632,1942.02 562.016,1881.4 541.223,1818.65Z"
   style="fill:rgb(56,147,243);"
   id="path24" />
                    <path
   d="M525.939,1771.05L493.761,1834.38C516.127,1901.87 549.052,1967.09 592.941,2027.68C731.042,2218.34 946.429,2320.21 1165.26,2321.45L1210.56,2249.68C1213.48,2255.73 1215.14,2262.52 1215.13,2269.68C1215.13,2269.68 1215.75,1618.78 1215.75,1618.78L1150.54,1571.1L803.636,1681.89C803.563,1681.92 525.939,1771.05 525.939,1771.05ZM541.223,1818.65L818.848,1729.52L1165.75,1618.73L1165.13,2269.64C1165.13,2270.29 1165.28,2270.9 1165.54,2271.45C962.09,2270.3 761.829,2175.61 633.434,1998.35C592.632,1942.02 562.016,1881.4 541.223,1818.65Z"
   style="fill:white;"
   id="path26" />
                </g>
                <g
   transform="matrix(1,0,0,1,1.32629,1.98776)"
   id="g34"
   onclick="window.location.href='/theme/enforcement/'">
                    <path
   d="M1559.12,1077.4C1613.29,1117.05 1662.31,1165.72 1703.82,1223.03C1831.57,1399.4 1859.47,1617.89 1798.32,1810.91L1176.62,1610.21L1559.12,1077.4Z"
   style="fill:rgb(0,68,146);"
   id="path30" />
                    <path
   d="M1588.64,1037.05L1518.5,1048.24L1136,1581.05L1161.26,1657.79L1782.96,1858.49L1845.99,1826.01C1911.76,1618.4 1881.72,1383.4 1744.31,1193.7C1699.66,1132.05 1646.92,1079.7 1588.64,1037.05ZM1559.12,1077.4C1613.29,1117.05 1662.31,1165.72 1703.82,1223.03C1831.57,1399.4 1859.47,1617.89 1798.32,1810.91L1176.62,1610.21L1559.12,1077.4Z"
   style="fill:white;"
   id="path32" />
                </g>
                <g
   transform="matrix(1,0,0,1,1.32629,1.98776)"
   id="g40"
   onclick="window.location.href='/theme/transparency/'">
                    <path
   d="M773.782,1080.77L1145.01,1585.39L1163.03,1610.27L816.308,1721.59L538.519,1810.31C455.764,1548.84 542.614,1252.94 773.782,1080.77Z"
   style="fill:rgb(20,122,244);"
   id="path36" />
                    <path
   d="M814.058,1051.14L743.917,1040.67C495.26,1225.86 401.834,1544.15 490.849,1825.39L553.731,1857.93L831.52,1769.22C831.592,1769.19 1178.31,1657.88 1178.31,1657.88L1203.52,1580.94L1185.5,1556.06C1185.29,1555.77 814.058,1051.14 814.058,1051.14ZM773.782,1080.77L1145.01,1585.39L1163.03,1610.27L816.308,1721.59L538.519,1810.31C455.764,1548.84 542.614,1252.94 773.782,1080.77Z"
   style="fill:white;"
   id="path38" />
                </g>
                <g
   transform="matrix(1,0,0,1,1.32629,1.98776)"
   id="g46"
   onclick="window.location.href='/theme/regulation'">
                    <path
   d="M784.247,1073.13C1019.57,904.825 1328.7,913.112 1552.36,1072.52L1169.94,1605.22L1151.74,1580.48L784.247,1073.13Z"
   style="fill:rgb(0,53,113);"
   id="path42"
   onclick="window.location.href='/theme/regulation/'" />
                    <path
   d="M755.16,1032.47L743.754,1102.47L1111.25,1609.81C1111.46,1610.11 1129.67,1634.85 1129.67,1634.85L1210.56,1634.38L1592.98,1101.68L1581.38,1031.8C1340.8,860.336 1008.29,851.424 755.16,1032.47ZM784.247,1073.13C1019.57,904.825 1328.7,913.112 1552.36,1072.52L1169.94,1605.22L1151.74,1580.48L784.247,1073.13Z"
   style="fill:white;"
   id="path44" />
                </g>
            </g>
            <g
   transform="matrix(0.843191,0,0,0.331615,397.152,1263.36)"
   id="g52">
                <rect
   x="903.603"
   y="1320.66"
   width="59.13"
   height="71.903"
   style="fill:white;"
   id="rect50" />
            </g>
            <g
   transform="matrix(1.11643,-1.0165e-16,1.0165e-16,1.11643,17.2964,-712.227)"
   id="g56">
                <path
   d="M1025.73,868.302C630.238,868.302 309.15,1189.39 309.15,1584.88C309.15,1980.37 630.238,2301.46 1025.73,2301.46C1421.22,2301.46 1742.31,1980.37 1742.31,1584.88C1742.31,1189.39 1421.22,868.302 1025.73,868.302L1025.73,868.302ZM1025.73,935.481C1384.14,935.481 1675.13,1226.47 1675.13,1584.88C1675.13,1943.3 1384.14,2234.28 1025.73,2234.28C667.315,2234.28 376.328,1943.3 376.328,1584.88C376.328,1226.47 667.315,935.481 1025.73,935.481Z"
   style="fill:rgb(224,242,255);"
   id="path54" />
            </g>
            <g
   id="text"
   transform="matrix(1,0,0,1,-6.11174,-550.279)">
                <g
   transform="matrix(0.296581,-2.70034e-17,2.70034e-17,0.296581,864.093,1144.34)"
   id="g62">
                    <circle
   cx="1025.73"
   cy="1584.88"
   r="649.401"
   style="fill:rgb(0,28,61);"
   id="circle58"
   onclick="window.location.href='/theme/corruption-measures/'" />
                    <path
   d="M1025.73,766.893C574.269,766.893 207.741,1133.42 207.741,1584.88C207.741,2036.34 574.269,2402.87 1025.73,2402.87C1477.19,2402.87 1843.72,2036.34 1843.72,1584.88C1843.72,1133.42 1477.19,766.893 1025.73,766.893ZM1025.73,935.481C1384.14,935.481 1675.13,1226.47 1675.13,1584.88C1675.13,1943.3 1384.14,2234.28 1025.73,2234.28C667.315,2234.28 376.328,1943.3 376.328,1584.88C376.328,1226.47 667.315,935.481 1025.73,935.481Z"
   style="fill:white;"
   id="path60" />
                </g>
                <g
   transform="matrix(0.374687,0.927152,-0.927152,0.374687,2005.42,650.91)"
   id="g168">
                    <g
   transform="matrix(-0.75017,-0.661245,0.661245,-0.75017,-58.8678,2572.01)"
   id="g66">
                        <text
   x="456.442px"
   y="1297.13px"
   style="font-family:'Figtree-Light_Medium', 'Figtree';font-weight:300;font-size:43.75px;"
   id="text64">D</text>
                    </g>
                    <g
   transform="matrix(-0.684655,-0.728867,0.728867,-0.684655,-199.184,2467.95)"
   id="g70">
                        <text
   x="434.287px"
   y="1277.06px"
   style="font-family:'Figtree-Light_Medium', 'Figtree';font-weight:300;font-size:43.75px;"
   id="text68">i</text>
                    </g>
                    <g
   transform="matrix(-0.635712,-0.771926,0.771926,-0.635712,-281.022,2407.74)"
   id="g74">
                        <text
   x="427.62px"
   y="1270.18px"
   style="font-family:'Figtree-Light_Medium', 'Figtree';font-weight:300;font-size:43.75px;"
   id="text72">r</text>
                    </g>
                    <g
   transform="matrix(-0.566451,-0.824095,0.824095,-0.566451,-382.508,2317.69)"
   id="g78">
                        <text
   x="418.404px"
   y="1259.46px"
   style="font-family:'Figtree-Light_Medium', 'Figtree';font-weight:300;font-size:43.75px;"
   id="text76">e</text>
                    </g>
                    <g
   transform="matrix(-0.465851,-0.884863,0.884863,-0.465851,-503.592,2175.81)"
   id="g82">
                        <text
   x="404.921px"
   y="1239.9px"
   style="font-family:'Figtree-Light_Medium', 'Figtree';font-weight:300;font-size:43.75px;"
   id="text80">c</text>
                    </g>
                    <g
   transform="matrix(-0.376338,-0.926483,0.926483,-0.376338,-586.942,2042.71)"
   id="g86">
                        <text
   x="394.056px"
   y="1218.91px"
   style="font-family:'Figtree-Light_Medium', 'Figtree';font-weight:300;font-size:43.75px;"
   id="text84">t</text>
                    </g>
                    <g
   transform="matrix(-0.228192,-0.973616,0.973616,-0.228192,-690.069,1840.24)"
   id="g90">
                        <text
   x="384.364px"
   y="1193.63px"
   style="font-family:'Figtree-Light_Medium', 'Figtree';font-weight:300;font-size:43.75px;"
   id="text88">c</text>
                    </g>
                    <g
   transform="matrix(-0.109018,-0.99404,0.99404,-0.109018,-743.488,1674.97)"
   id="g94">
                        <text
   x="378.915px"
   y="1170.69px"
   style="font-family:'Figtree-Light_Medium', 'Figtree';font-weight:300;font-size:43.75px;"
   id="text92">o</text>
                    </g>
                    <g
   transform="matrix(-0.00317132,-0.999995,0.999995,-0.00317132,-767.94,1525.48)"
   id="g98">
                        <text
   x="376.357px"
   y="1145.5px"
   style="font-family:'Figtree-Light_Medium', 'Figtree';font-weight:300;font-size:43.75px;"
   id="text96">r</text>
                    </g>
                    <g
   transform="matrix(0.0661058,-0.997813,0.997813,0.0661058,-777.607,1431.97)"
   id="g102">
                        <text
   x="376.187px"
   y="1131.4px"
   style="font-family:'Figtree-Light_Medium', 'Figtree';font-weight:300;font-size:43.75px;"
   id="text100">r</text>
                    </g>
                    <g
   transform="matrix(0.151609,-0.988441,0.988441,0.151609,-784.656,1320.36)"
   id="g106">
                        <text
   x="376.833px"
   y="1117.27px"
   style="font-family:'Figtree-Light_Medium', 'Figtree';font-weight:300;font-size:43.75px;"
   id="text104">u</text>
                    </g>
                    <g
   transform="matrix(0.27867,-0.960387,0.960387,0.27867,-775.559,1153.96)"
   id="g110">
                        <text
   x="380.416px"
   y="1093.27px"
   style="font-family:'Figtree-Light_Medium', 'Figtree';font-weight:300;font-size:43.75px;"
   id="text108">p</text>
                    </g>
                    <g
   transform="matrix(0.374204,-0.927346,0.927346,0.374204,-748.353,1028.35)"
   id="g114">
                        <text
   x="387.761px"
   y="1068.65px"
   style="font-family:'Figtree-Light_Medium', 'Figtree';font-weight:300;font-size:43.75px;"
   id="text112">t</text>
                    </g>
                    <g
   transform="matrix(0.434647,-0.900601,0.900601,0.434647,-726.346,950.463)"
   id="g118">
                        <text
   x="393.866px"
   y="1053.76px"
   style="font-family:'Figtree-Light_Medium', 'Figtree';font-weight:300;font-size:43.75px;"
   id="text116">i</text>
                    </g>
                    <g
   transform="matrix(0.509744,-0.860326,0.860326,0.509744,-703.98,854.465)"
   id="g122">
                        <text
   x="397.74px"
   y="1044.92px"
   style="font-family:'Figtree-Light_Medium', 'Figtree';font-weight:300;font-size:43.75px;"
   id="text120">o</text>
                    </g>
                    <g
   transform="matrix(0.613268,-0.789875,0.789875,0.613268,-649.283,720.055)"
   id="g126">
                        <text
   x="410.692px"
   y="1023.09px"
   style="font-family:'Figtree-Light_Medium', 'Figtree';font-weight:300;font-size:43.75px;"
   id="text124">n</text>
                    </g>
                    <g
   transform="matrix(0.716258,-0.697835,0.697835,0.716258,-572.166,584.926)"
   id="g130">
                        <text
   x="433.201px"
   y="996.056px"
   style="font-family:'Figtree-Light_Medium', 'Figtree';font-weight:300;font-size:43.75px;"
   id="text128">i</text>
                    </g>
                    <g
   transform="matrix(0.772163,-0.635424,0.635424,0.772163,-528.256,504.859)"
   id="g134">
                        <text
   x="439.885px"
   y="989.069px"
   style="font-family:'Figtree-Light_Medium', 'Figtree';font-weight:300;font-size:43.75px;"
   id="text132">n</text>
                    </g>
                    <g
   transform="matrix(0.841952,-0.539553,0.539553,0.841952,-452.864,401.302)"
   id="g138">
                        <text
   x="458.56px"
   y="973.656px"
   style="font-family:'Figtree-Light_Medium', 'Figtree';font-weight:300;font-size:43.75px;"
   id="text136">d</text>
                    </g>
                    <g
   transform="matrix(0.888023,-0.459799,0.459799,0.888023,-387.741,328.316)"
   id="g142">
                        <text
   x="480.193px"
   y="960.228px"
   style="font-family:'Figtree-Light_Medium', 'Figtree';font-weight:300;font-size:43.75px;"
   id="text140">i</text>
                    </g>
                    <g
   transform="matrix(0.922981,-0.384845,0.384845,0.922981,-330.077,261.652)"
   id="g146">
                        <text
   x="488.669px"
   y="955.484px"
   style="font-family:'Figtree-Light_Medium', 'Figtree';font-weight:300;font-size:43.75px;"
   id="text144">c</text>
                    </g>
                    <g
   transform="matrix(0.960387,-0.27867,0.27867,0.960387,-243.524,179.736)"
   id="g150">
                        <text
   x="510.443px"
   y="946.439px"
   style="font-family:'Figtree-Light_Medium', 'Figtree';font-weight:300;font-size:43.75px;"
   id="text148">a</text>
                    </g>
                    <g
   transform="matrix(0.982682,-0.185301,0.185301,0.982682,-165.064,114.777)"
   id="g154">
                        <text
   x="531.513px"
   y="940.466px"
   style="font-family:'Figtree-Light_Medium', 'Figtree';font-weight:300;font-size:43.75px;"
   id="text152">t</text>
                    </g>
                    <g
   transform="matrix(0.996544,-0.0830657,0.0830657,0.996544,-75.9603,48.7057)"
   id="g158">
                        <text
   x="547.358px"
   y="937.234px"
   style="font-family:'Figtree-Light_Medium', 'Figtree';font-weight:300;font-size:43.75px;"
   id="text156">o</text>
                    </g>
                    <g
   transform="matrix(0.999745,0.0225906,-0.0225906,0.999745,21.2758,-12.6972)"
   id="g162">
                        <text
   x="572.623px"
   y="935.333px"
   style="font-family:'Figtree-Light_Medium', 'Figtree';font-weight:300;font-size:43.75px;"
   id="text160">r</text>
                    </g>
                    <g
   transform="matrix(0.995068,0.0992001,-0.0992001,0.995068,95.6912,-53.5868)"
   id="g166">
                        <text
   x="586.702px"
   y="935.455px"
   style="font-family:'Figtree-Light_Medium', 'Figtree';font-weight:300;font-size:43.75px;"
   id="text164">s</text>
                    </g>
                </g>
                <g
   transform="matrix(0.415879,0.90942,-0.90942,0.415879,2330.83,-390.014)"
   id="g274">
                    <g
   transform="matrix(-0.105485,-0.994421,0.994421,-0.105485,-1311.27,2778.47)"
   id="g172">
                        <text
   x="594.027px"
   y="1979px"
   style="font-family:'Figtree-Light_Medium', 'Figtree';font-weight:300;font-size:50px;"
   id="text170">I</text>
                    </g>
                    <g
   transform="matrix(-0.0717301,-0.997424,0.997424,-0.0717301,-1325.91,2697.78)"
   id="g176">
                        <text
   x="592.414px"
   y="1965.88px"
   style="font-family:'Figtree-Light_Medium', 'Figtree';font-weight:300;font-size:50px;"
   id="text174">N</text>
                    </g>
                    <g
   transform="matrix(-0.0221944,-0.999754,0.999754,-0.0221944,-1324.03,2559.54)"
   id="g180">
                        <text
   x="589.661px"
   y="1927.25px"
   style="font-family:'Figtree-Light_Medium', 'Figtree';font-weight:300;font-size:50px;"
   id="text178">D</text>
                    </g>
                    <g
   transform="matrix(0.00723436,-0.999974,0.999974,0.00723436,-1308.32,2468.47)"
   id="g184">
                        <text
   x="589.033px"
   y="1893.14px"
   style="font-family:'Figtree-Light_Medium', 'Figtree';font-weight:300;font-size:50px;"
   id="text182">I</text>
                    </g>
                    <g
   transform="matrix(0.0376392,-0.999291,0.999291,0.0376392,-1311.82,2397.74)"
   id="g188">
                        <text
   x="588.966px"
   y="1879.95px"
   style="font-family:'Figtree-Light_Medium', 'Figtree';font-weight:300;font-size:50px;"
   id="text186">R</text>
                    </g>
                    <g
   transform="matrix(0.0755762,-0.99714,0.99714,0.0755762,-1298.3,2297.76)"
   id="g192">
                        <text
   x="590.106px"
   y="1849.09px"
   style="font-family:'Figtree-Light_Medium', 'Figtree';font-weight:300;font-size:50px;"
   id="text190">E</text>
                    </g>
                    <g
   transform="matrix(0.119015,-0.992892,0.992892,0.119015,-1284.71,2190.95)"
   id="g196">
                        <text
   x="592.276px"
   y="1819.43px"
   style="font-family:'Figtree-Light_Medium', 'Figtree';font-weight:300;font-size:50px;"
   id="text194">C</text>
                    </g>
                    <g
   transform="matrix(0.160641,-0.987013,0.987013,0.160641,-1259.83,2086.1)"
   id="g200">
                        <text
   x="596.624px"
   y="1783.78px"
   style="font-family:'Figtree-Light_Medium', 'Figtree';font-weight:300;font-size:50px;"
   id="text198">T</text>
                    </g>
                    <g
   transform="matrix(0.217907,-0.97597,0.97597,0.217907,-1231.17,1953.31)"
   id="g204">
                        <text
   x="603.172px"
   y="1744.84px"
   style="font-family:'Figtree-Light_Medium', 'Figtree';font-weight:300;font-size:50px;"
   id="text202">C</text>
                    </g>
                    <g
   transform="matrix(0.26605,-0.963959,0.963959,0.26605,-1199.69,1843.8)"
   id="g208">
                        <text
   x="610.965px"
   y="1709.73px"
   style="font-family:'Figtree-Light_Medium', 'Figtree';font-weight:300;font-size:50px;"
   id="text206">O</text>
                    </g>
                    <g
   transform="matrix(0.312265,-0.949995,0.949995,0.312265,-1161.61,1740.47)"
   id="g212">
                        <text
   x="621.288px"
   y="1672.53px"
   style="font-family:'Figtree-Light_Medium', 'Figtree';font-weight:300;font-size:50px;"
   id="text210">R</text>
                    </g>
                    <g
   transform="matrix(0.3512,-0.9363,0.9363,0.3512,-1129.18,1656.77)"
   id="g216">
                        <text
   x="630.874px"
   y="1643.16px"
   style="font-family:'Figtree-Light_Medium', 'Figtree';font-weight:300;font-size:50px;"
   id="text214">R</text>
                    </g>
                    <g
   transform="matrix(0.390317,-0.92068,0.92068,0.390317,-1094.97,1574.91)"
   id="g220">
                        <text
   x="641.649px"
   y="1614.21px"
   style="font-family:'Figtree-Light_Medium', 'Figtree';font-weight:300;font-size:50px;"
   id="text218">U</text>
                    </g>
                    <g
   transform="matrix(0.431731,-0.902003,0.902003,0.431731,-1054.06,1490.04)"
   id="g224">
                        <text
   x="655.527px"
   y="1581.56px"
   style="font-family:'Figtree-Light_Medium', 'Figtree';font-weight:300;font-size:50px;"
   id="text222">P</text>
                    </g>
                    <g
   transform="matrix(0.462996,-0.88636,0.88636,0.462996,-1020.38,1427.4)"
   id="g228">
                        <text
   x="667.821px"
   y="1555.8px"
   style="font-family:'Figtree-Light_Medium', 'Figtree';font-weight:300;font-size:50px;"
   id="text226">T</text>
                    </g>
                    <g
   transform="matrix(0.486164,-0.873868,0.873868,0.486164,-989.121,1381.72)"
   id="g232">
                        <text
   x="680.371px"
   y="1531.95px"
   style="font-family:'Figtree-Light_Medium', 'Figtree';font-weight:300;font-size:50px;"
   id="text230">I</text>
                    </g>
                    <g
   transform="matrix(0.515733,-0.856749,0.856749,0.515733,-970.043,1324.47)"
   id="g236">
                        <text
   x="686.583px"
   y="1520.32px"
   style="font-family:'Figtree-Light_Medium', 'Figtree';font-weight:300;font-size:50px;"
   id="text234">O</text>
                    </g>
                    <g
   transform="matrix(0.558699,-0.829371,0.829371,0.558699,-921.668,1242.26)"
   id="g240">
                        <text
   x="706.507px"
   y="1487.21px"
   style="font-family:'Figtree-Light_Medium', 'Figtree';font-weight:300;font-size:50px;"
   id="text238">N</text>
                    </g>
                    <g
   transform="matrix(0.615405,-0.788211,0.788211,0.615405,-856.078,1135.39)"
   id="g244">
                        <text
   x="735.432px"
   y="1444.94px"
   style="font-family:'Figtree-Light_Medium', 'Figtree';font-weight:300;font-size:50px;"
   id="text242">M</text>
                    </g>
                    <g
   transform="matrix(0.651971,-0.758244,0.758244,0.651971,-805.535,1068.72)"
   id="g248">
                        <text
   x="761.436px"
   y="1411.86px"
   style="font-family:'Figtree-Light_Medium', 'Figtree';font-weight:300;font-size:50px;"
   id="text246">E</text>
                    </g>
                    <g
   transform="matrix(0.683162,-0.730267,0.730267,0.683162,-767.204,1010.35)"
   id="g252">
                        <text
   x="780.749px"
   y="1389.32px"
   style="font-family:'Figtree-Light_Medium', 'Figtree';font-weight:300;font-size:50px;"
   id="text250">A</text>
                    </g>
                    <g
   transform="matrix(0.712547,-0.701625,0.701625,0.712547,-726.917,956.076)"
   id="g256">
                        <text
   x="803.351px"
   y="1365.18px"
   style="font-family:'Figtree-Light_Medium', 'Figtree';font-weight:300;font-size:50px;"
   id="text254">S</text>
                    </g>
                    <g
   transform="matrix(0.742485,-0.669863,0.669863,0.742485,-687.467,898.795)"
   id="g260">
                        <text
   x="825.264px"
   y="1343.54px"
   style="font-family:'Figtree-Light_Medium', 'Figtree';font-weight:300;font-size:50px;"
   id="text258">U</text>
                    </g>
                    <g
   transform="matrix(0.7724,-0.635136,0.635136,0.7724,-644.41,841.278)"
   id="g264">
                        <text
   x="851.624px"
   y="1319.78px"
   style="font-family:'Figtree-Light_Medium', 'Figtree';font-weight:300;font-size:50px;"
   id="text262">R</text>
                    </g>
                    <g
   transform="matrix(0.796077,-0.605195,0.605195,0.796077,-608.296,794.969)"
   id="g268">
                        <text
   x="875.494px"
   y="1300.12px"
   style="font-family:'Figtree-Light_Medium', 'Figtree';font-weight:300;font-size:50px;"
   id="text266">E</text>
                    </g>
                    <g
   transform="matrix(0.819343,-0.573304,0.573304,0.819343,-572.649,747.084)"
   id="g272">
                        <text
   x="899.086px"
   y="1282.17px"
   style="font-family:'Figtree-Light_Medium', 'Figtree';font-weight:300;font-size:50px;"
   id="text270">S</text>
                    </g>
                </g>
                <g
   transform="matrix(0.313288,0.949658,-0.949658,0.313288,2497.92,-162.453)"
   id="g372">
                    <g
   transform="matrix(-0.0908426,-0.995865,0.995865,-0.0908426,-1243.03,2661.54)"
   id="g278">
                        <text
   x="593.385px"
   y="1898.17px"
   style="font-family:'Figtree-Light_Medium', 'Figtree';font-weight:300;font-size:50px;"
   id="text276">P</text>
                    </g>
                    <g
   transform="matrix(-0.0534631,-0.99857,0.99857,-0.0534631,-1244.97,2559.93)"
   id="g282">
                        <text
   x="590.784px"
   y="1870.01px"
   style="font-family:'Figtree-Light_Medium', 'Figtree';font-weight:300;font-size:50px;"
   id="text280">u</text>
                    </g>
                    <g
   transform="matrix(-0.0109007,-0.999941,0.999941,-0.0109007,-1246.54,2451.66)"
   id="g286">
                        <text
   x="589.273px"
   y="1842.34px"
   style="font-family:'Figtree-Light_Medium', 'Figtree';font-weight:300;font-size:50px;"
   id="text284">b</text>
                    </g>
                    <g
   transform="matrix(0.0169444,-0.999856,0.999856,0.0169444,-1233.92,2371.52)"
   id="g290">
                        <text
   x="589.067px"
   y="1813.27px"
   style="font-family:'Figtree-Light_Medium', 'Figtree';font-weight:300;font-size:50px;"
   id="text288">l</text>
                    </g>
                    <g
   transform="matrix(0.0325915,-0.999469,0.999469,0.0325915,-1231.77,2332.93)"
   id="g294">
                        <text
   x="589.235px"
   y="1802.76px"
   style="font-family:'Figtree-Light_Medium', 'Figtree';font-weight:300;font-size:50px;"
   id="text292">i</text>
                    </g>
                    <g
   transform="matrix(0.0597865,-0.998211,0.998211,0.0597865,-1234.37,2273.1)"
   id="g298">
                        <text
   x="589.472px"
   y="1791.81px"
   style="font-family:'Figtree-Light_Medium', 'Figtree';font-weight:300;font-size:50px;"
   id="text296">c</text>
                    </g>
                    <g
   transform="matrix(0.107154,-0.994242,0.994242,0.107154,-1213.54,2153.53)"
   id="g302">
                        <text
   x="592.276px"
   y="1752.44px"
   style="font-family:'Figtree-Light_Medium', 'Figtree';font-weight:300;font-size:50px;"
   id="text300">I</text>
                    </g>
                    <g
   transform="matrix(0.137194,-0.990544,0.990544,0.137194,-1210.72,2088.64)"
   id="g306">
                        <text
   x="593.569px"
   y="1739.3px"
   style="font-family:'Figtree-Light_Medium', 'Figtree';font-weight:300;font-size:50px;"
   id="text304">n</text>
                    </g>
                    <g
   transform="matrix(0.170234,-0.985404,0.985404,0.170234,-1191.13,2009.15)"
   id="g310">
                        <text
   x="597.441px"
   y="1711.85px"
   style="font-family:'Figtree-Light_Medium', 'Figtree';font-weight:300;font-size:50px;"
   id="text308">t</text>
                    </g>
                    <g
   transform="matrix(0.203562,-0.979062,0.979062,0.203562,-1180.02,1936.86)"
   id="g314">
                        <text
   x="600.486px"
   y="1693.73px"
   style="font-family:'Figtree-Light_Medium', 'Figtree';font-weight:300;font-size:50px;"
   id="text312">e</text>
                    </g>
                    <g
   transform="matrix(0.242795,-0.970078,0.970078,0.242795,-1158.41,1850.24)"
   id="g318">
                        <text
   x="605.992px"
   y="1667.16px"
   style="font-family:'Figtree-Light_Medium', 'Figtree';font-weight:300;font-size:50px;"
   id="text316">g</text>
                    </g>
                    <g
   transform="matrix(0.27867,-0.960387,0.960387,0.27867,-1131.76,1771.09)"
   id="g322">
                        <text
   x="613.144px"
   y="1638.96px"
   style="font-family:'Figtree-Light_Medium', 'Figtree';font-weight:300;font-size:50px;"
   id="text320">r</text>
                    </g>
                    <g
   transform="matrix(0.295762,-0.955262,0.955262,0.295762,-1115.83,1733.3)"
   id="g326">
                        <text
   x="617.651px"
   y="1623.43px"
   style="font-family:'Figtree-Light_Medium', 'Figtree';font-weight:300;font-size:50px;"
   id="text324">i</text>
                    </g>
                    <g
   transform="matrix(0.315844,-0.948811,0.948811,0.315844,-1105.65,1692.58)"
   id="g330">
                        <text
   x="620.842px"
   y="1612.97px"
   style="font-family:'Figtree-Light_Medium', 'Figtree';font-weight:300;font-size:50px;"
   id="text328">t</text>
                    </g>
                    <g
   transform="matrix(0.347413,-0.937712,0.937712,0.347413,-1087.15,1628.73)"
   id="g334">
                        <text
   x="626.599px"
   y="1595.44px"
   style="font-family:'Figtree-Light_Medium', 'Figtree';font-weight:300;font-size:50px;"
   id="text332">y</text>
                    </g>
                    <g
   transform="matrix(0.401296,-0.915948,0.915948,0.401296,-1045.76,1520.22)"
   id="g338">
                        <text
   x="639.997px"
   y="1560.06px"
   style="font-family:'Figtree-Light_Medium', 'Figtree';font-weight:300;font-size:50px;"
   id="text336">F</text>
                    </g>
                    <g
   transform="matrix(0.430184,-0.902741,0.902741,0.430184,-1015.68,1462.49)"
   id="g342">
                        <text
   x="650.649px"
   y="1535.8px"
   style="font-family:'Figtree-Light_Medium', 'Figtree';font-weight:300;font-size:50px;"
   id="text340">r</text>
                    </g>
                    <g
   transform="matrix(0.454567,-0.890713,0.890713,0.454567,-996.374,1415.37)"
   id="g346">
                        <text
   x="657.486px"
   y="1521.24px"
   style="font-family:'Figtree-Light_Medium', 'Figtree';font-weight:300;font-size:50px;"
   id="text344">a</text>
                    </g>
                    <g
   transform="matrix(0.498827,-0.866702,0.866702,0.498827,-963.903,1330.71)"
   id="g350">
                        <text
   x="668.673px"
   y="1498.81px"
   style="font-family:'Figtree-Light_Medium', 'Figtree';font-weight:300;font-size:50px;"
   id="text348">m</text>
                    </g>
                    <g
   transform="matrix(0.541845,-0.840478,0.840478,0.541845,-913.034,1249.78)"
   id="g354">
                        <text
   x="689.839px"
   y="1462.37px"
   style="font-family:'Figtree-Light_Medium', 'Figtree';font-weight:300;font-size:50px;"
   id="text352">e</text>
                    </g>
                    <g
   transform="matrix(0.581332,-0.813666,0.813666,0.581332,-876.774,1175.76)"
   id="g358">
                        <text
   x="704.136px"
   y="1439.87px"
   style="font-family:'Figtree-Light_Medium', 'Figtree';font-weight:300;font-size:50px;"
   id="text356">w</text>
                    </g>
                    <g
   transform="matrix(0.619004,-0.785388,0.785388,0.619004,-830.131,1107.2)"
   id="g362">
                        <text
   x="726.131px"
   y="1409.22px"
   style="font-family:'Figtree-Light_Medium', 'Figtree';font-weight:300;font-size:50px;"
   id="text360">o</text>
                    </g>
                    <g
   transform="matrix(0.646727,-0.762721,0.762721,0.646727,-794.649,1057.38)"
   id="g366">
                        <text
   x="744.121px"
   y="1386.52px"
   style="font-family:'Figtree-Light_Medium', 'Figtree';font-weight:300;font-size:50px;"
   id="text364">r</text>
                    </g>
                    <g
   transform="matrix(0.668756,-0.743482,0.743482,0.668756,-771.756,1016.1)"
   id="g370">
                        <text
   x="754.446px"
   y="1374.16px"
   style="font-family:'Figtree-Light_Medium', 'Figtree';font-weight:300;font-size:50px;"
   id="text368">k</text>
                    </g>
                </g>
                
                
                <g
   transform="matrix(1,0,0,1,385.398,660.237)"
   id="g386"
   onclick="window.location.href='/theme/corruption-measures/'">
                    <text
   x="621.35px"
   y="954.621px"
   style="font-family:'Figtree-Light_Medium', 'Figtree';font-weight:300;font-size:50px;fill:white;"
   id="text382">CORRUPTION</text>
                    <text
   x="649px"
   y="1004.62px"
   style="font-family:'Figtree-Light_Medium', 'Figtree';font-weight:300;font-size:50px;fill:white;"
   id="text384">MEASURES</text>
                </g>
                
                <g
   transform="matrix(1,0,0,1,903.29,962.563)"
   id="g400"
   onclick="window.location.href='theme/freedom-of-expression">
                    <text
   x="392.56px"
   y="992.094px"
   style="font-family:'Figtree-Light_Medium', 'Figtree';font-weight:300;font-size:50px;fill:white;"
   id="text396">FREEDOM OF</text>
                    <text
   x="392.56px"
   y="1042.09px"
   style="font-family:'Figtree-Light_Medium', 'Figtree';font-weight:300;font-size:50px;fill:white;"
   id="text398">EXPRESSION</text>
                </g>
                
                <g
   id="g2228"
   onclick="window.location.href='/theme/transparency/'"><g
     transform="matrix(1,0,0,1,471.792,683.655)"
     id="regulation"
     onclick="window.location.href='/theme/transparency/'">
                    <text
   x="496.724px"
   y="434.505px"
   style="font-family:'Figtree-Light_Medium', 'Figtree';font-weight:300;font-size:50px;fill:white;"
   id="text374">REGULATION</text>
                </g><g
     transform="matrix(1,0,0,1,246.36,890.171)"
     id="g414">
                    <text
   x="720.577px"
   y="281.488px"
   style="font-family:'Figtree-Light', 'Figtree';font-weight:300;font-size:43.75px;fill:white;"
   id="text408">• P<tspan
   x="777.977px "
   y="281.488px "
   id="tspan406">u</tspan>blic accountability</text>
                    <text
   x="720.577px"
   y="327.321px"
   style="font-family:'Figtree-Light', 'Figtree';font-weight:300;font-size:43.75px;fill:white;"
   id="text412">• Criminal la<tspan
   x="952.102px "
   y="327.321px "
   id="tspan410">w</tspan>
                    </text>
                </g></g>
                <g
   id="g2219"
   onclick="window.location.href='/theme/transparency/'"><g
     transform="matrix(1,0,0,1,-154.064,797.212)"
     id="g380"
     onclick="window.location.href='/theme/transparency/'">
                    <text
   x="711.474px"
   y="667.104px"
   style="font-family:'Figtree-Light_Medium', 'Figtree';font-weight:300;font-size:50px;fill:white;"
   id="text378">TRANSPARENCY</text>
                </g><g
     transform="matrix(1,0,0,1,197.965,851.423)"
     id="g428">
                    <text
   x="369.421px"
   y="660.634px"
   style="font-family:'Figtree-Light', 'Figtree';font-weight:300;font-size:43.75px;fill:white;"
   id="text416">• Fiscal</text>
                    <text
   x="369.421px"
   y="706.467px"
   style="font-family:'Figtree-Light', 'Figtree';font-weight:300;font-size:43.75px;fill:white;"
   id="text422">• A<tspan
   x="430.846px "
   y="706.467px "
   id="tspan418">d</tspan>ministrativ<tspan
   x="656.596px "
   y="706.467px "
   id="tspan420">e</tspan>
                    </text>
                    <text
   x="369.421px"
   y="752.3px"
   style="font-family:'Figtree-Light', 'Figtree';font-weight:300;font-size:43.75px;fill:white;"
   id="text424">• Judicial</text>
                    <text
   x="369.421px"
   y="798.134px"
   style="font-family:'Figtree-Light', 'Figtree';font-weight:300;font-size:43.75px;fill:white;"
   id="text426">• Electoral</text>
                </g></g>
                <g
   id="g2235"
   onclick="window.location.href='/theme/enforcement/'"><g
     transform="matrix(1,0,0,1,672.086,1103.81)"
     id="g404"
     onclick="window.location.href='/theme/enforcement/'">
                    <text
   x="737.914px"
   y="373.021px"
   style="font-family:'Figtree-Light_Medium', 'Figtree';font-weight:300;font-size:50px;fill:white;"
   id="text402"
   inkscape:label="text402"
   onclick="window.location.href='/theme/enforcement/'">ENFORCEMENT</text>
                </g><g
     transform="matrix(1,0,0,1,880.08,1174.31)"
     id="g434">
                    <text
   x="589.461px"
   y="353.266px"
   style="font-family:'Figtree-Light', 'Figtree';font-weight:300;font-size:43.75px;fill:white;"
   id="text430">• National</text>
                    <text
   x="589.461px"
   y="399.099px"
   style="font-family:'Figtree-Light', 'Figtree';font-weight:300;font-size:43.75px;fill:white;"
   id="text432">• International</text>
                </g></g>
                <g
   id="g2208"
   onclick="window.location.href='/theme/internet-empowerment/'"><g
     transform="matrix(1,0,0,1,275.564,780.604)"
     id="g394"
     onclick="window.location.href='/theme/internet-empowerment/'">
                    <text
   x="431.464px"
   y="1120.65px"
   style="font-family:'Figtree-Light_Medium', 'Figtree';font-weight:300;font-size:50px;fill:white;"
   id="text388">INTERNET</text>
                    <text
   x="431.464px"
   y="1170.65px"
   style="font-family:'Figtree-Light_Medium', 'Figtree';font-weight:300;font-size:50px;fill:white;"
   id="text392">EMPO<tspan
   x="570.014px "
   y="1170.65px "
   id="tspan390">W</tspan>ERMENT</text>
                </g><g
     transform="matrix(1,0,0,1,681.581,1434.46)"
     id="g440">
                    <text
   x="22.637px"
   y="563.107px"
   style="font-family:'Figtree-Light', 'Figtree';font-weight:300;font-size:43.75px;fill:white;"
   id="text436">• E-services</text>
                    <text
   x="22.637px"
   y="608.94px"
   style="font-family:'Figtree-Light', 'Figtree';font-weight:300;font-size:43.75px;fill:white;"
   id="text438">• Enlightened citizens</text>
                </g></g>
            </g>
        </g>
    </g>
</svg>
